<svg width="80" height="81" viewBox="0 0 80 81" fill="none" xmlns="http://www.w3.org/2000/svg">
<g clip-path="url(#clip0)">
<path d="M70.9296 11.9023C70.9296 14.6642 68.6908 16.9023 65.9296 16.9023C63.1677 16.9023 60.9296 14.6642 60.9296 11.9023C60.9296 9.14111 63.1677 6.90234 65.9296 6.90234C68.6908 6.90234 70.9296 9.14111 70.9296 11.9023Z" fill="#C11E25"/>
<path d="M19.0704 68.7617C19.0704 71.5229 16.8323 73.7617 14.0704 73.7617C11.3092 73.7617 9.07043 71.5229 9.07043 68.7617C9.07043 65.9999 11.3092 63.7617 14.0704 63.7617C16.8323 63.7617 19.0704 65.9999 19.0704 68.7617Z" fill="#F9B643"/>
<path d="M14.0704 62.1991C12.9504 62.1991 11.8738 62.4786 10.9186 63.0035C5.88684 56.5533 3.125 48.5406 3.125 40.332C3.125 19.9988 19.6667 3.45703 40 3.45703C42.4719 3.45703 44.9426 3.703 47.3438 4.18823C48.1885 4.35913 49.0137 3.81226 49.1846 2.96631C49.3555 2.12036 48.8086 1.29639 47.9626 1.12488C45.3583 0.598755 42.6794 0.332031 40 0.332031C29.3158 0.332031 19.2706 4.4928 11.7157 12.0477C4.16077 19.6027 0 29.6478 0 40.332C0 49.3195 3.05176 58.0902 8.60779 65.1215C7.89246 66.1902 7.50793 67.4463 7.50793 68.7616C7.50793 70.5145 8.19092 72.1625 9.43054 73.4015C10.6696 74.6411 12.3175 75.3241 14.0704 75.3241C15.8234 75.3241 17.4713 74.6411 18.7109 73.4015C19.9506 72.1625 20.6329 70.5139 20.6329 68.761C20.6329 67.0087 19.9506 65.3601 18.7109 64.1211C17.4713 62.8815 15.8234 62.1991 14.0704 62.1991ZM16.5009 71.192C15.8521 71.8414 14.9884 72.1991 14.0704 72.1991C13.1525 72.1991 12.2894 71.8414 11.64 71.192C10.9906 70.5426 10.6329 69.6796 10.6329 68.7616C10.6329 67.843 10.9906 66.98 11.64 66.3306C12.2888 65.6812 13.1525 65.3241 14.0704 65.3241C14.9884 65.3241 15.8514 65.6818 16.5009 66.3306C17.1503 66.98 17.5079 67.843 17.5079 68.7616C17.5079 69.6796 17.1503 70.5426 16.5009 71.192Z" fill="#8E8E8E"/>
<path d="M71.3911 15.5406C73.0897 12.9924 72.8168 9.50854 70.5701 7.26184C69.3305 6.02283 67.6826 5.33984 65.9296 5.33984C64.1767 5.33984 62.5288 6.02283 61.2891 7.26184C60.0495 8.50146 59.3671 10.1494 59.3671 11.9023C59.3671 13.6553 60.0495 15.3032 61.2891 16.5428C62.5288 17.7825 64.1767 18.4648 65.9296 18.4648C67.0496 18.4648 68.1263 18.1853 69.0815 17.6604C74.1132 24.1112 76.8751 32.1233 76.8751 40.3319C76.8751 60.6652 60.3333 77.2069 40.0001 77.2069C37.5526 77.2069 35.1051 76.9658 32.7265 76.4897C31.8806 76.3207 31.0572 76.8694 30.8875 77.7153C30.7185 78.5619 31.2672 79.3846 32.1131 79.5543C34.6931 80.0701 37.3469 80.3319 40.0001 80.3319C50.6843 80.3319 60.7294 76.1711 68.2844 68.6162C75.8393 61.0613 80.0001 51.0161 80.0001 40.3319C80.0001 31.3439 76.9477 22.5725 71.3911 15.5406ZM63.4992 14.3334C62.8498 13.684 62.4921 12.8209 62.4921 11.9023C62.4921 10.9844 62.8498 10.1213 63.4992 9.47192C64.148 8.82251 65.0117 8.46484 65.9296 8.46484C66.8476 8.46484 67.7113 8.82251 68.3607 9.47192C69.7004 10.8123 69.7004 12.993 68.3607 14.3334C67.7113 14.9822 66.8476 15.3398 65.9296 15.3398C65.0111 15.3398 64.148 14.9822 63.4992 14.3334Z" fill="#8E8E8E"/>
<path d="M33.5522 67.207C33.5522 68.0701 34.2523 68.7695 35.1147 68.7695H44.8846C45.7477 68.7695 46.4471 68.0701 46.4471 67.207V64.1779C48.5016 63.6249 50.4657 62.8107 52.3114 61.7474L54.4501 63.8861C54.743 64.1791 55.1404 64.3439 55.5554 64.3439C55.9692 64.3439 56.3672 64.1791 56.6602 63.8855L63.5657 56.9751C64.1754 56.3647 64.1754 55.3754 63.5657 54.7656L61.4294 52.6294C62.4927 50.7837 63.3069 48.8196 63.8599 46.7651H66.8774C67.7405 46.7651 68.4399 46.0657 68.4399 45.2026V35.4327C68.4399 34.5697 67.7405 33.8702 66.8774 33.8702H63.8593C63.3063 31.8164 62.4927 29.8523 61.4294 28.0066L63.5541 25.882C63.847 25.589 64.0118 25.191 64.0118 24.7766C64.0112 24.3622 63.8464 23.9642 63.5535 23.6713L56.6425 16.7657C56.0327 16.156 55.0433 16.156 54.433 16.7664L52.3114 18.8885C50.4657 17.8253 48.5016 17.0111 46.4471 16.4581V13.457C46.4471 12.594 45.7477 11.8945 44.8846 11.8945H35.1147C34.2523 11.8945 33.5522 12.594 33.5522 13.457V16.4587C31.4984 17.0111 29.5343 17.8253 27.6886 18.8885L25.5664 16.7664C24.9567 16.1566 23.9673 16.156 23.3569 16.7657L16.4465 23.6719C16.153 23.9648 15.9882 24.3622 15.9882 24.7766C15.9882 25.191 16.153 25.589 16.4459 25.882L18.5706 28.0066C17.5073 29.8523 16.6931 31.8158 16.1401 33.8702H13.1281C12.265 33.8702 11.5656 34.5697 11.5656 35.4321L11.5601 45.202C11.5594 45.6165 11.7242 46.0144 12.0172 46.3074C12.3102 46.6003 12.7075 46.7651 13.1226 46.7651H16.1401C16.6931 48.8196 17.5073 50.7837 18.5706 52.6294L16.4343 54.7656C15.8246 55.3754 15.824 56.3647 16.4343 56.9751L23.3398 63.8855C23.6328 64.1785 24.0302 64.3439 24.4446 64.3439C24.859 64.3439 25.257 64.1791 25.5499 63.8861L27.688 61.7474C29.5343 62.8107 31.4984 63.6249 33.5522 64.1779V67.207ZM28.3008 58.4613C27.6825 58.0615 26.8689 58.1482 26.3477 58.6688L24.4452 60.5713L19.7485 55.871L21.6492 53.9697C22.1698 53.4491 22.2565 52.6355 21.8567 52.0172C20.4401 49.8248 19.444 47.4219 18.8971 44.8743C18.7421 44.1547 18.1061 43.6401 17.3694 43.6401H14.6857L14.6893 36.9952H17.3694C18.1061 36.9952 18.7421 36.4813 18.8971 35.7611C19.444 33.2141 20.4401 30.8112 21.8567 28.6188C22.2565 28.0005 22.1698 27.1869 21.6492 26.6663L19.7607 24.7772L24.4611 20.0806L26.3477 21.9678C26.8689 22.4884 27.6819 22.5745 28.3008 22.1753C30.4926 20.7587 32.8955 19.7626 35.4431 19.2157C36.1627 19.0607 36.6772 18.4241 36.6772 17.688V15.0195H43.3221V17.6874C43.3221 18.4241 43.8361 19.0607 44.5563 19.2151C47.1033 19.7626 49.5068 20.7581 51.6986 22.1747C52.3169 22.5745 53.1305 22.4884 53.6511 21.9672L55.5383 20.0806L60.2386 24.7772L58.3502 26.6656C57.829 27.1869 57.7429 28.0005 58.1427 28.6188C59.5593 30.8112 60.5548 33.2141 61.1023 35.7611C61.2567 36.4813 61.8933 36.9952 62.63 36.9952H65.3149V43.6401H62.63C61.8933 43.6401 61.2573 44.1547 61.1023 44.8743C60.5554 47.4213 59.5593 49.8248 58.1427 52.0166C57.7429 52.6355 57.8296 53.4491 58.3502 53.9697L60.2509 55.8704L55.5542 60.5707L53.6517 58.6688C53.1305 58.1476 52.3169 58.0615 51.6986 58.4613C49.5062 59.8779 47.1033 60.8734 44.5563 61.4209C43.8361 61.5759 43.3221 62.2119 43.3221 62.9486V65.6445H36.6772V62.9486C36.6772 62.2125 36.1627 61.5759 35.4431 61.4209C32.8961 60.874 30.4932 59.8779 28.3008 58.4613Z" fill="#8E8E8E"/>
<path d="M52.9108 40.3322C52.9108 33.213 47.1191 27.4214 40 27.4214C32.8809 27.4214 27.0892 33.213 27.0892 40.3322C27.0892 47.4513 32.8809 53.2429 40 53.2429C47.1191 53.2429 52.9108 47.4513 52.9108 40.3322ZM30.2142 40.3322C30.2142 34.936 34.6039 30.5464 40 30.5464C45.3961 30.5464 49.7858 34.9366 49.7858 40.3322C49.7858 45.7277 45.3961 50.1179 40 50.1179C34.6039 50.1179 30.2142 45.7283 30.2142 40.3322Z" fill="#8E8E8E"/>
<path d="M54.3872 6.24158C54.7986 6.24158 55.2014 6.07434 55.4919 5.78381C55.7825 5.49146 55.9497 5.08862 55.9497 4.67725C55.9497 4.26831 55.7831 3.86487 55.4919 3.57251C55.2014 3.28198 54.7986 3.11475 54.3872 3.11475C53.9746 3.11475 53.5736 3.28198 53.2831 3.57251C52.9919 3.86487 52.8247 4.26648 52.8247 4.67725C52.8247 5.08984 52.9919 5.49146 53.2831 5.78381C53.5736 6.07434 53.9746 6.24158 54.3872 6.24158Z" fill="#8E8E8E"/>
<path d="M25.6812 74.4507C25.2704 74.4507 24.8669 74.6179 24.5764 74.9084C24.2859 75.199 24.1187 75.6024 24.1187 76.0132C24.1187 76.4258 24.2859 76.8274 24.5764 77.1179C24.8669 77.4084 25.2704 77.5757 25.6812 77.5757C26.0919 77.5757 26.4954 77.4084 26.7859 77.1179C27.0764 76.8274 27.2437 76.424 27.2437 76.0132C27.2437 75.6024 27.0764 75.199 26.7859 74.9084C26.4954 74.6179 26.0919 74.4507 25.6812 74.4507Z" fill="#8E8E8E"/>
</g>
<defs>
<clipPath id="clip0">
<rect width="80" height="80" fill="white" transform="translate(0 0.332031)"/>
</clipPath>
</defs>
</svg>
