<svg width="100" height="101" viewBox="0 0 100 101" fill="none" xmlns="http://www.w3.org/2000/svg">
<path d="M3.125 14.3943V73.7693H65.625C65.625 69.4568 69.125 65.9568 73.4375 65.9568C77.75 65.9568 81.25 69.4568 81.25 73.7693H87.5V14.3943H3.125Z" fill="#848484"/>
<path d="M9.375 55.0193H15.625V67.5193H9.375V55.0193Z" fill="#F3B03E"/>
<path d="M21.875 58.1443H28.125V67.5193H21.875V58.1443Z" fill="#F3B03E"/>
<path d="M34.375 45.6443H40.625V67.5193H34.375V45.6443Z" fill="#F3B03E"/>
<path d="M53.125 51.8943V62.0818C52.1562 63.7693 51.375 65.5974 50.8438 67.5193H46.875V51.8943H53.125Z" fill="#F3B03E"/>
<path d="M73.4375 59.7068C65.6719 59.7068 59.375 66.0037 59.375 73.7693C59.375 76.3318 60.0625 78.738 61.2656 80.8005C63.6875 85.0037 68.2344 87.8318 73.4375 87.8318C78.6406 87.8318 83.1875 85.0037 85.6094 80.8005C86.8125 78.738 87.5 76.3318 87.5 73.7693C87.5 66.0037 81.2031 59.7068 73.4375 59.7068ZM73.4375 81.5818C69.125 81.5818 65.625 78.0818 65.625 73.7693C65.625 69.4568 69.125 65.9568 73.4375 65.9568C77.75 65.9568 81.25 69.4568 81.25 73.7693C81.25 78.0818 77.75 81.5818 73.4375 81.5818Z" fill="#848484"/>
<path d="M85.6094 80.8005L93.7344 85.488C89.6719 92.488 82.1094 97.2068 73.4375 97.2068C64.7656 97.2068 57.2031 92.488 53.1406 85.488L61.2656 80.8005C63.6875 85.0037 68.2344 87.8318 73.4375 87.8318C78.6406 87.8318 83.1875 85.0037 85.6094 80.8005Z" fill="#F3B03E"/>
<path d="M96.875 73.7693C96.875 78.0349 95.7344 82.0505 93.7344 85.488L85.6094 80.8005C86.8125 78.738 87.5 76.3318 87.5 73.7693C87.5 66.0037 81.2031 59.7068 73.4375 59.7068V50.3318C78.7188 50.3318 83.5938 52.0818 87.5 55.0193C93.1875 59.3005 96.875 66.113 96.875 73.7693Z" fill="#BC403A"/>
<path d="M73.4375 50.3318V59.7068C65.6719 59.7068 59.375 66.0037 59.375 73.7693C59.375 76.3318 60.0625 78.738 61.2656 80.8005L53.1406 85.488C51.1406 82.0505 50 78.0349 50 73.7693C50 71.613 50.2969 69.5037 50.8438 67.5193C51.375 65.5974 52.1562 63.7693 53.125 62.0818C57.1719 55.0505 64.7656 50.3318 73.4375 50.3318Z" fill="#AECD40"/>
<path d="M45.9531 35.6287C46.5312 36.1912 46.875 36.9724 46.875 37.8318C46.875 39.5505 45.4688 40.9568 43.75 40.9568C42.0312 40.9568 40.625 39.5505 40.625 37.8318C40.625 36.113 42.0312 34.7068 43.75 34.7068C44.6094 34.7068 45.3906 35.0505 45.9531 35.6287Z" fill="#DF726D"/>
<path d="M60.0156 25.9724C59.4531 26.5505 58.6719 26.8943 57.8125 26.8943C56.9531 26.8943 56.1719 26.5505 55.6094 25.9724C55.0313 25.4099 54.6875 24.6287 54.6875 23.7693C54.6875 22.0505 56.0938 20.6443 57.8125 20.6443C59.5312 20.6443 60.9375 22.0505 60.9375 23.7693C60.9375 24.6287 60.5938 25.4099 60.0156 25.9724Z" fill="#DF726D"/>
<path d="M69.3906 30.9412C69.9688 31.5037 70.3125 32.2849 70.3125 33.1443C70.3125 34.863 68.9062 36.2693 67.1875 36.2693C65.4688 36.2693 64.0625 34.863 64.0625 33.1443C64.0625 32.2849 64.4063 31.5037 64.9844 30.9412C65.5469 30.363 66.3281 30.0193 67.1875 30.0193C68.0469 30.0193 68.8281 30.363 69.3906 30.9412Z" fill="#DF726D"/>
<path d="M87.5 3.45679C92.6719 3.45679 96.875 7.65991 96.875 12.8318C96.875 18.0037 92.6719 22.2068 87.5 22.2068C84.9062 22.2068 82.5625 21.1599 80.875 19.4568C79.5312 18.113 78.5938 16.363 78.2656 14.3943C78.1719 13.8943 78.125 13.363 78.125 12.8318C78.125 7.65991 82.3281 3.45679 87.5 3.45679Z" fill="#BC403A"/>
<path d="M89.0625 54.2849V23.6443C94.3547 22.8818 98.4375 18.3302 98.4375 12.8318C98.4375 6.8021 93.5312 1.89429 87.5 1.89429C81.4688 1.89429 76.5625 6.8021 76.5625 12.8318H1.5625V75.3318H48.5172C49.3297 88.388 60.1813 98.7693 73.4375 98.7693C87.2219 98.7693 98.4375 87.5537 98.4375 73.7693C98.4375 65.8959 94.7703 58.8708 89.0625 54.2849ZM87.5 5.01929C91.8078 5.01929 95.3125 8.52397 95.3125 12.8318C95.3125 17.1396 91.8078 20.6443 87.5 20.6443C83.1922 20.6443 79.6875 17.1396 79.6875 12.8318C79.6875 8.52397 83.1922 5.01929 87.5 5.01929ZM4.6875 15.9568H77.0234C77.3969 17.2037 77.9906 18.3521 78.7531 19.3708L69.1969 28.9271C68.5844 28.6334 67.9094 28.4568 67.1875 28.4568C66.4656 28.4568 65.7906 28.6334 65.1797 28.9271L62.0312 25.7787C62.3234 25.1662 62.5 24.4912 62.5 23.7693C62.5 21.1849 60.3969 19.0818 57.8125 19.0818C55.2281 19.0818 53.125 21.1849 53.125 23.7693C53.125 24.4912 53.3016 25.1662 53.5953 25.7771L45.7594 33.613C45.1469 33.3208 44.4719 33.1443 43.75 33.1443C41.1656 33.1443 39.0625 35.2474 39.0625 37.8318C39.0625 40.4162 41.1656 42.5193 43.75 42.5193C46.3344 42.5193 48.4375 40.4162 48.4375 37.8318C48.4375 37.1099 48.2609 36.4349 47.9672 35.824L55.8031 27.988C56.4156 28.2802 57.0906 28.4568 57.8125 28.4568C58.5344 28.4568 59.2094 28.2802 59.8203 27.9865L62.9688 31.1349C62.6766 31.7474 62.5 32.4224 62.5 33.1443C62.5 35.7287 64.6031 37.8318 67.1875 37.8318C69.7719 37.8318 71.875 35.7287 71.875 33.1443C71.875 32.4224 71.6984 31.7474 71.4047 31.1365L80.9625 21.5802C82.3922 22.6521 84.0891 23.3787 85.9375 23.6458V52.1537C82.2547 50.0146 77.9938 48.7693 73.4375 48.7693C65.9688 48.7693 59.2719 52.0787 54.6875 57.2896V50.3318H45.3125V69.0818H48.8937C48.7 70.1021 48.5828 71.1474 48.5172 72.2068H4.6875V15.9568ZM67.1875 31.5818C68.0484 31.5818 68.75 32.2818 68.75 33.1443C68.75 34.0068 68.0484 34.7068 67.1875 34.7068C66.3266 34.7068 65.625 34.0068 65.625 33.1443C65.625 32.2818 66.3266 31.5818 67.1875 31.5818ZM56.25 23.7693C56.25 22.9068 56.9516 22.2068 57.8125 22.2068C58.6734 22.2068 59.375 22.9068 59.375 23.7693C59.375 24.6318 58.6734 25.3318 57.8125 25.3318C56.9516 25.3318 56.25 24.6318 56.25 23.7693ZM45.3125 37.8318C45.3125 38.6943 44.6109 39.3943 43.75 39.3943C42.8891 39.3943 42.1875 38.6943 42.1875 37.8318C42.1875 36.9693 42.8891 36.2693 43.75 36.2693C44.6109 36.2693 45.3125 36.9693 45.3125 37.8318ZM73.4375 86.2693C66.5453 86.2693 60.9375 80.6615 60.9375 73.7693C60.9375 66.8771 66.5453 61.2693 73.4375 61.2693C80.3297 61.2693 85.9375 66.8771 85.9375 73.7693C85.9375 80.6615 80.3297 86.2693 73.4375 86.2693ZM51.5625 61.6927C50.8141 63.0427 50.1953 64.4693 49.7047 65.9568H48.4375V53.4568H51.5625V61.6927ZM71.875 51.974V58.224C63.9906 59.0115 57.8125 65.6818 57.8125 73.7693C57.8125 76.0552 58.3187 78.2224 59.2047 80.1818L53.7844 83.3115C52.375 80.424 51.5625 77.1927 51.5625 73.7693C51.5625 62.2349 60.5422 52.7802 71.875 51.974ZM73.4375 95.6443C65.9156 95.6443 59.2687 91.8271 55.3312 86.0271L60.7734 82.8849C63.6141 86.8193 68.225 89.3943 73.4375 89.3943C78.65 89.3943 83.2609 86.8193 86.1016 82.8849L91.5438 86.0271C87.6063 91.8271 80.9594 95.6443 73.4375 95.6443ZM93.0906 83.3115L87.6703 80.1818C88.5563 78.2224 89.0625 76.0552 89.0625 73.7693C89.0625 65.6818 82.8844 59.0099 75 58.224V51.974C86.3328 52.7802 95.3125 62.2349 95.3125 73.7693C95.3125 77.1927 94.5 80.424 93.0906 83.3115Z" fill="white"/>
<path d="M73.4375 64.3943C68.2672 64.3943 64.0625 68.599 64.0625 73.7693C64.0625 78.9396 68.2672 83.1443 73.4375 83.1443C78.6078 83.1443 82.8125 78.9396 82.8125 73.7693C82.8125 68.599 78.6078 64.3943 73.4375 64.3943ZM73.4375 80.0193C69.9906 80.0193 67.1875 77.2162 67.1875 73.7693C67.1875 70.3224 69.9906 67.5193 73.4375 67.5193C76.8844 67.5193 79.6875 70.3224 79.6875 73.7693C79.6875 77.2162 76.8844 80.0193 73.4375 80.0193Z" fill="white"/>
<path d="M7.8125 19.0818H10.9375V22.2068H7.8125V19.0818Z" fill="white"/>
<path d="M14.0625 19.0818H35.9375V22.2068H14.0625V19.0818Z" fill="white"/>
<path d="M7.8125 25.3318H10.9375V28.4568H7.8125V25.3318Z" fill="white"/>
<path d="M14.0625 25.3318H35.9375V28.4568H14.0625V25.3318Z" fill="white"/>
<path d="M7.8125 31.5818H10.9375V34.7068H7.8125V31.5818Z" fill="white"/>
<path d="M14.0625 31.5818H35.9375V34.7068H14.0625V31.5818Z" fill="white"/>
<path d="M7.8125 37.8318H10.9375V40.9568H7.8125V37.8318Z" fill="white"/>
<path d="M14.0625 37.8318H35.9375V40.9568H14.0625V37.8318Z" fill="white"/>
<path d="M7.8125 69.0818H17.1875V53.4568H7.8125V69.0818ZM10.9375 56.5818H14.0625V65.9568H10.9375V56.5818Z" fill="white"/>
<path d="M20.3125 69.0818H29.6875V56.5818H20.3125V69.0818ZM23.4375 59.7068H26.5625V65.9568H23.4375V59.7068Z" fill="white"/>
<path d="M32.8125 69.0818H42.1875V44.0818H32.8125V69.0818ZM35.9375 47.2068H39.0625V65.9568H35.9375V47.2068Z" fill="white"/>
</svg>
