<svg width="277" height="223" viewBox="0 0 277 223" fill="none" xmlns="http://www.w3.org/2000/svg">
<path d="M189.785 111.77C189.785 111.768 189.784 111.766 189.783 111.764L177.607 80.8429C171.924 66.4106 179.04 50.0412 193.47 44.3523L229.775 30.0392C230.303 29.8311 230.892 29.8414 231.412 30.0679C231.932 30.2944 232.341 30.7187 232.548 31.2465C234.26 35.6092 234.041 40.2629 232.305 44.2586C231.436 46.2568 230.188 48.0901 228.613 49.6399C229.631 52.7383 229.482 56.0588 228.172 59.0747C227.538 60.5334 226.666 61.8408 225.601 62.9589C226.465 65.7341 226.312 68.6935 225.142 71.3866C223.85 74.3604 221.477 76.6533 218.46 77.8424L205.621 82.9042C194.825 87.1604 189.505 99.4063 193.762 110.202C194.194 111.3 193.655 112.541 192.557 112.974C191.459 113.407 190.218 112.868 189.785 111.77ZM204.054 78.9281L216.893 73.8662C220.238 72.5477 222.177 69.1759 221.834 65.7614L203.107 73.1446C202.009 73.5775 200.768 73.0383 200.335 71.9403C199.902 70.8421 200.441 69.6014 201.539 69.1681L219.283 62.1726C221.526 61.2881 223.291 59.5831 224.252 57.3715C224.922 55.829 225.145 54.1686 224.919 52.5441L204.836 60.4617L204.832 60.4517C203.788 60.7489 202.669 60.2108 202.262 59.1795C201.855 58.1484 202.306 56.9913 203.273 56.4954L203.269 56.4853L203.466 56.4074L221.366 49.3503C227.227 47.0395 230.431 40.8386 229.184 34.8661L195.037 48.3285C182.8 53.1532 176.764 67.0365 181.584 79.2766L188.607 97.1098C190.351 89.1359 195.906 82.1405 204.054 78.9281Z" fill="white"/>
<path d="M204.054 78.9281L216.893 73.8662C220.238 72.5477 222.177 69.1759 221.834 65.7614L203.107 73.1446C202.009 73.5775 200.768 73.0383 200.335 71.9403C199.902 70.8421 200.441 69.6014 201.539 69.1681L219.283 62.1726C221.526 61.2881 223.291 59.5831 224.252 57.3715C224.922 55.829 225.145 54.1686 224.919 52.5441L204.836 60.4617L204.832 60.4517C203.788 60.7489 202.669 60.2108 202.262 59.1795C201.855 58.1484 202.306 56.9913 203.273 56.4954L203.269 56.4853L203.466 56.4074L221.366 49.3503C227.227 47.0395 230.431 40.8386 229.184 34.8661L195.037 48.3285C182.8 53.1532 176.764 67.0365 181.584 79.2766L188.607 97.1098C190.351 89.1359 195.906 82.1405 204.054 78.9281Z" fill="white"/>
<path d="M189.785 111.77C189.785 111.768 189.784 111.766 189.783 111.764L177.607 80.843C171.924 66.4106 179.04 50.0413 193.47 44.3523L229.775 30.0392C230.303 29.8311 230.892 29.8414 231.412 30.0679C231.932 30.2944 232.341 30.7187 232.548 31.2465C234.26 35.6092 234.041 40.263 232.305 44.2586C231.436 46.2568 230.188 48.0901 228.613 49.6399C229.631 52.7383 229.482 56.0588 228.172 59.0748C227.538 60.5334 226.666 61.8408 225.601 62.9589C226.465 65.7341 226.312 68.6935 225.142 71.3866C223.85 74.3604 221.477 76.6534 218.46 77.8425L205.621 82.9043C194.825 87.1605 189.505 99.4063 193.762 110.202C194.194 111.3 193.655 112.541 192.557 112.974C191.459 113.407 190.218 112.868 189.785 111.77ZM204.054 78.9281L216.893 73.8663C220.238 72.5477 222.177 69.1759 221.834 65.7614L203.107 73.1447C202.009 73.5775 200.768 73.0383 200.335 71.9403C199.902 70.8421 200.441 69.6014 201.539 69.1682L219.283 62.1726C221.526 61.2881 223.291 59.5831 224.252 57.3715C224.922 55.829 225.145 54.1686 224.919 52.5441L204.836 60.4617L204.832 60.4517C203.788 60.7489 202.669 60.2108 202.262 59.1795C201.855 58.1484 202.306 56.9914 203.273 56.4954L203.269 56.4853L203.466 56.4074L221.366 49.3503C227.227 47.0396 230.431 40.8386 229.184 34.8662L195.037 48.3286C182.8 53.1532 176.764 67.0365 181.584 79.2766L188.607 97.1098C190.351 89.1359 195.906 82.1405 204.054 78.9281Z" fill="#2E7D32"/>
<path d="M113.196 156.482C113.195 156.48 113.194 156.479 113.193 156.477L92.5023 130.472C82.8451 118.334 65.1106 116.312 52.9692 125.964L22.4211 150.248C21.977 150.601 21.6914 151.117 21.6275 151.68C21.5635 152.244 21.7266 152.81 22.0801 153.254C25.0024 156.917 29.1421 159.055 33.4706 159.549C35.6353 159.796 37.8469 159.632 39.9768 159.043C42.1512 161.473 45.1009 163.005 48.3679 163.378C49.9481 163.559 51.5166 163.457 53.0175 163.093C54.9887 165.23 57.6283 166.576 60.5457 166.91C63.767 167.278 66.9391 166.369 69.4772 164.351L80.2803 155.763C89.3643 148.542 102.629 150.058 109.851 159.141C110.585 160.065 111.929 160.219 112.853 159.484C113.777 158.75 113.931 157.406 113.196 156.482ZM77.6207 152.418L66.8175 161.006C64.0029 163.244 60.1135 163.237 57.3278 161.233L73.0854 148.706C74.0093 147.972 74.1629 146.627 73.4285 145.703C72.6939 144.779 71.3498 144.626 70.4256 145.36L55.4953 157.229C53.6076 158.73 51.2487 159.405 48.8531 159.132C47.1821 158.941 45.6326 158.304 44.3389 157.296L61.237 143.862L61.2303 143.854C62.0098 143.098 62.1036 141.86 61.4137 140.992C60.7241 140.124 59.4965 139.936 58.5839 140.525L58.5772 140.517L58.4108 140.649L43.3493 152.622C38.4178 156.542 31.4457 156.216 26.8967 152.15L55.6288 129.31C65.926 121.124 80.967 122.839 89.1573 133.133L101.09 148.131C93.3122 145.655 84.4767 146.968 77.6207 152.418Z" fill="white"/>
<path d="M77.6207 152.418L66.8175 161.006C64.0029 163.244 60.1135 163.237 57.3278 161.233L73.0854 148.706C74.0093 147.972 74.1629 146.627 73.4285 145.703C72.6939 144.779 71.3498 144.626 70.4256 145.36L55.4953 157.229C53.6076 158.73 51.2487 159.405 48.8531 159.132C47.1821 158.941 45.6326 158.304 44.3389 157.296L61.237 143.862L61.2303 143.854C62.0098 143.098 62.1036 141.86 61.4137 140.992C60.7241 140.124 59.4965 139.936 58.5839 140.525L58.5772 140.517L58.4108 140.649L43.3493 152.622C38.4178 156.542 31.4457 156.216 26.8967 152.15L55.6288 129.31C65.926 121.124 80.967 122.839 89.1573 133.133L101.09 148.131C93.3122 145.655 84.4767 146.968 77.6207 152.418Z" fill="white"/>
<path d="M113.196 156.482C113.195 156.48 113.194 156.479 113.193 156.477L92.5023 130.472C82.8451 118.334 65.1106 116.312 52.9692 125.964L22.4211 150.248C21.977 150.601 21.6914 151.117 21.6275 151.68C21.5635 152.244 21.7266 152.81 22.0801 153.254C25.0024 156.917 29.1421 159.055 33.4706 159.549C35.6353 159.796 37.8469 159.632 39.9768 159.043C42.1512 161.473 45.1009 163.005 48.3679 163.378C49.9481 163.559 51.5166 163.457 53.0175 163.093C54.9887 165.23 57.6283 166.576 60.5457 166.91C63.767 167.278 66.9391 166.369 69.4772 164.351L80.2803 155.763C89.3643 148.542 102.629 150.058 109.851 159.141C110.585 160.065 111.929 160.219 112.853 159.484C113.777 158.75 113.931 157.406 113.196 156.482ZM77.6207 152.418L66.8175 161.006C64.0029 163.244 60.1135 163.237 57.3278 161.233L73.0854 148.706C74.0093 147.972 74.1629 146.627 73.4285 145.703C72.6939 144.779 71.3498 144.626 70.4256 145.36L55.4953 157.229C53.6076 158.73 51.2487 159.405 48.8531 159.132C47.1821 158.941 45.6326 158.304 44.3389 157.296L61.237 143.862L61.2303 143.854C62.0098 143.098 62.1036 141.86 61.4137 140.992C60.7241 140.124 59.4965 139.936 58.5839 140.525L58.5772 140.517L58.4108 140.649L43.3493 152.622C38.4178 156.542 31.4457 156.216 26.8967 152.15L55.6288 129.31C65.926 121.124 80.967 122.839 89.1573 133.133L101.09 148.131C93.3122 145.655 84.4767 146.968 77.6207 152.418Z" fill="#2E7D32"/>
<path d="M201.899 120.674L159.968 144.882C158.784 145.566 157.291 145.163 156.628 144.014L156.622 144.004L156.615 143.993L156.608 143.98L156.6 143.966L156.591 143.951L156.582 143.935L156.572 143.917L156.561 143.898L156.549 143.878L156.537 143.857L156.524 143.835L156.511 143.811L156.496 143.786L156.481 143.761L156.466 143.733L156.449 143.705L156.432 143.676L156.415 143.645L156.396 143.613L156.377 143.58L156.358 143.546L156.337 143.511L156.316 143.475L156.295 143.437L156.272 143.399L156.25 143.359L156.226 143.318L156.202 143.276L156.177 143.233L156.151 143.189L156.125 143.144L156.098 143.097L156.071 143.05L156.043 143.001L156.014 142.952L155.985 142.901L155.955 142.849L155.925 142.796L155.894 142.743L155.862 142.688L155.83 142.632L155.797 142.575L155.763 142.517L155.729 142.457L155.694 142.397L155.659 142.336L155.623 142.274L155.587 142.211L155.55 142.147L155.512 142.081L155.474 142.015L155.435 141.948L155.395 141.88L155.356 141.811L155.315 141.74L155.274 141.669L155.232 141.597L155.19 141.524L155.147 141.45L155.104 141.375L155.06 141.299L155.016 141.222L154.971 141.144L154.925 141.065L154.879 140.986L154.833 140.905L154.786 140.823L154.738 140.741L154.69 140.658L154.641 140.573L154.592 140.488L154.542 140.402L154.492 140.315L154.441 140.227L154.39 140.138L154.338 140.049L154.286 139.958L154.233 139.867L154.18 139.774L154.126 139.681L154.072 139.587L154.017 139.492L153.962 139.397L153.906 139.3L153.85 139.203L153.793 139.105L153.736 139.006L153.678 138.906L153.62 138.805L153.562 138.704L153.503 138.601L153.443 138.498L153.383 138.394L153.323 138.29L153.262 138.184L153.201 138.078L153.139 137.971L153.077 137.863L153.014 137.755L152.951 137.645L152.887 137.535L152.823 137.425L152.759 137.313L152.694 137.201L152.629 137.088L152.563 136.974L152.497 136.859L152.43 136.744L152.363 136.628L152.296 136.511L152.228 136.394L152.16 136.276L152.092 136.157L152.023 136.038L151.953 135.917L151.883 135.797L151.813 135.675L151.743 135.553L151.672 135.43L151.6 135.306L151.529 135.182L151.457 135.057L151.384 134.932L151.311 134.806L151.238 134.679L151.164 134.551L151.09 134.423L151.016 134.294L150.941 134.165L150.866 134.035L150.791 133.905L150.715 133.773L150.639 133.642L150.563 133.509L150.486 133.376L150.409 133.243L150.332 133.109L150.254 132.974L150.176 132.839L150.097 132.703L150.018 132.566L149.939 132.429L149.86 132.292L149.78 132.154L149.7 132.015L149.62 131.876L149.539 131.736L149.458 131.596L149.377 131.455L149.295 131.314L149.214 131.172L149.131 131.03L149.049 130.887L148.966 130.744L148.883 130.6L148.8 130.456L148.716 130.311L148.632 130.166L148.548 130.02L148.464 129.874L148.379 129.727L148.294 129.58L148.209 129.433L148.124 129.284L148.038 129.136L147.952 128.987L147.866 128.838L147.779 128.688L147.692 128.538L147.605 128.387L147.518 128.236L147.431 128.084L147.343 127.933L147.255 127.78L147.167 127.628L147.079 127.475L146.99 127.321L146.901 127.167L146.812 127.013L146.723 126.858L146.633 126.703L146.544 126.548L146.454 126.392L146.364 126.236L146.273 126.08L146.183 125.923L146.092 125.766L146.001 125.609L145.91 125.451L145.819 125.293L145.728 125.134L145.636 124.976L145.544 124.817L145.452 124.657L145.36 124.498L145.268 124.338L145.175 124.177L145.082 124.017L144.99 123.856L144.897 123.695L144.803 123.534L144.71 123.372L144.617 123.21L144.523 123.048L144.429 122.886L144.335 122.723L144.241 122.56L144.147 122.397L144.053 122.234L143.958 122.07L143.864 121.906L143.769 121.742L143.674 121.578L143.579 121.414L143.484 121.249L143.389 121.084L143.294 120.919L143.198 120.754L143.103 120.588L143.007 120.423L142.912 120.257L142.816 120.091L142.72 119.925L142.624 119.759L142.528 119.592L142.432 119.426L142.335 119.259L142.239 119.092L142.143 118.925L142.046 118.758L141.95 118.591L141.853 118.424L141.756 118.256L141.66 118.088L141.563 117.921L141.466 117.753L141.369 117.585L141.272 117.417L141.175 117.249L141.078 117.081L140.981 116.912L140.883 116.744L140.786 116.576L140.689 116.407L140.592 116.239L140.494 116.07L140.397 115.902L140.3 115.733L140.202 115.564L140.105 115.396L140.007 115.227L139.91 115.058L139.813 114.889L139.715 114.72L139.618 114.552L139.52 114.383L139.423 114.214L139.325 114.045L139.228 113.876L139.13 113.707L139.033 113.539L138.935 113.37L138.838 113.201L138.741 113.033L138.643 112.864L138.546 112.695L138.449 112.527L138.351 112.358L138.254 112.19L138.157 112.021L138.06 111.853L137.962 111.685L137.865 111.517L137.768 111.349L137.671 111.181L137.574 111.013L137.477 110.845L137.381 110.677L137.284 110.51L137.187 110.342L137.091 110.175L136.994 110.007L136.897 109.84L136.801 109.673L136.705 109.506L136.608 109.34L136.512 109.173L136.416 109.007L136.32 108.84L136.224 108.674L136.129 108.508L136.033 108.343L135.937 108.177L135.842 108.012L135.746 107.846L135.651 107.681L135.556 107.517L135.461 107.352L135.366 107.187L135.271 107.023L135.176 106.859L135.082 106.695L134.987 106.532L134.893 106.368L134.799 106.205L134.705 106.042L134.611 105.88L134.517 105.717L134.424 105.555L134.33 105.393L134.237 105.232L134.144 105.07L134.051 104.909L133.958 104.749L133.865 104.588L133.773 104.428L133.68 104.268L133.588 104.108L133.496 103.949L133.404 103.79L133.313 103.631L133.221 103.473L133.13 103.315L133.039 103.157L132.948 103L132.857 102.842L132.767 102.686L132.676 102.529L132.586 102.373L132.496 102.217L132.407 102.062L132.317 101.907L132.228 101.753L132.139 101.598L132.05 101.444L131.962 101.291L131.873 101.138L131.785 100.985L131.697 100.833L131.609 100.681L131.522 100.53L131.435 100.378L131.348 100.228L131.261 100.078L131.175 99.9278L131.088 99.7784L131.002 99.6295L130.917 99.481L130.831 99.333L130.746 99.1854L130.661 99.0383L130.576 98.8916L130.492 98.7454L130.408 98.5997L130.324 98.4544L130.24 98.3096L130.157 98.1653L130.074 98.0215L129.991 97.8782L129.909 97.7354L129.827 97.5931L129.745 97.4514L129.663 97.3101L129.582 97.1693L129.501 97.0291L129.42 96.8894L129.34 96.7503L129.26 96.6116L129.18 96.4736L129.101 96.336L129.022 96.1991L128.943 96.0626L128.865 95.9268L128.786 95.7915L128.709 95.6568L128.631 95.5227L128.554 95.3891L128.477 95.2562L128.401 95.1238L128.325 94.992L128.249 94.8609L128.174 94.7303L128.099 94.6004L128.024 94.471L127.95 94.3423L127.876 94.2142L127.802 94.0868L127.729 93.96L127.656 93.8338L127.584 93.7083L127.512 93.5834L127.44 93.4592L127.369 93.3356L127.298 93.2127L127.227 93.0905L127.157 92.969L127.087 92.8481L127.018 92.7279L126.949 92.6085L126.88 92.4897L126.812 92.3716L126.744 92.2542L126.677 92.1375L126.61 92.0215L126.543 91.9063L126.477 91.7918L126.411 91.678L126.346 91.5649L126.281 91.4526L126.217 91.341L126.153 91.2302L126.089 91.1201L126.026 91.0108L125.964 90.9022L125.901 90.7945L125.84 90.6874L125.778 90.5812L125.717 90.4758L125.657 90.3711L125.597 90.2672L125.537 90.1641L125.478 90.0619L125.42 89.9604L125.362 89.8597L125.304 89.7599L125.247 89.6609L125.19 89.5627L125.134 89.4653L125.078 89.3688L125.023 89.2731L124.968 89.1783L124.914 89.0843L124.86 88.9912L124.807 88.8989L124.754 88.8075L124.702 88.7169L124.65 88.6273L124.599 88.5385L124.548 88.4506L124.498 88.3636L124.448 88.2775L124.399 88.1922L124.35 88.1079L124.302 88.0245L124.255 87.942L124.207 87.8605L124.161 87.7798L124.115 87.7001L124.069 87.6213L124.024 87.5435L123.98 87.4666L123.936 87.3906L123.893 87.3156L123.85 87.2415L123.808 87.1685L123.766 87.0963L123.725 87.0252L123.685 86.955L123.645 86.8858L123.605 86.8176L123.567 86.7504L123.528 86.6842L123.491 86.619L123.454 86.5548L123.417 86.4916L123.381 86.4294L123.346 86.3682L123.311 86.3081L123.277 86.249L123.244 86.1909L123.211 86.1339L123.178 86.0779L123.147 86.023L123.115 85.9691L123.085 85.9163L123.055 85.8645L123.026 85.8138L122.997 85.7642L122.969 85.7157L122.942 85.6682L122.915 85.6219L122.889 85.5766L122.863 85.5324L122.838 85.4894L122.814 85.4474L122.791 85.4066L122.768 85.3668L122.745 85.3282L122.724 85.2907L122.703 85.2544L122.683 85.2192L122.663 85.1851L122.644 85.1522L122.625 85.1204L122.608 85.0898L122.591 85.0604L122.574 85.0321L122.559 85.005L122.544 84.979L122.53 84.9543L122.516 84.9307L122.503 84.9083L122.491 84.8872L122.479 84.8672L122.468 84.8484L122.458 84.8308L122.449 84.8145L122.44 84.7993L122.432 84.7854L122.425 84.7727L122.418 84.7613L122.412 84.7511C121.749 83.6024 122.147 82.1082 123.331 81.4248L165.261 57.216C166.445 56.5326 167.938 56.9353 168.601 58.084L202.817 117.347C203.48 118.496 203.082 119.99 201.899 120.674Z" fill="#ECEFF1" stroke="#2E7D32" stroke-width="2"/>
<path d="M145.243 91.3198L133.398 98.1584C131.764 99.1021 129.671 98.5414 128.727 96.9068C127.784 95.2723 128.344 93.1797 129.979 92.236L141.824 85.3975C143.458 84.4537 145.551 85.0144 146.495 86.649C147.438 88.2836 146.878 90.3761 145.243 91.3198Z" fill="#388E3C"/>
<path d="M152.082 103.165L140.237 110.003C138.602 110.947 136.51 110.386 135.566 108.752C134.622 107.117 135.183 105.025 136.818 104.081L148.662 97.2422C150.297 96.2985 152.389 96.8592 153.333 98.4937C154.277 100.128 153.716 102.221 152.082 103.165Z" fill="#388E3C"/>
<path d="M158.92 115.009L147.076 121.848C145.441 122.792 143.348 122.231 142.405 120.596C141.461 118.962 142.022 116.869 143.656 115.926L155.501 109.087C157.136 108.143 159.228 108.704 160.172 110.338C161.116 111.973 160.555 114.066 158.92 115.009Z" fill="#388E3C"/>
<path d="M165.759 126.854L153.914 133.693C152.279 134.636 150.187 134.076 149.243 132.441C148.299 130.806 148.86 128.714 150.495 127.77L162.339 120.932C163.974 119.988 166.067 120.549 167.01 122.183C167.954 123.818 167.393 125.91 165.759 126.854Z" fill="#388E3C"/>
<path d="M163.01 81.062L157.088 84.4812C155.453 85.425 153.361 84.8643 152.417 83.2297C151.473 81.5951 152.034 79.5026 153.668 78.5589L159.591 75.1396C161.225 74.1959 163.318 74.7566 164.262 76.3911C165.205 78.0257 164.645 80.1182 163.01 81.062Z" fill="#388E3C"/>
<path d="M169.849 92.9067L163.926 96.326C162.292 97.2697 160.199 96.709 159.256 95.0744C158.312 93.4399 158.873 91.3474 160.507 90.4036L166.429 86.9844C168.064 86.0406 170.157 86.6013 171.1 88.2359C172.044 89.8705 171.483 91.963 169.849 92.9067Z" fill="#388E3C"/>
<path d="M176.687 104.751L170.765 108.171C169.13 109.114 167.038 108.554 166.094 106.919C165.15 105.285 165.711 103.192 167.346 102.248L173.268 98.8291C174.903 97.8854 176.995 98.4461 177.939 100.081C178.883 101.715 178.322 103.808 176.687 104.751Z" fill="#388E3C"/>
<path d="M183.526 116.596L177.603 120.015C175.969 120.959 173.876 120.398 172.933 118.764C171.989 117.129 172.55 115.037 174.184 114.093L180.107 110.674C181.741 109.73 183.834 110.291 184.777 111.925C185.721 113.56 185.16 115.652 183.526 116.596Z" fill="#388E3C"/>
<path d="M118.484 68.436C117.494 68.2607 116.459 68.5357 115.718 69.1993L74.01 105.079C72.7729 106.14 72.4739 107.933 73.2948 109.355L110.764 174.254C111.582 175.67 113.288 176.313 114.824 175.772L166.751 157.592C166.947 157.526 167.139 157.439 167.32 157.334C167.999 156.942 168.524 156.324 168.796 155.578C169.145 154.628 169.048 153.568 168.543 152.695L120.855 70.0959C120.348 69.2168 119.481 68.6079 118.484 68.436Z" fill="#2E7D32"/>
<path d="M137.875 128.195L122.411 123.127L125.026 105.693C125.306 103.843 124.015 102.156 122.154 101.914C120.293 101.671 118.56 102.982 118.27 104.83L115.848 120.976L103.642 116.977C101.85 116.386 99.9064 117.361 99.2916 119.125C98.6649 120.897 99.5998 122.804 101.377 123.382L114.827 127.792L112.546 142.989C112.266 144.839 113.557 146.526 115.418 146.768C116.203 146.865 116.966 146.688 117.602 146.321C118.488 145.809 119.141 144.921 119.304 143.843L121.387 129.938L135.606 134.594C136.577 134.916 137.592 134.779 138.419 134.302C139.115 133.9 139.673 133.26 139.96 132.452C140.586 130.681 139.651 128.773 137.875 128.195Z" fill="#FAFAFA"/>
</svg>
