<svg width="80" height="81" viewBox="0 0 80 81" fill="none" xmlns="http://www.w3.org/2000/svg">
<g clip-path="url(#clip0)">
<path d="M39.323 57.3633L46.3152 64.3555V72.5195C46.3152 75.9713 49.1135 78.7695 52.5652 78.7695H72.1875C75.6392 78.7695 78.4375 75.9713 78.4375 72.5195V58.7695C78.4375 55.3178 75.6392 52.5195 72.1875 52.5195H52.5652C49.5972 52.5195 47.1142 54.5891 46.476 57.3633H39.323Z" fill="#AECD40"/>
<path d="M27.9643 59.1487L20.7911 66.3217L13.6182 59.1487H27.9643Z" fill="white"/>
<path d="M66.3819 24.446L59.2089 31.6192L52.0358 24.446H66.3819Z" fill="white"/>
<path d="M28.3937 57.6467C28.2808 57.6145 28.1652 57.5964 28.0487 57.5901C29.7603 55.7912 30.8144 53.3611 30.8144 50.688V42.4675C30.8144 42.3923 30.8072 42.319 30.797 42.2469C30.8073 42.0984 30.8144 41.949 30.8144 41.7981V36.5972C30.8144 35.7342 30.1148 35.0347 29.2519 35.0347H18.7717C14.3584 35.0347 10.7681 38.6251 10.7681 43.0383V50.688C10.7681 53.3611 11.822 55.7912 13.5337 57.5901C13.4175 57.5964 13.3019 57.6145 13.1891 57.6467C5.80516 58.3153 0 64.5389 0 72.0939V78.7695C0 79.6325 0.699531 80.332 1.5625 80.332H40.0198C40.8828 80.332 41.5823 79.6325 41.5823 78.7695V72.0939C41.5823 64.539 35.7775 58.3154 28.3937 57.6467ZM13.8931 48.2448H24.3675C25.5819 48.2448 26.7186 47.907 27.6894 47.3208V50.6878C27.6894 54.4914 24.5948 57.5859 20.7912 57.5859C16.9877 57.5859 13.8931 54.4914 13.8931 50.6878V48.2448ZM24.192 60.7111L20.7912 64.112L17.3905 60.7111H24.192ZM13.8931 43.0381C13.8931 40.3481 16.0817 38.1595 18.7717 38.1595H27.6894V41.7979C27.6894 43.6297 26.1992 45.1198 24.3675 45.1198H13.8931V45.0197V43.0381ZM38.4573 77.207H3.125V74.082H9.60938C10.4723 74.082 11.1719 73.3825 11.1719 72.5195C11.1719 71.6565 10.4723 70.957 9.60938 70.957H3.18203C3.70687 65.6889 7.83922 61.47 13.0656 60.8056L19.6864 67.4264C19.9794 67.7194 20.3769 67.884 20.7912 67.884C21.2056 67.884 21.6031 67.7194 21.8961 67.4264L28.5169 60.8056C34.1144 61.517 38.4575 66.3062 38.4575 72.0939V77.207H38.4573Z" fill="#8E8E8E"/>
<path d="M66.8117 22.9442C66.6987 22.912 66.583 22.8939 66.4664 22.8877C68.178 21.0888 69.2319 18.6586 69.2319 15.9855V7.76484C69.2319 7.68969 69.2247 7.61641 69.2145 7.54422C69.2248 7.39578 69.2319 7.24641 69.2319 7.09547V1.89453C69.2319 1.03156 68.5323 0.332031 67.6694 0.332031H57.1892C52.7759 0.332031 49.1856 3.9225 49.1856 8.33562V15.9853C49.1856 18.6584 50.2395 21.0886 51.9511 22.8875C51.8347 22.8937 51.7187 22.9119 51.6058 22.9441C44.2222 23.613 38.4175 29.8366 38.4175 37.3913V44.0667C38.4175 44.9297 39.117 45.6292 39.98 45.6292H52.5519C53.4148 45.6292 54.1144 44.9297 54.1144 44.0667C54.1144 43.2038 53.4148 42.5042 52.5519 42.5042H41.5425V37.3914C41.5425 31.6037 45.8854 26.8145 51.483 26.1031L58.1037 32.7239C58.4089 33.0291 58.8087 33.1816 59.2086 33.1816C59.6084 33.1816 60.0084 33.0291 60.3134 32.7239L66.9342 26.1031C72.532 26.8147 76.875 31.6037 76.875 37.3914V42.5044H65.3645C64.5015 42.5044 63.802 43.2039 63.802 44.0669C63.802 44.9298 64.5015 45.6294 65.3645 45.6294H78.4375C79.3004 45.6294 80 44.9298 80 44.0669V37.3914C80 29.8367 74.1951 23.6131 66.8117 22.9442ZM52.3108 15.9855V13.5423H62.7851C63.9995 13.5423 65.1362 13.2044 66.107 12.6183V15.9853C66.107 19.7889 63.0125 22.8834 59.2089 22.8834C55.4053 22.8834 52.3108 19.7891 52.3108 15.9855ZM52.3108 8.33562C52.3108 5.64563 54.4994 3.45703 57.1894 3.45703H66.107V7.09547C66.107 8.92719 64.6169 10.4173 62.7851 10.4173H52.3108V10.3172V8.33562ZM59.2089 29.4094L55.8081 26.0086H62.6097L59.2089 29.4094Z" fill="#8E8E8E"/>
<path d="M60.314 45.1711C60.6047 44.8805 60.7719 44.4789 60.7719 44.0664C60.7719 43.6555 60.6047 43.2523 60.314 42.9617C60.0234 42.6711 59.6203 42.5039 59.2094 42.5039C58.7969 42.5039 58.3953 42.6711 58.1047 42.9617C57.8125 43.2523 57.6469 43.6555 57.6469 44.0664C57.6469 44.4789 57.8125 44.8805 58.1047 45.1711C58.3953 45.4633 58.7969 45.6289 59.2094 45.6289C59.6203 45.6289 60.0234 45.4633 60.314 45.1711Z" fill="#8E8E8E"/>
<path d="M7.8125 29.707H27.4348C30.6652 29.707 33.482 27.7684 34.6639 24.8633H40.677C41.3089 24.8633 41.8787 24.4825 42.1206 23.8988C42.3625 23.315 42.2287 22.6428 41.782 22.1959L35.2475 15.6614V8.14453C35.2475 3.83672 31.7428 0.332031 27.435 0.332031H7.8125C3.50469 0.332031 0 3.83672 0 8.14453V21.8945C0 26.2023 3.50469 29.707 7.8125 29.707ZM3.125 8.14453C3.125 5.55984 5.22781 3.45703 7.8125 3.45703H27.4348C30.0195 3.45703 32.1223 5.55984 32.1223 8.14453V16.3086C32.1223 16.723 32.287 17.1205 32.58 17.4134L36.9048 21.7383H33.5241C32.7961 21.7383 32.1645 22.2409 32.0013 22.9505C31.5094 25.0886 29.6317 26.582 27.4348 26.582H7.8125C5.22781 26.582 3.125 24.4792 3.125 21.8945V8.14453Z" fill="#8E8E8E"/>
<path d="M72.1875 50.957H52.5651C49.3348 50.957 46.518 52.8956 45.3361 55.8008H39.323C38.6911 55.8008 38.1212 56.1816 37.8794 56.7653C37.6375 57.3491 37.7712 58.0213 38.218 58.4681L44.7525 65.0027V72.5195C44.7525 76.8273 48.2572 80.332 52.565 80.332H72.1875C76.4953 80.332 80 76.8273 80 72.5195V58.7695C80 54.4617 76.4953 50.957 72.1875 50.957ZM76.875 72.5195C76.875 75.1042 74.7722 77.207 72.1875 77.207H52.5651C49.9805 77.207 47.8776 75.1042 47.8776 72.5195V64.3555C47.8776 63.9411 47.713 63.5436 47.42 63.2506L43.0951 58.9258H46.4759C47.2039 58.9258 47.8355 58.4231 47.9987 57.7136C48.4906 55.5755 50.3683 54.082 52.5651 54.082H72.1875C74.7722 54.082 76.875 56.1848 76.875 58.7695V72.5195Z" fill="#8E8E8E"/>
<path d="M67.1898 61.4869L63.0362 65.6405L61.1048 63.7091C60.4947 63.0989 59.5053 63.0989 58.895 63.7091C58.2848 64.3193 58.2848 65.3086 58.895 65.9189L61.9312 68.9552C62.2364 69.2604 62.6362 69.4129 63.0361 69.4129C63.4359 69.4129 63.8359 69.2604 64.1409 68.9552L69.3994 63.6968C70.0095 63.0866 70.0095 62.0972 69.3994 61.4869C68.7894 60.8768 67.8 60.8768 67.1898 61.4869Z" fill="#8E8E8E"/>
<path d="M15.4679 12.6298C16.3309 12.6298 17.0304 11.9303 17.0304 11.0673C17.0304 10.4249 17.2892 9.82963 17.7592 9.39088C18.2284 8.95275 18.8432 8.73525 19.4887 8.78057C20.6198 8.85853 21.5315 9.77025 21.6095 10.9013C21.6884 12.0449 20.9387 13.0556 19.827 13.3043C18.6101 13.5765 17.7603 14.6345 17.7603 15.877V16.7106C17.7603 17.5735 18.4598 18.2731 19.3228 18.2731C20.1857 18.2731 20.8853 17.5735 20.8853 16.7106V16.2559C23.3062 15.5337 24.9039 13.2513 24.727 10.6863C24.5423 8.00713 22.3826 5.84744 19.7034 5.66275C18.1842 5.55822 16.7361 6.07072 15.6267 7.10635C14.5328 8.12744 13.9053 9.57119 13.9053 11.0671C13.9054 11.9303 14.605 12.6298 15.4679 12.6298Z" fill="#8E8E8E"/>
<path d="M19.3235 21.1274C18.911 21.1274 18.5094 21.2946 18.2188 21.5853C17.9266 21.8759 17.761 22.279 17.761 22.6899C17.761 23.1009 17.9266 23.504 18.2188 23.7946C18.5094 24.0853 18.911 24.2524 19.3235 24.2524C19.7344 24.2524 20.1375 24.0853 20.4282 23.7946C20.7188 23.504 20.886 23.1009 20.886 22.6899C20.886 22.279 20.7188 21.8759 20.4282 21.5853C20.1375 21.2946 19.7344 21.1274 19.3235 21.1274Z" fill="#8E8E8E"/>
<path d="M15.8594 70.957C15.4484 70.957 15.0453 71.1242 14.7547 71.4148C14.4641 71.7055 14.2969 72.1086 14.2969 72.5195C14.2969 72.9305 14.4641 73.3336 14.7547 73.6242C15.0453 73.9148 15.4484 74.082 15.8594 74.082C16.2703 74.082 16.6734 73.9148 16.9641 73.6242C17.2547 73.3336 17.4219 72.9305 17.4219 72.5195C17.4219 72.1086 17.2547 71.7055 16.9641 71.4148C16.6734 71.1242 16.2703 70.957 15.8594 70.957Z" fill="#8E8E8E"/>
</g>
<defs>
<clipPath id="clip0">
<rect width="80" height="80" fill="white" transform="translate(0 0.332031)"/>
</clipPath>
</defs>
</svg>
