<svg width="100" height="100" viewBox="0 0 100 100" fill="none" xmlns="http://www.w3.org/2000/svg">
<g clip-path="url(#clip0)">
<path d="M86.0098 29.6465H13.9898C11.3959 29.6465 9.29297 31.7494 9.29297 34.3433V92.2724H90.7068V34.3435C90.7066 31.7494 88.6039 29.6465 86.0098 29.6465Z" fill="#708BAF"/>
<path d="M82.8789 84.4443H17.1215C15.3922 84.4443 13.9902 83.0423 13.9902 81.313V37.4747C13.9902 35.7454 15.3922 34.3435 17.1215 34.3435H82.8787C84.608 34.3435 86.01 35.7454 86.01 37.4747V81.313C86.0102 83.0423 84.6082 84.4443 82.8789 84.4443Z" fill="#55739D"/>
<path d="M40.6061 37.4747L32.3431 47.115C31.6134 47.9663 31.2124 49.0505 31.2124 50.1716V54.6966L45.3032 46.8683L40.6061 37.4747Z" fill="#FF8086"/>
<path d="M38.9143 50.4181L45.3031 46.8687L40.6063 37.4747L35.9629 42.8921C36.6979 45.4927 37.6943 48.0068 38.9143 50.4181Z" fill="#E5646E"/>
<path d="M59.3938 37.4747L67.6569 47.115C68.3866 47.9663 68.7876 49.0505 68.7876 50.1716V54.6966L54.6968 46.8683L59.3938 37.4747Z" fill="#FF8086"/>
<path d="M1.46484 89.1412V92.2724C1.46484 94.0017 2.8668 95.4037 4.59609 95.4037H95.4037C97.133 95.4037 98.535 94.0017 98.535 92.2724V89.1412H1.46484Z" fill="#838383"/>
<path d="M51.1277 5.75882C50.5256 5.10941 49.4734 5.10941 48.8713 5.75882C42.8066 12.2992 39.04 21.2752 39.04 31.2123C39.04 38.7717 41.2285 45.768 44.9414 51.5658H55.0578C58.7707 45.768 60.9592 38.7717 60.9592 31.2123C60.9592 21.275 57.1924 12.2992 51.1277 5.75882Z" fill="#FFC35E"/>
<path d="M49.0631 46.8687C48.4408 46.8687 47.8672 46.4806 47.602 45.8798C45.5568 41.2491 44.5197 36.3142 44.5197 31.2122C44.5197 26.3054 45.5326 21.5259 47.3918 17.1214H41.7223C39.9992 21.4499 39.04 26.2079 39.04 31.2122C39.04 38.7716 41.2285 45.7679 44.9414 51.5657H55.0578C56.0115 50.0765 56.8605 48.5056 57.602 46.8689H56.8293H49.0631V46.8687Z" fill="#F3B03E"/>
<path d="M56.2627 57.8282H43.7373L44.9418 51.5655H55.0582L56.2627 57.8282Z" fill="#575757"/>
<path d="M50.0001 34.3434C52.5941 34.3434 54.697 32.2405 54.697 29.6465C54.697 27.0525 52.5941 24.9496 50.0001 24.9496C47.4061 24.9496 45.3032 27.0525 45.3032 29.6465C45.3032 32.2405 47.4061 34.3434 50.0001 34.3434Z" fill="#C3DDFF"/>
<path d="M41.7222 17.1213H58.2771C56.5786 12.8547 54.1382 9.00547 51.1278 5.7586C50.5257 5.10899 49.4737 5.10899 48.8714 5.7586C45.861 9.00547 43.4206 12.8547 41.7222 17.1213Z" fill="#FF8086"/>
<path d="M47.3947 17.1213C48.8166 13.7453 50.6893 10.6641 52.9869 7.96055C52.3908 7.20391 51.7795 6.46094 51.1283 5.7586C50.5262 5.10899 49.4742 5.10899 48.8719 5.7586C45.8613 9.00528 43.4209 12.8545 41.7227 17.1213H47.3947Z" fill="#E5646E"/>
<path d="M71.9189 75.0504C70.6625 75.0504 69.4602 75.2722 68.3359 75.6615C67.2826 72.5818 64.3957 70.3533 60.9594 70.3533C59.043 70.3533 57.3107 71.0689 55.95 72.2123C56.1348 71.6213 56.2625 71.0053 56.2625 70.3533C56.2625 66.8945 53.4588 64.0906 49.9998 64.0906C46.5408 64.0906 43.7371 66.8945 43.7371 70.3533C43.7371 71.0051 43.8648 71.6213 44.0496 72.2123C42.6889 71.0689 40.9564 70.3533 39.0402 70.3533C35.6039 70.3533 32.7168 72.5818 31.6637 75.6615C30.5395 75.2722 29.3371 75.0504 28.0807 75.0504C22.0279 75.0504 17.1211 79.957 17.1211 86.0099C17.1211 87.0988 17.2854 88.1484 17.5809 89.1412H82.4186C82.7143 88.1484 82.8783 87.0988 82.8783 86.0099C82.8785 79.957 77.9717 75.0504 71.9189 75.0504Z" fill="#D6D6D6"/>
<path d="M50 24.9496C47.877 24.9496 46.1043 26.3672 45.5225 28.3004C45.9518 28.1713 46.3975 28.0809 46.8688 28.0809C49.4629 28.0809 51.5656 30.1838 51.5656 32.7778C51.5656 33.2491 51.4752 33.6948 51.3463 34.1239C53.2795 33.5422 54.6971 31.7694 54.6971 29.6463C54.6969 27.0526 52.5942 24.9496 50 24.9496Z" fill="#A4CCFF"/>
<path d="M98.5352 87.6764H92.1717V34.3435C92.1717 30.9459 89.4076 28.1818 86.01 28.1818H67.2229C66.4139 28.1818 65.758 28.8377 65.758 29.6467C65.758 30.4557 66.4139 31.1115 67.2229 31.1115H86.01C87.7922 31.1115 89.242 32.5615 89.242 34.3435V87.6765H84.2281C84.3037 87.1234 84.3434 86.5668 84.3434 86.0101C84.3434 79.1594 78.7697 73.5857 71.9189 73.5857C70.9979 73.5857 70.0781 73.691 69.1715 73.8994C67.591 70.8541 64.4428 68.8887 60.9596 68.8887C59.8232 68.8887 58.7195 69.0959 57.6805 69.4984C57.2537 65.6383 53.9721 62.626 50 62.626C46.0279 62.626 42.7463 65.6383 42.3195 69.4984C41.2805 69.0959 40.1768 68.8887 39.0404 68.8887C35.5572 68.8887 32.4088 70.8541 30.8285 73.8994C29.9217 73.6908 29.0021 73.5857 28.0811 73.5857C21.2301 73.5857 15.6566 79.1594 15.6566 86.0101C15.6566 86.567 15.6963 87.1234 15.7719 87.6765H10.758V34.3435C10.758 32.5613 12.2078 31.1115 13.99 31.1115H32.7777C33.5867 31.1115 34.2426 30.4557 34.2426 29.6467C34.2426 28.8377 33.5867 28.1818 32.7777 28.1818H13.99C10.5924 28.1818 7.82832 30.9461 7.82832 34.3435V87.6765H1.46484C0.655859 87.6765 0 88.3324 0 89.1414V92.2726C0 94.807 2.06191 96.8687 4.59609 96.8687H95.4039C97.9383 96.8687 100 94.8068 100 92.2726V89.1414C100 88.3322 99.3441 87.6764 98.5352 87.6764ZM97.0703 92.2726C97.0703 93.1916 96.3227 93.939 95.4039 93.939H4.59609C3.67715 93.939 2.92969 93.1914 2.92969 92.2726V90.6062H21.8178C22.6268 90.6062 23.2826 89.9504 23.2826 89.1414C23.2826 88.3324 22.6268 87.6765 21.8178 87.6765H18.7361C18.6367 87.1244 18.5861 86.567 18.5861 86.0101C18.5861 80.7748 22.8455 76.5154 28.0809 76.5154C29.1236 76.5154 30.1678 76.6939 31.1844 77.0459C31.5525 77.1734 31.9561 77.149 32.3063 76.9783C32.6562 76.8074 32.9238 76.5043 33.05 76.1357C33.933 73.5535 36.3404 71.8185 39.0406 71.8185C40.5213 71.8185 41.9275 72.3426 43.1076 73.3342C43.6059 73.7527 44.3203 73.7926 44.8619 73.4318C45.4035 73.0711 45.6422 72.3965 45.448 71.7756C45.2805 71.2392 45.2023 70.7875 45.2023 70.3537C45.2023 67.7082 47.3547 65.556 50 65.556C52.6453 65.556 54.7977 67.7084 54.7977 70.3537C54.7977 70.7875 54.7195 71.2392 54.552 71.7756C54.3578 72.3967 54.5967 73.0713 55.1381 73.4318C55.6797 73.7924 56.3941 73.7527 56.8924 73.3342C58.0725 72.3428 59.4789 71.8185 60.9594 71.8185C63.6596 71.8185 66.067 73.5535 66.95 76.1357C67.0762 76.5043 67.3438 76.8074 67.6937 76.9783C68.0439 77.1492 68.4477 77.1736 68.8156 77.0459C69.8322 76.6939 70.8762 76.5154 71.9191 76.5154C77.1547 76.5154 81.4139 80.7748 81.4139 86.0101C81.4139 86.567 81.3631 87.1244 81.2639 87.6765H28.0814C27.2725 87.6765 26.6166 88.3324 26.6166 89.1414C26.6166 89.9504 27.2725 90.6062 28.0814 90.6062H97.0703V92.2726Z" fill="white"/>
<path d="M31.1757 46.1903C30.2548 47.2953 29.7476 48.6963 29.7476 50.135V54.6971C29.7476 55.2178 30.0241 55.6994 30.4737 55.9621C30.7019 56.0953 30.9571 56.1619 31.2124 56.1619C31.4606 56.1619 31.7089 56.0991 31.9323 55.9729L42.364 50.0868C42.7614 50.8125 43.1829 51.5266 43.628 52.2276L42.3167 57.4731C42.2071 57.9108 42.3056 58.3742 42.5831 58.7299C42.8606 59.0856 43.2866 59.2934 43.7378 59.2934H56.263C56.7142 59.2934 57.1399 59.0856 57.4177 58.7299C57.6952 58.3744 57.7937 57.9108 57.6841 57.4731L56.3728 52.2276C56.8179 51.5266 57.2394 50.8127 57.6368 50.0868L68.0685 55.9729C68.2921 56.0991 68.5401 56.1619 68.7884 56.1619C69.0437 56.1619 69.2989 56.0951 69.5271 55.9621C69.9767 55.6996 70.2532 55.218 70.2532 54.6971V50.135C70.2532 48.6963 69.746 47.2953 68.8251 46.1903L61.8712 37.8483C62.2374 35.6723 62.4249 33.4537 62.4249 31.2123C62.4249 25.8703 61.3907 20.7067 59.3511 15.8651C57.3839 11.1955 54.5837 7.05296 51.0282 3.55237C50.4581 2.99105 49.5431 2.99105 48.9729 3.55237C45.4175 7.05277 42.6173 11.1953 40.6501 15.8651C38.6104 20.7069 37.5763 25.8703 37.5763 31.2123C37.5763 33.4502 37.7632 35.6655 38.1282 37.8381L31.1757 46.1903ZM32.6772 52.1885V50.135C32.6772 49.3803 32.9433 48.6455 33.4263 48.0658L38.9169 41.4772C39.4655 43.5295 40.1786 45.5311 41.0528 47.4627L32.6772 52.1885ZM45.6138 56.3635L46.447 53.0307H53.5534L54.3866 56.3635H45.6138ZM66.5739 48.0658C67.0569 48.6455 67.3229 49.3803 67.3229 50.135V52.1885L58.9474 47.4625C59.8214 45.5309 60.5347 43.5295 61.0833 41.477L66.5739 48.0658ZM50.0001 6.6973C52.4601 9.34163 54.489 12.3737 56.031 15.6567H43.9692C45.5112 12.3737 47.5401 9.34163 50.0001 6.6973ZM42.7485 18.5862H57.2515C58.7161 22.5793 59.4946 26.8604 59.4946 31.2121C59.4946 37.9481 57.6825 44.4608 54.2462 50.1008H45.7538C42.3175 44.4608 40.5054 37.9481 40.5054 31.2121C40.5054 26.8604 41.2841 22.5795 42.7485 18.5862Z" fill="white"/>
<path d="M56.1618 29.6465C56.1618 26.2489 53.3978 23.4848 50.0001 23.4848C46.6024 23.4848 43.8384 26.2491 43.8384 29.6465C43.8384 33.044 46.6024 35.8082 50.0001 35.8082C53.3978 35.8082 56.1618 33.0442 56.1618 29.6465ZM46.7681 29.6465C46.7681 27.8643 48.2179 26.4145 50.0001 26.4145C51.7823 26.4145 53.2321 27.8645 53.2321 29.6465C53.2321 31.4285 51.7823 32.8785 50.0001 32.8785C48.2179 32.8785 46.7681 31.4287 46.7681 29.6465Z" fill="white"/>
</g>
<defs>
<clipPath id="clip0">
<rect width="100" height="100" fill="white"/>
</clipPath>
</defs>
</svg>
