<svg width="399" height="266" viewBox="0 0 399 266" fill="none" xmlns="http://www.w3.org/2000/svg">
<path opacity="0.5" d="M155.802 100.688C156.897 96.7536 157.703 92.704 158.183 88.5585L145.665 82.916C145.723 81.7261 145.761 80.5361 145.761 79.327C145.761 75.9876 145.512 72.7057 145.032 69.5198L156.974 62.7257C156.11 58.657 154.919 54.7034 153.46 50.8841L139.752 51.7094C137.87 47.6215 135.586 43.7446 132.955 40.1365L140.366 28.5828C137.717 25.416 134.837 22.4412 131.726 19.7351L119.977 26.8363C116.444 24.111 112.642 21.7119 108.591 19.7351L109.782 6.05107C105.999 4.47731 102.083 3.19143 98.0317 2.23182L90.9279 13.9775C87.1841 13.3249 83.3058 12.9795 79.37 12.9795C78.7556 12.9795 78.1412 12.9795 77.546 12.9987L72.247 0.331787C68.0808 0.69644 64.0105 1.38736 60.0555 2.38535L59.2299 16.0886C54.91 17.4513 50.8014 19.2553 46.9231 21.4432L36.3443 12.6916C32.8692 14.9371 29.5861 17.4513 26.5143 20.1958L32.1588 32.7091C29.0102 35.895 26.1879 39.388 23.7496 43.1497L10.31 40.3092C8.29411 43.879 6.52777 47.6215 5.08782 51.4983L15.8202 60.0004C14.5339 64.2227 13.6507 68.6369 13.2475 73.1663L0.038401 76.9088C0.0192017 77.7149 0 78.5401 0 79.3462C0 82.7049 0.211195 86.0059 0.61438 89.2494L14.1307 91.7252C14.9755 96.197 16.2618 100.496 17.9514 104.584L7.98692 114.027C9.81086 117.75 11.9036 121.32 14.2459 124.678L27.359 120.59C30.1429 124.103 33.2916 127.308 36.7283 130.186L32.2933 143.18C35.5955 145.617 39.109 147.805 42.7761 149.724L52.4909 140.013C56.542 141.817 60.8234 143.218 65.2585 144.178L67.3704 157.747C71.2871 158.341 75.2805 158.649 79.3508 158.649C79.466 158.649 79.5811 158.649 79.6963 158.649L83.7858 145.54C88.336 145.233 92.7711 144.485 97.0141 143.314L105.193 154.349C109.129 153.006 112.911 151.336 116.521 149.417L114.044 135.906C117.865 133.545 121.436 130.82 124.7 127.768L137.064 133.737C139.886 130.743 142.497 127.519 144.82 124.103L136.354 113.297C138.638 109.478 140.539 105.409 142.037 101.129L155.802 100.688ZM79.3508 111.992C61.3226 111.992 46.6927 97.3869 46.6927 79.3462C46.6927 61.3055 61.3034 46.7002 79.3508 46.7002C97.3789 46.7002 112.009 61.3055 112.009 79.3462C112.009 97.3869 97.3789 111.992 79.3508 111.992Z" fill="#AECD40"/>
<path d="M33.0997 114.909C32.8309 114.909 32.5814 114.794 32.4086 114.564C30.5462 112.069 28.8759 109.401 27.436 106.657C27.2248 106.235 27.3784 105.716 27.8008 105.505C28.2231 105.294 28.7415 105.448 28.9527 105.87C30.3543 108.538 31.967 111.129 33.7717 113.566C34.0597 113.95 33.9829 114.487 33.5989 114.756C33.4645 114.871 33.2917 114.909 33.0997 114.909Z" fill="white"/>
<path d="M72.2666 137.959C72.2282 137.959 72.1898 137.959 72.1514 137.959C61.9182 136.616 52.1841 132.585 43.9668 126.29C43.6021 126.002 43.5253 125.465 43.8133 125.1C44.1013 124.736 44.6388 124.659 45.0036 124.947C52.9713 131.05 62.4366 134.965 72.3626 136.27C72.8234 136.328 73.1498 136.75 73.0922 137.23C73.0538 137.652 72.689 137.959 72.2666 137.959Z" fill="white"/>
<path d="M284.428 39.9255H129.413V125.888H284.428V39.9255Z" fill="#E0F4D3"/>
<path d="M279.993 41.8062H131.122V120.11H279.993V41.8062Z" fill="white"/>
<g opacity="0.5">
<g opacity="0.5">
<path opacity="0.5" d="M274.675 113.969H133.483C133.291 113.969 133.138 113.816 133.138 113.624V42.9197C133.138 42.7278 133.291 42.5742 133.483 42.5742H274.675C274.867 42.5742 275.021 42.7278 275.021 42.9197V113.624C275.001 113.816 274.848 113.969 274.675 113.969ZM133.829 113.278H274.329V43.2459H133.829V113.278Z" fill="#E0F4D3"/>
</g>
<g opacity="0.5">
<path opacity="0.5" d="M274.675 102.185H133.483C133.291 102.185 133.138 102.032 133.138 101.84C133.138 101.648 133.291 101.494 133.483 101.494H274.675C274.867 101.494 275.021 101.648 275.021 101.84C275.001 102.032 274.848 102.185 274.675 102.185Z" fill="#E0F4D3"/>
</g>
<g opacity="0.5">
<path opacity="0.5" d="M274.675 90.4014H133.483C133.291 90.4014 133.138 90.2478 133.138 90.0559C133.138 89.864 133.291 89.7104 133.483 89.7104H274.675C274.867 89.7104 275.021 89.864 275.021 90.0559C275.021 90.2478 274.848 90.4014 274.675 90.4014Z" fill="#E0F4D3"/>
</g>
<g opacity="0.5">
<path opacity="0.5" d="M274.675 78.6172H133.483C133.291 78.6172 133.138 78.4636 133.138 78.2717C133.138 78.0798 133.291 77.9263 133.483 77.9263H274.675C274.867 77.9263 275.021 78.0798 275.021 78.2717C275.001 78.4636 274.848 78.6172 274.675 78.6172Z" fill="#E0F4D3"/>
</g>
<g opacity="0.5">
<path opacity="0.5" d="M274.675 66.833H133.483C133.291 66.833 133.138 66.6795 133.138 66.4875C133.138 66.2956 133.291 66.1421 133.483 66.1421H274.675C274.867 66.1421 275.021 66.2956 275.021 66.4875C275.001 66.6795 274.848 66.833 274.675 66.833Z" fill="#E0F4D3"/>
</g>
<g opacity="0.5">
<path opacity="0.5" d="M274.675 55.0493H133.483C133.291 55.0493 133.138 54.8958 133.138 54.7039C133.138 54.5119 133.291 54.3584 133.483 54.3584H274.675C274.867 54.3584 275.021 54.5119 275.021 54.7039C275.021 54.8958 274.848 55.0493 274.675 55.0493Z" fill="#E0F4D3"/>
</g>
<g opacity="0.5">
<path opacity="0.5" d="M251.137 113.969C250.945 113.969 250.791 113.816 250.791 113.624V42.9197C250.791 42.7278 250.945 42.5742 251.137 42.5742C251.329 42.5742 251.482 42.7278 251.482 42.9197V113.624C251.482 113.816 251.329 113.969 251.137 113.969Z" fill="#E0F4D3"/>
</g>
<g opacity="0.5">
<path opacity="0.5" d="M227.599 113.969C227.407 113.969 227.253 113.816 227.253 113.624V42.9197C227.253 42.7278 227.407 42.5742 227.599 42.5742C227.791 42.5742 227.944 42.7278 227.944 42.9197V113.624C227.944 113.816 227.791 113.969 227.599 113.969Z" fill="#E0F4D3"/>
</g>
<g opacity="0.5">
<path opacity="0.5" d="M204.079 113.969C203.887 113.969 203.733 113.816 203.733 113.624V42.9197C203.733 42.7278 203.887 42.5742 204.079 42.5742C204.271 42.5742 204.425 42.7278 204.425 42.9197V113.624C204.405 113.816 204.271 113.969 204.079 113.969Z" fill="#E0F4D3"/>
</g>
<g opacity="0.5">
<path opacity="0.5" d="M180.541 113.969C180.349 113.969 180.195 113.816 180.195 113.624V42.9197C180.195 42.7278 180.349 42.5742 180.541 42.5742C180.733 42.5742 180.886 42.7278 180.886 42.9197V113.624C180.886 113.816 180.733 113.969 180.541 113.969Z" fill="#E0F4D3"/>
</g>
<g opacity="0.5">
<path opacity="0.5" d="M157.003 113.969C156.811 113.969 156.657 113.816 156.657 113.624V42.9197C156.657 42.7278 156.811 42.5742 157.003 42.5742C157.195 42.5742 157.348 42.7278 157.348 42.9197V113.624C157.348 113.816 157.195 113.969 157.003 113.969Z" fill="#E0F4D3"/>
</g>
</g>
<path d="M133.484 114.295C133.234 114.295 132.984 114.161 132.869 113.911C132.696 113.566 132.831 113.163 133.176 112.99L156.619 101.244L168.714 89.614L179.946 66.1611C179.984 66.0843 180.042 66.0075 180.099 65.9499L192.867 54.5881C193.021 54.4538 193.251 54.377 193.462 54.4346C193.673 54.473 193.846 54.6265 193.942 54.8184L204.694 77.9451L217.481 100.65L227.099 89.5948C227.215 89.4604 227.407 89.3645 227.599 89.3645C227.791 89.3645 227.963 89.422 228.098 89.5564L239.061 100.554L250.503 66.257C250.542 66.1611 250.599 66.0651 250.676 65.9883L274.214 42.4203C274.483 42.1516 274.906 42.1516 275.174 42.4203C275.443 42.689 275.443 43.1112 275.174 43.3799L251.751 66.8328L240.001 102.031C239.924 102.262 239.732 102.434 239.502 102.473C239.272 102.53 239.022 102.454 238.869 102.281L227.656 91.015L217.884 102.242C217.73 102.415 217.519 102.492 217.308 102.473C217.097 102.454 216.885 102.319 216.789 102.127L203.523 78.5592C203.523 78.5401 203.503 78.5209 203.503 78.5209L193.117 56.2003L181.136 66.8712L169.924 90.3241C169.885 90.4009 169.847 90.4584 169.789 90.516L157.54 102.3C157.483 102.338 157.425 102.396 157.367 102.415L133.829 114.199C133.695 114.276 133.58 114.295 133.484 114.295Z" fill="#F39892"/>
<path d="M133.484 114.295C133.311 114.295 133.138 114.238 133.004 114.104C132.735 113.835 132.735 113.413 132.985 113.144L167.505 77.7918C167.774 77.5231 168.196 77.5231 168.465 77.7726L180.541 89.096L203.6 66.0078C203.869 65.7391 204.291 65.7391 204.56 66.0078L216.31 77.312L227.119 66.027C227.253 65.8926 227.426 65.8159 227.599 65.8159C227.772 65.8159 227.964 65.8926 228.098 66.0078L250.964 88.9041L274.061 42.6125C274.234 42.267 274.637 42.1327 274.983 42.3054C275.328 42.4781 275.463 42.8811 275.29 43.2266L251.752 90.3627C251.656 90.5547 251.464 90.689 251.252 90.7274C251.041 90.7658 250.811 90.689 250.657 90.5355L227.618 67.4664L216.809 78.7514C216.674 78.8858 216.521 78.9625 216.329 78.9625C216.156 78.9625 215.964 78.905 215.849 78.7706L204.08 67.4472L181.021 90.5355C180.753 90.8042 180.349 90.8042 180.081 90.5547L168.004 79.2312L133.964 114.104C133.829 114.238 133.657 114.295 133.484 114.295Z" fill="#E0F4D3"/>
<path d="M167.808 79.8404C168.976 79.8404 169.923 79.083 169.923 78.1487C169.923 77.2144 168.976 76.457 167.808 76.457C166.64 76.457 165.693 77.2144 165.693 78.1487C165.693 79.083 166.64 79.8404 167.808 79.8404Z" fill="#D3E3F4"/>
<path d="M204.179 68.8444C205.347 68.8444 206.294 67.8977 206.294 66.7298C206.294 65.562 205.347 64.6152 204.179 64.6152C203.011 64.6152 202.064 65.562 202.064 66.7298C202.064 67.8977 203.011 68.8444 204.179 68.8444Z" fill="#D3E3F4"/>
<path d="M227.44 68.8444C228.374 68.8444 229.131 67.8977 229.131 66.7298C229.131 65.562 228.374 64.6152 227.44 64.6152C226.505 64.6152 225.748 65.562 225.748 66.7298C225.748 67.8977 226.505 68.8444 227.44 68.8444Z" fill="#D3E3F4"/>
<path d="M251.123 68.8444C252.058 68.8444 252.815 67.8977 252.815 66.7298C252.815 65.562 252.058 64.6152 251.123 64.6152C250.189 64.6152 249.432 65.562 249.432 66.7298C249.432 67.8977 250.189 68.8444 251.123 68.8444Z" fill="#F39892"/>
<path d="M193.606 57.0027C194.54 57.0027 195.297 56.2453 195.297 55.3111C195.297 54.3768 194.54 53.6194 193.606 53.6194C192.671 53.6194 191.914 54.3768 191.914 55.3111C191.914 56.2453 192.671 57.0027 193.606 57.0027Z" fill="#F39892"/>
<path d="M126.217 78.1179H85.5146V2.23182C85.5146 1.19544 86.3594 0.331787 87.4154 0.331787H136.873C137.91 0.331787 138.773 1.17624 138.773 2.23182V65.5854C138.754 72.5138 133.148 78.1179 126.217 78.1179Z" fill="#D8F4D3"/>
<path d="M136.584 89.7541H90.5508V4.03034C90.5508 2.85045 91.5041 1.89746 92.6845 1.89746H148.546C149.726 1.89746 150.679 2.85045 150.679 4.03034V75.6634C150.679 83.4462 144.369 89.7541 136.584 89.7541Z" fill="white"/>
<path d="M116.042 60.7104V59.367C116.042 58.3114 115.293 57.4478 114.391 57.4478H63.3972C62.4757 57.4478 61.7461 58.3114 61.7461 59.367V60.7104C61.7461 70.2106 68.4083 77.9067 76.6064 77.9067H128.713C120.496 77.9067 115.927 71.0742 116.042 60.7104Z" fill="#D8F4D3"/>
<path d="M114.774 62.0541V60.9794C114.774 60.1157 114.083 59.4248 113.219 59.4248H65.4897C64.6257 59.4248 63.9346 60.1157 63.9346 60.9794V62.0541C63.9346 69.731 70.1743 75.9685 77.8541 75.9685H128.713C121.014 75.9685 114.774 72.2452 114.774 62.0541Z" fill="white"/>
<path d="M131.632 32.6514H95.3066C94.1546 32.6514 93.2139 31.711 93.2139 30.5595V10.849C93.2139 9.6975 94.1546 8.75708 95.3066 8.75708H131.632C132.784 8.75708 133.724 9.6975 133.724 10.849V30.5786C133.705 31.7302 132.784 32.6514 131.632 32.6514ZM95.3066 9.448C94.5386 9.448 93.905 10.0813 93.905 10.849V30.5786C93.905 31.3463 94.5386 31.9797 95.3066 31.9797H131.632C132.4 31.9797 133.033 31.3463 133.033 30.5786V10.849C133.033 10.0813 132.4 9.448 131.632 9.448H95.3066Z" fill="#D8F4D3"/>
<path d="M119.555 42.2285H79.6393C79.0633 42.2285 78.6025 41.7679 78.6025 41.1921C78.6025 40.6164 79.0633 40.1558 79.6393 40.1558H119.555C120.131 40.1558 120.591 40.6164 120.591 41.1921C120.591 41.7679 120.111 42.2285 119.555 42.2285Z" fill="#D8F4D3"/>
<path d="M119.555 45.99H79.6393C79.0633 45.99 78.6025 45.5294 78.6025 44.9536C78.6025 44.3779 79.0633 43.9172 79.6393 43.9172H119.555C120.131 43.9172 120.591 44.3779 120.591 44.9536C120.591 45.5294 120.111 45.99 119.555 45.99Z" fill="#D8F4D3"/>
<path d="M119.555 49.6365H79.6393C79.0633 49.6365 78.6025 49.1759 78.6025 48.6001C78.6025 48.0243 79.0633 47.5637 79.6393 47.5637H119.555C120.131 47.5637 120.591 48.0243 120.591 48.6001C120.591 49.1567 120.111 49.6365 119.555 49.6365Z" fill="#D8F4D3"/>
<path d="M121.648 14.0159H120.438C120.112 14.0159 119.862 13.7664 119.862 13.4402V12.4806C119.862 12.1543 120.112 11.9048 120.438 11.9048H121.648C121.974 11.9048 122.224 12.1543 122.224 12.4806V13.4594C122.224 13.7664 121.955 14.0159 121.648 14.0159Z" fill="#D8F4D3"/>
<path d="M125.929 14.0159H124.72C124.393 14.0159 124.144 13.7664 124.144 13.4402V12.4806C124.144 12.1543 124.393 11.9048 124.72 11.9048H125.929C126.255 11.9048 126.505 12.1543 126.505 12.4806V13.4594C126.505 13.7664 126.236 14.0159 125.929 14.0159Z" fill="#D8F4D3"/>
<path d="M130.21 14.0159H129.001C128.674 14.0159 128.425 13.7664 128.425 13.4402V12.4806C128.425 12.1543 128.674 11.9048 129.001 11.9048H130.21C130.537 11.9048 130.786 12.1543 130.786 12.4806V13.4594C130.786 13.7664 130.518 14.0159 130.21 14.0159Z" fill="#D8F4D3"/>
<path d="M102.563 20.7141H97.1875V29.5809H102.563V20.7141Z" fill="#D8F4D3"/>
<path d="M117.386 21.4624H112.01V29.5999H117.386V21.4624Z" fill="#D8F4D3"/>
<path d="M125.968 17.8157H120.592V29.5805H125.968V17.8157Z" fill="#D8F4D3"/>
<path d="M109.841 24.207H104.465V29.5808H109.841V24.207Z" fill="#D8F4D3"/>
<path opacity="0.5" d="M376.652 93.8939H395.794C395.794 104.392 387.154 113.029 376.652 113.029C366.15 113.029 357.511 104.392 357.511 93.8939C357.511 83.3958 366.15 74.7593 376.652 74.7593V93.8939Z" fill="#AECD40"/>
<path opacity="0.7" d="M398.981 91.2262C398.981 80.6513 390.418 72.0916 379.839 72.0916V91.2262H398.981Z" fill="#BC403A"/>
<path d="M360.717 91.2263C360.717 101.782 369.28 110.361 379.859 110.361C369.357 110.342 360.717 101.705 360.717 91.2263Z" fill="#F39892"/>
<path d="M379.859 72.0916C369.299 72.0916 360.717 80.6513 360.717 91.2262C360.717 80.7281 369.357 72.0916 379.859 72.0916Z" fill="#F39892"/>
<path d="M379.858 110.342C390.418 110.342 399 101.782 399 91.207C398.981 101.705 390.341 110.342 379.858 110.342Z" fill="#F39892"/>
<path d="M230.662 218.979C230.662 218.979 228.512 239.093 227.629 240.11C226.746 241.127 194.011 257.153 194.011 257.153L241.587 260.396L230.662 218.979Z" fill="#D54A41"/>
<path d="M91.518 265.763H360.919C361.661 265.763 362.268 265.131 362.268 264.359C362.268 263.586 361.661 262.954 360.919 262.954H91.518C90.7764 262.954 90.1696 263.586 90.1696 264.359C90.1599 265.141 90.7667 265.763 91.518 265.763Z" fill="#2B3506"/>
<path d="M154.422 263.173H252.914C252.914 259.68 250.092 256.859 246.597 256.859H154.422V263.173Z" fill="#AECD40"/>
<path d="M154.306 263.173H206.912L184.564 214.041C183.911 212.602 182.491 211.681 180.916 211.681H133.321C132.188 211.681 131.42 212.851 131.9 213.907L154.306 263.173Z" fill="#AECD40"/>
<path d="M133.34 211.681H176.788C178.363 211.681 179.803 212.602 180.436 214.041L202.784 263.173H154.325L131.92 213.907C131.44 212.871 132.188 211.681 133.34 211.681Z" fill="#98AF45"/>
<path d="M158.252 239.041C156.408 235.223 156.408 231.407 158.251 230.518C160.094 229.628 163.083 232.003 164.926 235.822C166.769 239.64 166.77 243.456 164.927 244.345C163.083 245.234 160.095 242.86 158.252 239.041Z" fill="#AECD40"/>
<path d="M240.377 174.203C241.202 174.203 242.009 174.165 242.796 174.127C243.448 174.088 244.12 174.05 244.773 174.05C245.004 174.05 245.196 173.858 245.176 173.628C245.176 173.397 244.984 173.225 244.754 173.225C244.082 173.225 243.391 173.263 242.738 173.301C237.804 173.551 232.697 173.82 227.705 164.243C225.536 160.097 223.193 152.017 223.673 142.92C224.076 135.474 226.591 124.879 236.364 116.723C236.537 116.569 236.556 116.32 236.422 116.147C236.268 115.974 236.018 115.955 235.846 116.089C225.843 124.457 223.251 135.282 222.848 142.882C222.348 152.132 224.768 160.385 226.975 164.627C231.372 173.071 236.038 174.203 240.377 174.203Z" fill="#45100D"/>
<path d="M241.912 172.246C242.104 172.246 242.296 172.246 242.488 172.227C242.719 172.208 242.892 172.016 242.892 171.785C242.892 171.555 242.68 171.382 242.45 171.382C242.277 171.382 242.085 171.401 241.912 171.401C236.767 171.401 232.006 167.755 228.78 161.306C223.5 150.712 222.982 133.305 232.447 121.962C232.601 121.79 232.562 121.521 232.39 121.386C232.217 121.233 231.948 121.271 231.814 121.444C222.118 133.075 222.636 150.847 228.051 161.69C231.41 168.427 236.441 172.246 241.912 172.246Z" fill="#45100D"/>
<path d="M260.401 119.275C245.484 107.702 231.468 113.844 226.457 129.505C221.772 144.129 227.782 175.585 250.034 170.096C273.054 164.435 274.974 157.391 274.801 147.142C274.667 138.966 271.172 127.624 260.401 119.275Z" fill="#45100D"/>
<path d="M268.158 165.682L289.489 173.627C289.489 173.627 283.518 216.925 283.019 233.45C282.5 249.974 290.871 264.33 290.871 264.33H235.116C235.116 264.33 227.437 219.305 228.972 203.452C230.508 187.599 241.087 171.171 241.586 170.787C242.105 170.384 254.892 167.486 254.892 167.486L268.158 165.682Z" fill="#E1F797"/>
<path d="M241.567 170.787C236.288 170.902 234.848 179.539 233.6 185.968C232.371 192.378 241.567 170.787 241.567 170.787Z" fill="#D54A41"/>
<path d="M250.61 204.988C253.509 194.585 269.079 165.644 269.079 165.644L289.488 173.628C289.488 173.628 284.804 207.559 283.383 226.809L275.626 264.33H250.61C250.61 264.33 247.711 215.39 250.61 204.988Z" fill="#F37168"/>
<path d="M279.409 246.059L256.408 240.781L258.29 260.396L279.409 246.059Z" fill="#D54A41"/>
<path d="M267.908 251.529C271.652 246.443 275.319 240.858 271.748 229.208C268.177 217.539 267.832 213.355 269.08 202.781C270.328 192.206 276.011 175.336 287.089 174.837C287.089 174.837 287.453 178.541 288.048 184.433C286.244 198.366 283.345 222.165 282.999 233.469C282.481 249.993 290.852 264.349 290.852 264.349L245.503 265.347C245.484 265.328 264.145 256.596 267.908 251.529Z" fill="#D54A41"/>
<path d="M228.954 203.453C230.489 187.6 241.068 171.171 241.567 170.787C241.875 170.538 246.886 169.348 250.668 168.465C249.554 171.075 237.843 199 238.323 210.477C238.841 222.549 238.304 264.33 238.304 264.33H235.078C235.097 264.33 227.418 219.305 228.954 203.453Z" fill="#F37168"/>
<path d="M258.752 138.871C258.752 138.871 263.225 161.69 268.159 165.682C273.093 169.674 256.793 188.962 251.149 184.011C245.504 179.078 250.765 168.254 250.765 168.254C250.765 168.254 253.817 166.373 248.653 154.378C243.469 142.383 257.408 133.458 257.408 133.458L258.752 138.871Z" fill="#F09959"/>
<path d="M257.388 133.458L258.751 138.871C258.751 138.871 259.366 142.037 260.402 146.221C258.463 155.222 254.854 161.095 251.628 164.819C251.532 162.746 250.822 159.483 248.633 154.397C243.469 142.402 257.388 133.458 257.388 133.458Z" fill="#E38540"/>
<path d="M230.49 147.545C233.485 155.817 240.838 162.477 245.504 160.942C253.126 158.427 258.655 152.478 257.35 139.331C255.814 123.843 243.891 122.058 236.883 124.054C229.875 126.031 227.168 138.391 230.49 147.545Z" fill="#F09959"/>
<path d="M269.081 165.644L276.28 168.465L264.933 183.013L268.178 188.809C268.178 188.809 256.486 197.58 252.934 214.584C249.382 231.589 249.766 246.079 249.766 246.079C249.766 246.079 248.902 211.59 250.611 205.007C253.951 192.206 269.081 165.644 269.081 165.644Z" fill="#D54A41"/>
<path d="M250.668 168.465C250.668 168.465 241.683 191.534 240.262 198.021C238.841 204.508 238.553 236.233 238.553 236.233C238.553 236.233 234.425 208.577 235.616 200.401C236.806 192.225 238.515 184.817 238.515 184.817L243.967 180.787C243.967 180.787 245.004 169.809 245.58 169.674C246.156 169.54 250.668 168.465 250.668 168.465Z" fill="#D54A41"/>
<path d="M255.91 253.026C238.439 247.729 240.551 245.081 234.196 248.075C227.841 251.069 219.873 253.103 223.598 254.082C227.322 255.041 232.948 251.971 232.948 251.971C232.948 251.971 232.065 256.73 235.252 258.151C238.439 259.571 252.55 260.07 260.403 257.882C268.275 255.675 255.91 253.026 255.91 253.026Z" fill="#F09959"/>
<path d="M256.409 252.201H252.934L254.681 262.085C254.681 262.085 261.535 261.068 261.017 260.377C260.499 259.705 256.409 252.201 256.409 252.201Z" fill="#A2DFF2"/>
<path d="M289.489 173.628C296.305 185.566 298.475 192.072 304.023 214.392C309.591 236.713 311.818 246.885 305.674 249.821C300.587 252.259 263.609 263.333 259.116 261.97C257.062 262.085 253.932 251.529 253.932 251.529L287.589 236.521C287.589 236.521 277.855 213.279 276.165 198.002C274.476 182.725 281.963 173.628 285.707 173.628C289.489 173.628 289.489 173.628 289.489 173.628Z" fill="#F37168"/>
<path d="M254.144 140.368C255.795 145.53 255.085 146.586 257.369 147.066C259.654 147.546 261.728 145.281 262.4 142.114C263.072 138.928 261.766 135.973 259.5 135.493C257.216 135.013 253.165 137.278 254.144 140.368Z" fill="#F09959"/>
<path d="M227.341 130.963C236.269 146.816 253.99 144.494 264.761 139.024C273.535 134.572 239.706 117.74 239.706 117.74L227.341 130.963Z" fill="#45100D"/>
<path d="M256.409 117.74C259.711 107.76 273.266 110.121 279.409 123.402C285.553 136.664 276.145 145.53 270.462 142.287C264.76 139.024 256.409 117.74 256.409 117.74Z" fill="#45100D"/>
<path d="M30.9491 92.5504C36.007 92.5504 40.1072 88.4517 40.1072 83.3957C40.1072 78.3397 36.007 74.241 30.9491 74.241C25.8912 74.241 21.791 78.3397 21.791 83.3957C21.791 88.4517 25.8912 92.5504 30.9491 92.5504Z" fill="#91B514"/>
<path d="M30.0273 86.6009C29.8737 86.6009 29.7393 86.5242 29.6433 86.4282L27.1474 83.6069C26.9554 83.3958 26.9746 83.0696 27.1858 82.8776C27.397 82.6857 27.7234 82.7049 27.9154 82.916L30.0465 85.3342L34.9807 80.517C35.1919 80.3251 35.4991 80.3251 35.7103 80.517C35.9023 80.7281 35.9023 81.0352 35.7103 81.2463L30.3921 86.4474C30.2961 86.5433 30.1617 86.6009 30.0273 86.6009Z" fill="white"/>
<g opacity="0.5">
<path d="M282.691 31.2891H276.604V48.9267H282.691V31.2891Z" fill="#AECD40"/>
<path d="M360.813 37.0276H354.727V48.9268H360.813V37.0276Z" fill="#AECD40"/>
<path d="M308.514 7.68262H302.428V48.9267H308.514V7.68262Z" fill="#AECD40"/>
<path d="M321.435 30.387H315.349V48.9267H321.435V30.387Z" fill="#AECD40"/>
<path d="M334.337 25.1477H328.251V48.9269H334.337V25.1477Z" fill="#AECD40"/>
<path d="M295.593 19.6584H289.507V48.9266H295.593V19.6584Z" fill="#AECD40"/>
<path d="M347.296 12.8835H341.21V48.9266H347.296V12.8835Z" fill="#AECD40"/>
</g>
<path opacity="0.4" d="M331.87 173.728H314.349C311.255 173.728 308.73 171.204 308.73 168.109V150.589C308.73 147.494 311.255 144.97 314.349 144.97H331.87C334.964 144.97 337.489 147.494 337.489 150.589V168.109C337.508 171.204 334.964 173.728 331.87 173.728Z" fill="#AECD40"/>
<path d="M341.414 178.82H322.426C319.162 178.82 316.513 176.171 316.513 172.908V153.927C316.513 150.665 319.162 148.016 322.426 148.016H341.414C344.678 148.016 347.328 150.665 347.328 153.927V172.908C347.328 176.19 344.678 178.82 341.414 178.82ZM322.426 149.743C320.103 149.743 318.221 151.624 318.221 153.947V172.928C318.221 175.25 320.103 177.131 322.426 177.131H341.414C343.737 177.131 345.619 175.25 345.619 172.928V153.947C345.619 151.624 343.737 149.743 341.414 149.743H322.426Z" fill="white"/>
<path d="M48.2341 174.626L43.7004 169.398C42.8708 168.433 42.9673 166.967 43.9319 166.137L49.1601 161.603C50.1247 160.774 51.591 160.87 52.4205 161.835L56.9542 167.063C57.7838 168.028 57.6873 169.494 56.7227 170.324L51.4945 174.857C50.5492 175.687 49.083 175.59 48.2341 174.626Z" fill="#AECD40" fill-opacity="0.72"/>
<path d="M73.5876 183.032C75.9233 183.032 77.8168 181.328 77.8168 179.226C77.8168 177.124 75.9233 175.42 73.5876 175.42C71.2519 175.42 69.3584 177.124 69.3584 179.226C69.3584 181.328 71.2519 183.032 73.5876 183.032Z" fill="#AECD40" fill-opacity="0.72"/>
<path opacity="0.3" d="M389.085 170.345C391.42 170.345 393.314 168.451 393.314 166.116C393.314 163.78 391.42 161.886 389.085 161.886C386.749 161.886 384.855 163.78 384.855 166.116C384.855 168.451 386.749 170.345 389.085 170.345Z" fill="#AECD40"/>
<path opacity="0.3" d="M329.453 83.2237C332.022 83.2237 334.105 81.3303 334.105 78.9946C334.105 76.6589 332.022 74.7654 329.453 74.7654C326.884 74.7654 324.801 76.6589 324.801 78.9946C324.801 81.3303 326.884 83.2237 329.453 83.2237Z" fill="#AECD40"/>
<path opacity="0.3" d="M361.172 135.666C363.041 135.666 364.556 134.151 364.556 132.282C364.556 130.414 363.041 128.899 361.172 128.899C359.304 128.899 357.789 130.414 357.789 132.282C357.789 134.151 359.304 135.666 361.172 135.666Z" fill="#AECD40"/>
<path opacity="0.5" d="M206.296 167.631C206.469 166.076 206.565 164.502 206.565 162.89C206.565 162.046 206.546 161.201 206.488 160.376L198.655 157.843C198.175 154.541 197.234 151.394 195.89 148.477L201.074 142.086C199.865 139.975 198.502 137.979 196.966 136.117L189.132 138.669C186.848 136.347 184.236 134.332 181.376 132.72L181.817 124.506C179.629 123.508 177.344 122.702 174.982 122.087L170.144 128.747C168.263 128.421 166.323 128.267 164.346 128.267C163.002 128.267 161.677 128.344 160.372 128.498L155.898 121.588C153.498 122.068 151.175 122.759 148.948 123.642L148.967 131.875C146.011 133.334 143.303 135.215 140.904 137.422L133.224 134.466C131.592 136.251 130.114 138.17 128.808 140.224L133.646 146.884C132.149 149.743 131.035 152.833 130.382 156.096L122.434 158.207C122.261 159.762 122.165 161.336 122.165 162.948C122.165 163.792 122.184 164.637 122.242 165.462L130.075 167.995C130.555 171.296 131.496 174.444 132.84 177.361L127.656 183.752C128.866 185.863 130.229 187.859 131.765 189.721L139.598 187.168C141.883 189.491 144.494 191.506 147.355 193.118L146.913 201.332C149.102 202.33 151.386 203.136 153.748 203.75L158.586 197.091C160.468 197.417 162.407 197.57 164.384 197.57C165.728 197.57 167.053 197.494 168.359 197.34L172.832 204.249C175.232 203.77 177.555 203.079 179.782 202.196L179.763 193.962C182.72 192.504 185.427 190.623 187.827 188.416L195.506 191.371C197.138 189.586 198.617 187.667 199.922 185.614L195.084 178.954C196.582 176.094 197.695 173.004 198.348 169.742L206.296 167.631ZM164.365 179.434C155.226 179.434 147.815 172.026 147.815 162.89C147.815 153.755 155.226 146.346 164.365 146.346C173.504 146.346 180.915 153.755 180.915 162.89C180.915 172.026 173.504 179.434 164.365 179.434Z" fill="#AECD40"/>
<path d="M186.943 181.986C186.751 181.986 186.559 181.929 186.405 181.794C186.041 181.487 186.002 180.95 186.29 180.585C190.418 175.634 192.684 169.339 192.684 162.89C192.684 159.8 192.184 156.768 191.186 153.87C191.032 153.428 191.263 152.948 191.724 152.795C192.165 152.641 192.645 152.872 192.799 153.332C193.855 156.403 194.392 159.627 194.392 162.909C194.392 169.761 191.973 176.44 187.596 181.698C187.423 181.89 187.193 181.986 186.943 181.986Z" fill="white"/>
<path d="M184.543 142.949C184.332 142.949 184.121 142.873 183.967 142.719C181.203 140.109 177.977 138.132 174.425 136.846C173.984 136.693 173.753 136.194 173.907 135.752C174.061 135.311 174.56 135.081 175.001 135.234C178.784 136.597 182.182 138.708 185.139 141.472C185.484 141.798 185.503 142.335 185.177 142.681C185.004 142.853 184.774 142.949 184.543 142.949Z" fill="white"/>
<path d="M157.953 136.059C157.569 136.059 157.223 135.81 157.127 135.407C157.012 134.946 157.281 134.485 157.742 134.37C160.084 133.775 162.522 133.468 164.96 133.468C165.44 133.468 165.805 133.852 165.805 134.313C165.805 134.793 165.421 135.157 164.96 135.157C162.657 135.157 160.372 135.445 158.164 136.002C158.087 136.04 158.03 136.059 157.953 136.059Z" fill="white"/>
</svg>
