<svg width="428" height="283" viewBox="0 0 428 283" fill="none" xmlns="http://www.w3.org/2000/svg">
<path d="M400.531 112.238C376.045 97.8982 336.429 97.8982 311.943 112.238C287.457 126.577 287.457 149.804 311.943 164.143C336.429 178.483 376.045 178.483 400.531 164.143C425.017 149.804 425.017 126.577 400.531 112.238ZM332.846 151.891C319.906 144.351 319.906 132.031 332.846 124.49C345.786 116.95 366.688 116.95 379.628 124.49C392.568 132.031 392.568 144.351 379.628 151.891C366.755 159.498 345.786 159.498 332.846 151.891Z" fill="#FDE0A2"/>
<g opacity="0.2">
<path d="M111.892 211.891C113.748 212.976 116.747 212.976 118.603 211.891C120.46 210.805 120.46 209.091 118.603 208.005C116.747 206.92 113.748 206.92 111.892 208.005C110.035 209.062 110.035 210.805 111.892 211.891Z" fill="white"/>
<path d="M128.313 221.375C130.17 222.461 133.168 222.461 135.025 221.375C136.881 220.29 136.881 218.576 135.025 217.49C133.168 216.404 130.17 216.404 128.313 217.49C126.486 218.576 126.486 220.318 128.313 221.375Z" fill="white"/>
<path d="M144.764 230.86C146.62 231.945 149.619 231.945 151.475 230.86C153.332 229.774 153.332 228.06 151.475 226.974C149.619 225.889 146.62 225.889 144.764 226.974C142.907 228.06 142.907 229.803 144.764 230.86Z" fill="white"/>
<path d="M167.926 236.488C166.069 235.402 163.071 235.402 161.214 236.488C159.358 237.573 159.358 239.287 161.214 240.373C163.071 241.459 166.069 241.459 167.926 240.373C169.782 239.287 169.782 237.545 167.926 236.488Z" fill="white"/>
<path d="M95.4417 221.375C97.298 222.461 100.297 222.461 102.153 221.375C104.009 220.29 104.009 218.576 102.153 217.49C100.297 216.404 97.298 216.404 95.4417 217.49C93.5854 218.576 93.5854 220.318 95.4417 221.375Z" fill="white"/>
<path d="M111.892 230.86C113.748 231.945 116.747 231.945 118.603 230.86C120.46 229.774 120.46 228.06 118.603 226.974C116.747 225.889 113.748 225.889 111.892 226.974C110.035 228.06 110.035 229.803 111.892 230.86Z" fill="white"/>
<path d="M128.313 240.373C130.17 241.459 133.168 241.459 135.025 240.373C136.881 239.287 136.881 237.573 135.025 236.488C133.168 235.402 130.17 235.402 128.313 236.488C126.486 237.545 126.486 239.287 128.313 240.373Z" fill="white"/>
<path d="M151.475 245.973C149.619 244.887 146.62 244.887 144.764 245.973C142.907 247.058 142.907 248.773 144.764 249.858C146.62 250.944 149.619 250.944 151.475 249.858C153.332 248.773 153.332 247.058 151.475 245.973Z" fill="white"/>
<path d="M79.0204 230.86C80.8768 231.945 83.8756 231.945 85.7319 230.86C87.5883 229.774 87.5883 228.06 85.7319 226.974C83.8756 225.889 80.8768 225.889 79.0204 226.974C77.1641 228.06 77.1641 229.803 79.0204 230.86Z" fill="white"/>
<path d="M95.4417 240.373C97.298 241.459 100.297 241.459 102.153 240.373C104.009 239.287 104.009 237.573 102.153 236.488C100.297 235.402 97.298 235.402 95.4417 236.488C93.5854 237.573 93.5854 239.287 95.4417 240.373Z" fill="white"/>
<path d="M111.892 249.858C113.748 250.944 116.747 250.944 118.603 249.858C120.46 248.773 120.46 247.058 118.603 245.973C116.747 244.887 113.748 244.887 111.892 245.973C110.035 247.058 110.035 248.773 111.892 249.858Z" fill="white"/>
<path d="M135.054 255.457C133.197 254.371 130.199 254.371 128.342 255.457C126.486 256.542 126.486 258.256 128.342 259.342C130.199 260.428 133.197 260.428 135.054 259.342C136.91 258.285 136.91 256.542 135.054 255.457Z" fill="white"/>
<path d="M62.5696 240.373C64.426 241.459 67.4248 241.459 69.2811 240.373C71.1375 239.287 71.1375 237.573 69.2811 236.488C67.4248 235.402 64.426 235.402 62.5696 236.488C60.7133 237.545 60.7133 239.287 62.5696 240.373Z" fill="white"/>
<path d="M79.0204 249.858C80.8768 250.944 83.8756 250.944 85.7319 249.858C87.5883 248.773 87.5883 247.058 85.7319 245.973C83.8756 244.887 80.8768 244.887 79.0204 245.973C77.1641 247.058 77.1641 248.773 79.0204 249.858Z" fill="white"/>
<path d="M95.4417 259.342C97.298 260.428 100.297 260.428 102.153 259.342C104.009 258.256 104.009 256.542 102.153 255.457C100.297 254.371 97.298 254.371 95.4417 255.457C93.5854 256.542 93.5854 258.285 95.4417 259.342Z" fill="white"/>
<path d="M118.603 264.97C116.747 263.885 113.748 263.885 111.892 264.97C110.035 266.056 110.035 267.77 111.892 268.856C113.748 269.941 116.747 269.941 118.603 268.856C120.46 267.77 120.46 266.027 118.603 264.97Z" fill="white"/>
<path d="M52.8595 245.973C51.0031 244.887 48.0044 244.887 46.148 245.973C44.2916 247.058 44.2916 248.773 46.148 249.858C48.0044 250.944 51.0031 250.944 52.8595 249.858C54.7159 248.773 54.7159 247.058 52.8595 245.973Z" fill="white"/>
<path d="M69.3098 255.457C67.4535 254.371 64.4548 254.371 62.5984 255.457C60.7421 256.542 60.7421 258.256 62.5984 259.342C64.4548 260.428 67.4535 260.428 69.3098 259.342C71.1376 258.285 71.1376 256.542 69.3098 255.457Z" fill="white"/>
<path d="M85.7319 264.97C83.8756 263.885 80.8768 263.885 79.0204 264.97C77.1641 266.056 77.1641 267.77 79.0204 268.856C80.8768 269.941 83.8756 269.941 85.7319 268.856C87.5883 267.77 87.5883 266.027 85.7319 264.97Z" fill="white"/>
<path d="M102.182 274.455C100.325 273.369 97.3266 273.369 95.4702 274.455C93.6138 275.54 93.6138 277.254 95.4702 278.34C97.3266 279.426 100.325 279.426 102.182 278.34C104.038 277.254 104.038 275.512 102.182 274.455Z" fill="white"/>
</g>
<g opacity="0.3">
<path d="M426.278 103.107C424.422 102.021 421.423 102.021 419.567 103.107C417.71 104.192 417.71 105.906 419.567 106.992C421.423 108.078 424.422 108.078 426.278 106.992C428.134 105.906 428.134 104.192 426.278 103.107Z" fill="white"/>
<path d="M409.828 112.62C407.971 111.534 404.973 111.534 403.116 112.62C401.26 113.705 401.26 115.42 403.116 116.505C404.973 117.591 407.971 117.591 409.828 116.505C411.684 115.42 411.684 113.677 409.828 112.62Z" fill="white"/>
<path d="M393.407 122.104C391.55 121.019 388.552 121.019 386.695 122.104C384.839 123.19 384.839 124.904 386.695 125.99C388.552 127.075 391.55 127.075 393.407 125.99C395.263 124.904 395.263 123.19 393.407 122.104Z" fill="white"/>
<path d="M376.956 131.589C375.099 130.504 372.101 130.504 370.244 131.589C368.388 132.675 368.388 134.389 370.244 135.475C372.101 136.56 375.099 136.56 376.956 135.475C378.812 134.418 378.812 132.675 376.956 131.589Z" fill="white"/>
<path d="M360.534 141.102C358.678 140.016 355.679 140.016 353.823 141.102C351.966 142.188 351.966 143.902 353.823 144.987C355.679 146.073 358.678 146.073 360.534 144.987C362.362 143.902 362.362 142.159 360.534 141.102Z" fill="white"/>
</g>
<path d="M160.245 282.474C157.743 282.474 155.213 281.817 152.967 280.531L58.0408 225.448L58.8937 223.962L153.82 279.045C157.771 281.331 162.69 281.331 166.641 279.045L270.636 218.705L271.489 220.191L167.494 280.531C165.277 281.845 162.775 282.474 160.245 282.474Z" fill="#FDDFA2"/>
<path d="M182.933 5.46265V17.3908C169.196 25.3308 158.032 44.6551 158.032 60.5351L147.703 66.4811C147.739 44.0025 163.505 16.6657 182.933 5.46265Z" fill="url(#paint0_linear)"/>
<path d="M182.932 17.3544V5.42623C189.927 1.36559 196.451 0.024129 201.961 0.930522L196.379 14.1639C192.501 13.5475 187.898 14.4902 182.932 17.3544Z" fill="url(#paint1_linear)"/>
<path d="M203.375 50.7458C198.88 60.7886 191.414 69.9613 182.969 74.8559C169.232 82.7959 158.069 76.3424 158.069 60.4624C158.069 44.5824 169.232 25.258 182.969 17.318V5.38989C163.505 16.6292 147.775 43.9297 147.775 66.4083C147.775 88.8868 163.542 97.987 182.969 86.7478C194.93 79.8592 205.477 66.8434 211.856 52.6311L203.375 50.7458Z" fill="url(#paint2_linear)"/>
<path d="M207.832 31.748C207.832 21.5964 203.265 15.3242 196.379 14.164L201.96 0.930664C211.71 2.56217 218.162 11.4086 218.162 25.7659C218.162 34.431 215.806 43.785 211.819 52.6676L203.374 50.746C206.165 44.4738 207.832 37.839 207.832 31.748Z" fill="url(#paint3_linear)"/>
<path d="M170.839 61.1827L168.338 62.633V51.4299L165.33 54.2216V51.865L170.549 46.6804L170.803 46.5354V61.1827H170.839Z" fill="#C11E25"/>
<path d="M180.884 49.5081C180.884 51.5384 180.521 53.2787 179.796 54.7652C179.071 56.2517 178.02 57.4119 176.607 58.2095C175.23 59.0071 174.178 59.0796 173.454 58.4633C172.729 57.8469 172.366 56.5417 172.33 54.5839V51.901C172.33 49.8707 172.692 48.0941 173.417 46.6076C174.142 45.1212 175.193 43.9972 176.571 43.1996C177.948 42.402 178.999 42.3295 179.724 42.9458C180.449 43.5622 180.811 44.8674 180.847 46.7889V49.5081H180.884ZM178.383 48.0216C178.383 46.8252 178.238 46.0275 177.948 45.6287C177.658 45.2299 177.223 45.2299 176.607 45.5925C176.027 45.9188 175.592 46.4626 175.302 47.1515C175.012 47.8403 174.867 48.7467 174.867 49.8707V53.4237C174.867 54.6202 175.012 55.4178 175.302 55.8529C175.592 56.2517 176.027 56.2879 176.643 55.9254C177.259 55.5628 177.694 55.0552 177.984 54.3301C178.274 53.605 178.383 52.6986 178.419 51.5384V48.0216H178.383Z" fill="#C11E25"/>
<path d="M190.884 43.5081C190.884 45.5384 190.521 47.2787 189.796 48.7652C189.071 50.2517 188.02 51.4119 186.607 52.2095C185.23 53.0071 184.178 53.0796 183.454 52.4633C182.729 51.8469 182.366 50.5417 182.33 48.5839V45.901C182.33 43.8707 182.692 42.0941 183.417 40.6076C184.142 39.1212 185.193 37.9972 186.571 37.1996C187.948 36.402 188.999 36.3295 189.724 36.9458C190.449 37.5622 190.811 38.8674 190.847 40.7889V43.5081H190.884ZM188.383 42.0216C188.383 40.8252 188.238 40.0275 187.948 39.6287C187.658 39.2299 187.223 39.2299 186.607 39.5925C186.027 39.9188 185.592 40.4626 185.302 41.1515C185.012 41.8403 184.867 42.7467 184.867 43.8707V47.4237C184.867 48.6202 185.012 49.4178 185.302 49.8529C185.592 50.2517 186.027 50.2879 186.643 49.9254C187.259 49.5628 187.694 49.0552 187.984 48.3301C188.274 47.605 188.383 46.6986 188.419 45.5384V42.0216H188.383Z" fill="#C11E25"/>
<path d="M192.33 35.7351C192.33 34.8287 192.584 33.9586 193.091 33.1247C193.599 32.2908 194.251 31.602 195.085 31.1306C195.918 30.6593 196.571 30.5506 197.078 30.8044C197.585 31.0582 197.839 31.6745 197.839 32.6171V33.3423C197.839 34.2487 197.585 35.1188 197.078 35.9527C196.571 36.7865 195.918 37.4391 195.085 37.9105C194.251 38.3818 193.599 38.4906 193.091 38.2368C192.584 37.983 192.33 37.3666 192.33 36.4602V35.7351ZM193.997 35.5538C193.997 35.9527 194.106 36.2427 194.287 36.3515C194.468 36.4965 194.758 36.4602 195.085 36.279C195.411 36.0977 195.664 35.8076 195.846 35.4451C196.027 35.0825 196.136 34.6837 196.136 34.2849V33.5235C196.136 33.1247 196.027 32.8347 195.846 32.6896C195.664 32.5446 195.375 32.5809 195.048 32.7622C194.722 32.9434 194.468 33.2335 194.287 33.596C194.106 33.9586 193.997 34.3574 193.997 34.7925V35.5538ZM195.556 44.5453L194.323 44.509L200.485 29.5354L201.717 29.5717L195.556 44.5453ZM198.347 40.4484C198.347 39.542 198.6 38.6718 199.108 37.8379C199.615 37.0041 200.268 36.3515 201.101 35.8802C201.935 35.4088 202.587 35.3001 203.095 35.5538C203.602 35.8076 203.856 36.424 203.856 37.3666V38.0917C203.856 38.9981 203.602 39.8683 203.095 40.7022C202.587 41.536 201.935 42.1886 201.101 42.6962C200.268 43.1675 199.615 43.2763 199.108 43.0225C198.6 42.7687 198.347 42.1524 198.347 41.246V40.4484ZM200.014 40.2671C200.014 40.6296 200.123 40.8834 200.34 41.0284C200.558 41.1735 200.811 41.1372 201.137 40.956C201.826 40.5571 202.189 39.9045 202.189 38.9981V38.2368C202.189 37.838 202.08 37.5479 201.899 37.4391C201.717 37.2941 201.427 37.3304 201.101 37.5117C200.775 37.6929 200.521 37.983 200.304 38.3455C200.123 38.7081 200.014 39.1069 200.014 39.5057V40.2671Z" fill="#C11E25"/>
<path d="M256.671 57.0334L300.995 82.6305V160.564L256.671 134.996V57.0334Z" fill="#E1F4CE"/>
<path d="M345.291 57.0334L300.995 82.6305V160.564L345.291 134.996V57.0334Z" fill="#D6E2BB"/>
<path d="M300.995 31.4651L256.671 57.0336L300.995 82.6306L345.291 57.0336L300.995 31.4651Z" fill="#F5F5F9"/>
<path d="M205.378 105.542L249.673 131.11V190.189L205.378 164.621V105.542Z" fill="#FC780B"/>
<path d="M293.97 105.542L249.674 131.11V190.189L293.97 164.621V105.542Z" fill="#EF4E16"/>
<path d="M249.675 79.9453L205.379 105.542L249.675 131.111L293.97 105.542L249.675 79.9453Z" fill="#F5F5F9"/>
<path d="M154.057 157.45L198.352 183.019V219.843L154.057 194.246V157.45Z" fill="#E1F4CE"/>
<path d="M242.677 157.45L198.353 183.019V219.843L242.677 194.246V157.45Z" fill="#D6E2BB"/>
<path d="M198.353 131.854L154.057 157.451L198.353 183.019L242.677 157.451L198.353 131.854Z" fill="#F5F5F9"/>
<path d="M198.352 219.843L185.129 175.391L154.057 157.45V194.246L198.352 219.843Z" fill="#F1F1F6"/>
<path d="M185.13 175.391H211.605L242.677 157.451L198.353 131.854L154.057 157.451L185.13 175.391Z" fill="url(#paint4_linear)"/>
<path d="M51.4424 112.056L95.7382 137.624V219.844L51.4424 194.246V112.056Z" fill="#FC780B"/>
<path d="M140.063 112.056L95.7384 137.624V219.844L140.063 194.246V112.056Z" fill="#EF4E16"/>
<path d="M95.7388 86.4587L51.443 112.056L95.7388 137.624L140.063 112.056L95.7388 86.4587Z" fill="#FFAD02"/>
<path d="M102.763 209.788L147.059 235.356V249.469L102.763 223.872V209.788Z" fill="#E1F4CE"/>
<path d="M191.355 209.788L147.059 235.356V249.469L191.355 223.872V209.788Z" fill="#D6E2BB"/>
<path d="M147.06 184.19L102.765 209.787L147.06 235.356L191.356 209.787L147.06 184.19Z" fill="#F5F5F9"/>
<path d="M127.61 238.241L122.526 221.215L102.763 209.788V223.872L127.61 238.241Z" fill="#F1F1F6"/>
<path d="M152.487 203.902L146.204 200.274H174.906L147.06 184.19L102.765 209.787L122.528 221.215L152.487 203.902Z" fill="url(#paint5_linear)"/>
<path d="M205.378 91.4294L249.673 117.027V131.111L205.378 105.514V91.4294Z" fill="#94B327"/>
<path d="M293.97 91.4294L249.674 117.027V131.111L293.97 105.514V91.4294Z" fill="#7A9711"/>
<path d="M249.675 65.8325L205.379 91.4296L249.675 117.027L293.97 91.4296L249.675 65.8325Z" fill="#AECD40"/>
<path d="M256.671 26.1228L300.995 51.7198V82.6306L256.671 57.0335V26.1228Z" fill="#94B227"/>
<path d="M345.291 26.1228L300.995 51.7198V82.6306L345.291 57.0335V26.1228Z" fill="#7A9711"/>
<path d="M300.995 0.525879L256.671 26.1229L300.995 51.72L345.291 26.1229L300.995 0.525879Z" fill="#AECD40"/>
<path d="M0.120605 187.075L44.445 212.672V249.468L0.120605 223.871V187.075Z" fill="#94B227"/>
<path d="M88.7405 187.075L44.4447 212.672V249.468L88.7405 223.871V187.075Z" fill="#7D9F04"/>
<path d="M44.4452 161.479L0.12085 187.076L44.4452 212.673L88.7411 187.076L44.4452 161.479Z" fill="#AECD40"/>
<path d="M375.016 260.716L399.611 246.494L356.345 221.524L331.955 235.624C331.628 235.624 331.301 235.624 330.933 235.624C313.774 235.624 292.937 239.629 284.358 244.574C275.86 249.478 282.601 253.442 299.393 253.524C298.78 254.75 299.311 256.098 300.986 257.079L314.55 264.926L325.908 271.465C321.659 275.552 328.849 278.657 343.884 278.657C361.044 278.657 381.88 274.652 390.46 269.707C398.999 264.722 392.094 260.716 375.016 260.716Z" fill="url(#paint6_linear)"/>
<path d="M293.427 215.639C285.664 220.135 279.373 231.005 279.373 239.996C279.373 248.946 285.664 252.584 293.427 248.088C301.189 243.593 307.481 232.722 307.481 223.731C307.44 214.781 301.149 211.144 293.427 215.639ZM293.427 245.636C286.849 249.437 281.497 246.372 281.497 238.729C281.497 231.128 286.849 221.851 293.427 218.05C300.005 214.25 305.357 217.315 305.357 224.957C305.357 232.558 300.005 241.835 293.427 245.636Z" fill="#BBC0E6"/>
<path d="M293.427 245.636C300.005 241.836 305.357 232.559 305.357 224.957C305.357 217.356 300.005 214.25 293.427 218.051C293.182 218.214 292.896 218.378 292.651 218.541C292.242 225.652 287.503 233.866 281.538 237.749C281.538 238.076 281.497 238.403 281.497 238.73C281.456 246.372 286.808 249.437 293.427 245.636Z" fill="url(#paint7_linear)"/>
<path d="M293.427 213.923C284.847 218.868 277.901 230.924 277.901 240.814C277.901 250.704 284.847 254.709 293.427 249.764C302.006 244.819 308.952 232.763 308.952 222.873C308.911 212.983 301.965 208.978 293.427 213.923ZM293.427 248.088C285.664 252.584 279.372 248.947 279.372 239.997C279.372 231.046 285.664 220.135 293.427 215.639C301.189 211.144 307.481 214.781 307.481 223.772C307.44 232.722 301.148 243.593 293.427 248.088Z" fill="#5C171A"/>
<path d="M292.079 205.749C289.26 203.869 285.215 203.992 280.721 206.566C272.141 211.511 265.196 223.567 265.196 233.457C265.196 238.484 266.994 241.999 269.894 243.593L282.355 250.785C279.618 249.151 277.902 245.677 277.902 240.814C277.902 230.924 284.848 218.868 293.427 213.923C297.921 211.307 301.966 211.184 304.785 213.105L292.079 205.749Z" fill="url(#paint8_linear)"/>
<path d="M283.582 175.833C279.251 175.588 274.634 177.959 270.508 182.454C265.932 187.481 261.724 195.736 262.745 202.806L270.344 201.744C269.813 197.943 272.305 191.854 276.187 187.644C278.638 184.947 281.253 183.435 283.173 183.517L283.582 175.833Z" fill="url(#paint9_linear)"/>
<path d="M333.833 217.028C336.285 215.639 336.285 213.309 333.833 211.92L313.119 199.946C310.668 198.556 306.705 198.556 304.254 199.946L284.071 211.593C281.62 212.983 281.62 215.312 284.071 216.702L304.785 228.676C307.236 230.065 311.199 230.065 313.651 228.676L333.833 217.028Z" fill="#C2C7E3"/>
<path d="M333.833 217.028C336.285 215.639 336.285 213.309 333.833 211.92L313.119 199.946C310.668 198.556 306.705 198.556 304.254 199.946L284.071 211.593C281.62 212.983 281.62 215.312 284.071 216.702L304.785 228.676C307.236 230.065 311.199 230.065 313.651 228.676L333.833 217.028Z" fill="#F6F6FB"/>
<path d="M335.671 214.658C335.589 215.516 335.017 216.415 333.873 217.069L313.69 228.717C311.239 230.106 307.276 230.106 304.825 228.717L284.111 216.742C282.885 216.048 282.272 215.108 282.272 214.208V234.969C282.272 237.871 284.724 244.246 288.85 246.453L311.729 259.654C311.77 259.694 311.811 259.694 311.852 259.735L311.934 259.776C313.527 260.594 315.651 260.471 318.062 259.081L329.42 252.543C335.875 248.783 335.671 241.835 335.671 238.729V214.658Z" fill="url(#paint10_linear)"/>
<path d="M335.671 214.658C335.589 215.516 335.017 216.415 333.873 217.069L313.69 228.717C311.239 230.106 307.276 230.106 304.825 228.717L284.111 216.742C282.885 216.048 282.272 215.108 282.272 214.208V234.969C282.272 237.871 284.724 244.246 288.85 246.453L311.729 259.654C311.77 259.694 311.811 259.694 311.852 259.735L311.934 259.776C313.527 260.594 315.651 260.471 318.062 259.081L329.42 252.543C335.875 248.783 335.671 241.835 335.671 238.729V214.658Z" fill="url(#paint11_linear)"/>
<path d="M335.631 240.037C327.868 244.532 321.576 255.403 321.576 264.394C321.576 273.344 327.868 276.981 335.631 272.527C343.393 268.031 349.685 257.16 349.685 248.169C349.685 239.219 343.393 235.582 335.631 240.037ZM335.631 270.075C329.053 273.875 323.701 270.81 323.701 263.168C323.701 255.567 329.053 246.29 335.631 242.489C342.208 238.688 347.56 241.753 347.56 249.395C347.56 256.997 342.208 266.274 335.631 270.075Z" fill="#BBC0E6"/>
<path d="M335.631 270.075C342.209 266.274 347.561 256.997 347.561 249.396C347.561 241.795 342.209 238.689 335.631 242.489C335.386 242.653 335.1 242.816 334.855 242.98C334.446 250.091 329.707 258.305 323.742 262.188C323.742 262.515 323.701 262.842 323.701 263.168C323.701 270.77 329.053 273.876 335.631 270.075Z" fill="url(#paint12_linear)"/>
<path d="M335.632 238.362C327.052 243.307 320.107 255.363 320.107 265.253C320.107 275.143 327.052 279.148 335.632 274.203C344.212 269.258 351.157 257.202 351.157 247.312C351.157 237.422 344.212 233.416 335.632 238.362ZM335.632 272.486C327.869 276.982 321.578 273.344 321.578 264.354C321.578 255.403 327.869 244.492 335.632 239.996C343.394 235.501 349.686 239.138 349.686 248.129C349.686 257.12 343.394 268.032 335.632 272.486Z" fill="#5C171A"/>
<path d="M334.283 230.188C331.464 228.308 327.419 228.431 322.925 231.006C314.345 235.951 307.4 248.007 307.4 257.897C307.4 262.923 309.197 266.438 312.098 268.032L324.559 275.224C321.822 273.59 320.106 270.116 320.106 265.253C320.106 255.363 327.051 243.307 335.631 238.362C340.125 235.787 344.17 235.624 346.989 237.544L334.283 230.188Z" fill="url(#paint13_linear)"/>
<path d="M341.188 178.449C341.147 179.348 340.575 180.247 339.349 180.942L319.167 192.59C316.715 193.979 312.752 193.979 310.301 192.59L278.556 174.281C277.33 173.586 276.718 172.646 276.718 171.706V208.773C276.718 209.713 277.33 210.612 278.556 211.348L310.301 229.657C312.752 231.046 316.715 231.046 319.167 229.657L339.349 218.009C340.616 217.274 341.229 216.293 341.147 215.312L341.188 178.449Z" fill="url(#paint14_linear)"/>
<path d="M339.35 180.902C341.801 179.512 341.801 177.183 339.35 175.793L307.605 157.484C305.154 156.095 301.191 156.095 298.739 157.484L278.557 169.132C276.105 170.521 276.105 172.851 278.557 174.24L310.301 192.549C312.753 193.938 316.716 193.938 319.167 192.549L339.35 180.902Z" fill="#F6F6FB"/>
<path d="M265.033 202.684C264.543 203.052 263.848 203.174 263.194 202.97C262.01 202.52 259.64 202.806 258.659 202.97C257.638 203.174 256.617 202.52 256.412 201.458C256.208 200.436 256.862 199.414 257.924 199.21C258.333 199.128 262.051 198.433 264.543 199.373C265.523 199.741 266.014 200.845 265.646 201.826C265.523 202.193 265.278 202.479 265.033 202.684Z" fill="#5C171A"/>
<path d="M266.504 226.551C262.541 224.262 260.539 221.238 260.58 218.255V205.218C260.58 208.242 262.541 211.225 266.504 213.514C274.389 218.05 287.136 218.05 294.98 213.514C298.861 211.266 300.822 208.283 300.822 205.34V218.377C300.822 221.361 298.861 224.303 294.98 226.551C287.136 231.128 274.389 231.128 266.504 226.551Z" fill="url(#paint15_linear)"/>
<path d="M266.546 213.555C258.661 209.018 258.62 201.621 266.464 197.085C274.309 192.549 287.055 192.549 294.941 197.085C302.826 201.621 302.866 209.018 295.022 213.595C287.178 218.091 274.431 218.091 266.546 213.555Z" fill="#F1F1F6"/>
<path d="M274.429 210.449L271.61 208.814L282.478 202.561L278.066 201.213L280.313 199.905L288.279 202.071L288.565 202.234L274.429 210.449Z" fill="#AECD40"/>
<path d="M297.759 226.877C297.146 226.877 296.533 226.837 296.002 226.755C294.94 226.55 294.286 225.57 294.449 224.507C294.654 223.485 295.634 222.791 296.697 222.954C298.004 223.199 300.251 222.872 301.313 222.545C302.335 222.219 303.397 222.791 303.724 223.812C304.051 224.834 303.479 225.897 302.457 226.224C301.477 226.51 299.556 226.877 297.759 226.877Z" fill="#5C171A"/>
<path d="M338.818 205.176L327.583 196.512L331.832 191.036L343.108 199.741L338.818 205.176Z" fill="url(#paint16_linear)"/>
<path d="M339.349 175.793L319.248 164.187H311.772C306.297 164.187 304.091 165.453 306.828 167.047L295.961 172.932C290.486 172.932 288.28 174.199 291.017 175.793L308.054 185.642C310.791 187.236 317.451 188.503 322.884 188.503H326.194L339.308 180.942C341.8 179.512 341.8 177.223 339.349 175.793Z" fill="url(#paint17_linear)"/>
<path d="M302.702 223.935C301.885 223.935 301.149 223.404 300.863 222.587C300.455 221.32 299.106 219.481 298.33 218.704C297.595 217.969 297.595 216.743 298.33 216.007C299.066 215.271 300.291 215.271 301.027 216.007C302.007 216.988 303.846 219.358 304.499 221.442C304.826 222.464 304.254 223.527 303.233 223.854C303.069 223.895 302.906 223.935 302.702 223.935Z" fill="#5C171A"/>
<path d="M326.643 197.739C326.643 195.205 328.4 192.14 330.606 190.873C332.812 189.606 334.569 190.628 334.569 193.162C334.569 195.695 332.812 198.761 330.606 200.027C328.441 201.294 326.643 200.273 326.643 197.739Z" fill="#5C171A"/>
<path d="M334.037 193.244C334.037 193.244 332.28 191.118 331.463 190.465C331.177 190.546 330.891 190.669 330.605 190.832C328.767 191.895 327.255 194.184 326.806 196.39C327.132 197.167 327.541 197.739 327.745 197.984C330.932 201.581 328.93 207.302 326.193 211.103C321.821 217.233 313.773 221.933 304.825 218.704C300.29 219.195 298.901 223.608 301.843 225.774C314.14 230.965 326.315 224.099 332.403 215.557C338.204 207.547 338.49 198.352 334.037 193.244Z" fill="url(#paint18_linear)"/>
<path d="M291.057 175.793C288.32 174.199 286.114 170.357 286.114 167.211V157.484C286.114 154.337 288.32 153.07 291.057 154.623L308.094 164.472C310.831 166.066 313.038 169.908 313.038 173.055V182.822C313.038 185.969 310.831 187.236 308.094 185.683L291.057 175.793Z" fill="#CED3F8"/>
<path d="M292.692 172.932C290.894 171.869 289.382 169.295 289.382 167.21V157.484C289.382 156.912 289.505 156.462 289.668 156.094C288.525 156.054 287.707 156.912 287.707 158.424V168.191C287.707 170.276 289.178 172.85 291.017 173.913L308.054 183.762C309.402 184.538 310.546 184.252 311.036 183.231C310.627 183.19 310.178 183.067 309.688 182.781L292.692 172.932Z" fill="url(#paint19_linear)"/>
<path d="M311.404 172.073C311.404 169.989 309.933 167.414 308.094 166.352L291.058 156.503C290.567 156.217 290.118 156.094 289.709 156.053C289.505 156.421 289.423 156.871 289.423 157.443V167.21C289.423 169.294 290.894 171.869 292.733 172.932L309.769 182.781C310.26 183.067 310.709 183.189 311.118 183.23C311.322 182.863 311.404 182.413 311.404 181.841V172.073Z" fill="url(#paint20_linear)"/>
<path d="M290.975 171.011V161.243C290.975 159.69 291.792 158.832 292.936 158.914C293.345 158.955 293.794 159.077 294.284 159.363L310.218 168.559C309.646 167.66 308.911 166.842 308.053 166.393L291.016 156.544C290.526 156.257 290.076 156.135 289.668 156.094C289.463 156.462 289.382 156.911 289.382 157.484V167.251C289.382 168.64 290.035 170.234 291.016 171.46C291.016 171.297 290.975 171.133 290.975 171.011Z" fill="url(#paint21_linear)"/>
<path d="M322.599 156.053L305.562 146.204C304.091 145.346 302.743 145.346 301.844 146L287.79 154.132C288.648 153.765 289.792 153.887 291.058 154.582L308.095 164.431C310.833 166.025 313.039 169.867 313.039 173.013V182.781C313.039 184.17 312.589 185.192 311.895 185.764C311.895 185.764 326.235 177.55 326.399 177.386C327.134 176.814 327.542 175.792 327.542 174.403V164.635C327.542 161.489 325.336 157.647 322.599 156.053Z" fill="url(#paint22_linear)"/>
<path d="M297.39 166.76L294.776 165.248V163.981L297.39 165.494V166.76Z" fill="#FC780B"/>
<path d="M307.645 172.686L305.031 171.174V169.907L307.645 171.42V172.686Z" fill="#FC780B"/>
<path d="M302.987 174.076L298.412 171.46V170.153L302.987 172.809V174.076Z" fill="#FC780B"/>
<path d="M390.357 177.959C387.416 176.273 383.503 175.474 379.676 175.588H369.223V176.559C368.081 176.931 366.996 177.388 366.025 177.93C360.541 181.13 360.57 186.272 366.082 189.472C367.024 190.015 368.081 190.472 369.195 190.815V191.843H380.847C384.331 191.786 387.758 190.986 390.414 189.472C395.898 186.301 395.869 181.13 390.357 177.959Z" fill="url(#paint23_linear)"/>
<path d="M359.998 189.472C357.228 187.872 355.829 185.758 355.857 183.672V174.559C355.857 176.673 357.228 178.759 359.998 180.358C365.51 183.529 374.421 183.529 379.904 180.358C382.617 178.787 383.988 176.702 383.988 174.645V183.758C383.988 185.844 382.617 187.9 379.904 189.472C374.421 192.671 365.51 192.671 359.998 189.472Z" fill="url(#paint24_linear)"/>
<path d="M360.028 180.358C354.516 177.187 354.488 172.017 359.971 168.846C365.455 165.675 374.365 165.675 379.877 168.846C385.389 172.017 385.418 177.187 379.934 180.387C374.451 183.558 365.54 183.558 360.028 180.358Z" fill="#F1F1F6"/>
<path d="M377.447 178.016C379.447 177.987 381.446 177.701 383.302 177.159C384.902 174.33 383.759 171.102 379.846 168.845C374.335 165.674 365.424 165.674 359.941 168.845C359.398 169.16 358.941 169.474 358.513 169.817C358.513 171.902 359.883 174.016 362.654 175.616C363.596 176.159 364.653 176.616 365.767 176.959V177.987H377.447V178.016Z" fill="url(#paint25_linear)"/>
<path d="M356.571 175.616C353.8 174.016 352.401 171.902 352.43 169.817V160.703C352.43 162.817 353.8 164.903 356.571 166.503C362.083 169.674 370.993 169.674 376.477 166.503C379.19 164.931 380.561 162.846 380.561 160.789V169.902C380.561 171.988 379.19 174.045 376.477 175.616C370.993 178.816 362.083 178.816 356.571 175.616Z" fill="url(#paint26_linear)"/>
<path d="M356.6 166.503C351.088 163.332 351.06 158.161 356.543 154.99C362.027 151.819 370.937 151.819 376.449 154.99C381.961 158.161 381.99 163.332 376.506 166.532C371.023 169.703 362.112 169.703 356.6 166.503Z" fill="#FFAD02"/>
<path d="M362.511 164.102L360.541 162.96L368.137 158.589L365.053 157.646L366.624 156.732L372.193 158.246L372.393 158.36L362.511 164.102Z" fill="#FFD03E"/>
<path d="M165.484 207.524C162.543 205.839 158.63 205.039 154.803 205.153H144.35V206.124C143.208 206.496 142.123 206.953 141.152 207.496C135.668 210.695 135.697 215.838 141.209 219.037C142.151 219.58 143.208 220.037 144.322 220.38V221.408H155.974C159.458 221.351 162.885 220.551 165.542 219.037C171.025 215.866 170.996 210.724 165.484 207.524Z" fill="url(#paint27_linear)"/>
<path d="M135.126 219.066C132.355 217.466 130.956 215.352 130.985 213.266V204.153C130.985 206.267 132.355 208.353 135.126 209.952C140.638 213.123 149.548 213.123 155.032 209.952C157.745 208.381 159.116 206.296 159.116 204.239V213.352C159.116 215.438 157.745 217.494 155.032 219.066C149.548 222.237 140.638 222.237 135.126 219.066Z" fill="url(#paint28_linear)"/>
<path d="M135.157 209.953C129.645 206.782 129.617 201.611 135.1 198.44C140.583 195.269 149.494 195.269 155.006 198.44C160.518 201.611 160.547 206.782 155.063 209.981C149.551 213.124 140.669 213.124 135.157 209.953Z" fill="white"/>
<path d="M142.409 208.553C139.639 206.953 138.24 204.839 138.268 202.754V193.641C138.268 195.755 139.639 197.84 142.409 199.44C147.921 202.611 156.832 202.611 162.315 199.44C165.029 197.869 166.399 195.783 166.399 193.726V202.84C166.399 204.925 165.029 206.982 162.315 208.553C156.832 211.753 147.921 211.753 142.409 208.553Z" fill="url(#paint29_linear)"/>
<path d="M142.438 199.44C136.926 196.269 136.898 191.098 142.381 187.927C147.865 184.756 156.775 184.756 162.287 187.927C167.799 191.098 167.828 196.269 162.344 199.468C156.832 202.639 147.95 202.639 142.438 199.44Z" fill="#FFAD02"/>
<path d="M149.178 196.442L147.207 195.299L154.804 190.928L151.719 189.985L153.29 189.071L158.859 190.585L159.059 190.7L149.178 196.442Z" fill="#FFD03E"/>
<path d="M318.387 20.5521C315.531 18.8952 311.704 18.1238 307.963 18.2381H300.995V19.2094C299.881 19.5522 298.824 20.0093 297.882 20.5521C292.541 23.6661 292.57 28.694 297.939 31.7794C298.853 32.3222 299.881 32.7507 300.966 33.0935V34.0934H309.106C312.476 34.0363 315.846 33.2649 318.416 31.7794C323.785 28.6655 323.757 23.6375 318.387 20.5521Z" fill="url(#paint30_linear)"/>
<path d="M291.913 26.037C289.2 24.4658 287.858 22.4374 287.858 20.3805V17.4951C287.858 19.552 289.2 21.5804 291.913 23.1516C297.282 26.237 305.964 26.237 311.305 23.1516C313.961 21.6089 315.275 19.5806 315.275 17.5808V20.4662C315.275 22.4946 313.932 24.4943 311.305 26.037C305.964 29.1224 297.282 29.1224 291.913 26.037Z" fill="url(#paint31_linear)"/>
<path d="M291.913 28.8944C289.2 27.3232 287.858 25.2948 287.858 23.2379V20.3525C287.858 22.4094 289.2 24.4378 291.913 26.009C297.282 29.0944 305.964 29.0944 311.305 26.009C313.961 24.4663 315.275 22.438 315.275 20.4382V23.3236C315.275 25.3519 313.932 27.3517 311.305 28.8944C305.964 32.0083 297.282 32.0083 291.913 28.8944Z" fill="url(#paint32_linear)"/>
<path d="M291.913 31.7797C289.2 30.2084 287.858 28.1801 287.858 26.1232V23.2378C287.858 25.2947 289.2 27.3231 291.913 28.8943C297.282 32.0082 305.964 32.0082 311.305 28.8943C313.961 27.3516 315.275 25.3518 315.275 23.3235V26.2089C315.275 28.2372 313.932 30.237 311.305 31.7797C305.964 34.8936 297.282 34.8936 291.913 31.7797Z" fill="url(#paint33_linear)"/>
<path d="M291.914 23.1518C286.545 20.0379 286.517 15.0099 291.857 11.9246C297.198 8.81063 305.88 8.81063 311.249 11.9246C316.618 15.0099 316.647 20.0665 311.306 23.1518C305.966 26.2372 297.283 26.2372 291.914 23.1518Z" fill="#F7FBF6"/>
<path d="M308.764 17.2097L298.882 17.7239L299.196 15.4956H296.455L295.712 19.5523L308.764 18.7809V17.2097Z" fill="#AECD40"/>
<path d="M184.387 149.765L187.929 151.794C193.298 148.68 202.037 148.68 207.406 151.794C212.775 154.908 212.775 159.936 207.406 163.05C202.037 166.164 193.298 166.164 187.929 163.05L184.387 165.078C191.727 169.306 203.608 169.306 210.948 165.078C218.287 160.85 218.287 153.965 210.948 149.737C203.636 145.537 191.727 145.537 184.387 149.765Z" fill="#CFE67D"/>
<path d="M187.928 151.822L184.387 149.765C177.047 153.993 177.047 160.878 184.387 165.106L187.928 163.078C182.559 159.964 182.559 154.908 187.928 151.822Z" fill="#AECD40"/>
<path d="M192.583 159.907C191.755 159.879 190.955 159.65 190.213 159.222C189.47 158.793 189.099 158.336 189.042 157.85C188.985 157.365 189.27 156.936 189.898 156.565C190.527 156.194 191.269 156.022 192.126 156.051C192.954 156.079 193.754 156.308 194.497 156.736C195.239 157.165 195.639 157.622 195.696 158.108C195.753 158.593 195.468 159.022 194.811 159.393C194.154 159.765 193.411 159.936 192.583 159.907ZM194.325 158.193C194.239 157.936 193.954 157.651 193.468 157.365C192.983 157.079 192.497 156.908 192.04 156.879C191.583 156.822 191.184 156.908 190.812 157.108C190.47 157.308 190.355 157.536 190.441 157.822C190.527 158.108 190.784 158.365 191.269 158.65C191.755 158.936 192.24 159.107 192.697 159.136C193.183 159.193 193.583 159.107 193.897 158.908C194.268 158.679 194.382 158.45 194.325 158.193ZM195.353 153.537L196.61 152.823L199.437 161.507L198.181 162.221L195.353 153.537ZM202.636 158.936C201.808 158.908 201.008 158.679 200.266 158.25C199.523 157.822 199.152 157.365 199.095 156.879C199.037 156.394 199.323 155.965 199.951 155.594C200.58 155.222 201.322 155.051 202.179 155.079C203.036 155.108 203.807 155.336 204.549 155.765C205.292 156.194 205.663 156.651 205.72 157.136C205.777 157.622 205.492 158.05 204.835 158.422C204.235 158.822 203.493 158.993 202.636 158.936ZM204.35 157.222C204.264 156.936 203.978 156.679 203.493 156.394C203.007 156.108 202.522 155.965 202.065 155.908C201.579 155.851 201.179 155.936 200.837 156.136C200.494 156.336 200.38 156.565 200.437 156.851C200.523 157.108 200.808 157.393 201.294 157.679C201.779 157.965 202.265 158.136 202.722 158.165C203.179 158.222 203.607 158.136 203.921 157.936C204.321 157.736 204.435 157.508 204.35 157.222Z" fill="#7A9711"/>
<defs>
<linearGradient id="paint0_linear" x1="218.15" y1="5.44836" x2="147.73" y2="5.44836" gradientUnits="userSpaceOnUse">
<stop stop-color="#FCAD6D"/>
<stop offset="1" stop-color="#FD806A"/>
</linearGradient>
<linearGradient id="paint1_linear" x1="183.33" y1="10.5354" x2="198.33" y2="7.5354" gradientUnits="userSpaceOnUse">
<stop stop-color="#FD9107"/>
<stop offset="1" stop-color="#FE9F05"/>
</linearGradient>
<linearGradient id="paint2_linear" x1="147.73" y1="48.5237" x2="211.812" y2="48.5237" gradientUnits="userSpaceOnUse">
<stop stop-color="#FFAD02"/>
<stop offset="1" stop-color="#FC780B"/>
</linearGradient>
<linearGradient id="paint3_linear" x1="207.27" y1="0.930664" x2="207.27" y2="52.6676" gradientUnits="userSpaceOnUse">
<stop stop-color="#FEA404"/>
<stop offset="1" stop-color="#FC7F0A"/>
</linearGradient>
<linearGradient id="paint4_linear" x1="154.061" y1="153.617" x2="242.669" y2="153.617" gradientUnits="userSpaceOnUse">
<stop stop-color="#F1F1F6"/>
<stop offset="0.9823" stop-color="white"/>
</linearGradient>
<linearGradient id="paint5_linear" x1="102.751" y1="202.698" x2="174.916" y2="202.698" gradientUnits="userSpaceOnUse">
<stop stop-color="#DFE4F4"/>
<stop offset="1" stop-color="white"/>
</linearGradient>
<linearGradient id="paint6_linear" x1="326.384" y1="276.245" x2="357.577" y2="222.232" gradientUnits="userSpaceOnUse">
<stop stop-color="#E38966"/>
<stop offset="0.496694" stop-color="#FEB297"/>
<stop offset="0.78125" stop-color="#FFB69C"/>
<stop offset="0.989" stop-color="#FEBDA9"/>
</linearGradient>
<linearGradient id="paint7_linear" x1="286.009" y1="247.078" x2="302.897" y2="217.837" gradientUnits="userSpaceOnUse">
<stop stop-color="#F6F6FB"/>
<stop offset="1" stop-color="#CED3F8"/>
</linearGradient>
<linearGradient id="paint8_linear" x1="270.795" y1="244.14" x2="292.748" y2="206.127" gradientUnits="userSpaceOnUse">
<stop stop-color="#932E2E"/>
<stop offset="1" stop-color="#C11E25"/>
</linearGradient>
<linearGradient id="paint9_linear" x1="276.657" y1="191.901" x2="266.714" y2="184.55" gradientUnits="userSpaceOnUse">
<stop stop-color="#8D1318"/>
<stop offset="0.1335" stop-color="#AD181E"/>
<stop offset="0.7183" stop-color="#DC2A32"/>
<stop offset="1" stop-color="#C11E25"/>
</linearGradient>
<linearGradient id="paint10_linear" x1="282.261" y1="237.257" x2="335.655" y2="237.257" gradientUnits="userSpaceOnUse">
<stop offset="0.4106" stop-color="#CED3F8"/>
<stop offset="0.5317" stop-color="#BAC0E6"/>
<stop offset="0.6761" stop-color="#A7AED5"/>
</linearGradient>
<linearGradient id="paint11_linear" x1="296.631" y1="250.953" x2="322.115" y2="206.825" gradientUnits="userSpaceOnUse">
<stop stop-color="#A7AED5"/>
<stop offset="0.0108876" stop-color="#AEB5D8"/>
<stop offset="0.0698896" stop-color="#D1D5E9"/>
<stop offset="0.1255" stop-color="#EAECF5"/>
<stop offset="0.176" stop-color="#FAFAFC"/>
<stop offset="0.2168" stop-color="white"/>
</linearGradient>
<linearGradient id="paint12_linear" x1="328.239" y1="271.504" x2="345.126" y2="242.263" gradientUnits="userSpaceOnUse">
<stop stop-color="#F6F6FB"/>
<stop offset="1" stop-color="#CED3F8"/>
</linearGradient>
<linearGradient id="paint13_linear" x1="313.023" y1="268.565" x2="334.976" y2="230.552" gradientUnits="userSpaceOnUse">
<stop stop-color="#93402E"/>
<stop offset="1" stop-color="#C11E25"/>
</linearGradient>
<linearGradient id="paint14_linear" x1="276.752" y1="201.21" x2="341.178" y2="201.21" gradientUnits="userSpaceOnUse">
<stop offset="0.5143" stop-color="#CED3F8"/>
<stop offset="0.6822" stop-color="#BBC0E6"/>
</linearGradient>
<linearGradient id="paint15_linear" x1="260.581" y1="217.607" x2="300.846" y2="217.607" gradientUnits="userSpaceOnUse">
<stop stop-color="#CED3F8"/>
<stop offset="0.417" stop-color="#C4C9EF"/>
<stop offset="1" stop-color="#BBC0E6"/>
</linearGradient>
<linearGradient id="paint16_linear" x1="329.748" y1="193.74" x2="340.941" y2="202.505" gradientUnits="userSpaceOnUse">
<stop stop-color="#D1D7F3"/>
<stop offset="0.5099" stop-color="#EEF0FB"/>
<stop offset="0.8927" stop-color="white"/>
</linearGradient>
<linearGradient id="paint17_linear" x1="289.871" y1="176.348" x2="341.182" y2="176.348" gradientUnits="userSpaceOnUse">
<stop stop-color="#D1D7F3"/>
<stop offset="0.5712" stop-color="#EEF0FB"/>
<stop offset="1" stop-color="white"/>
</linearGradient>
<linearGradient id="paint18_linear" x1="337.044" y1="194.942" x2="306.203" y2="230.327" gradientUnits="userSpaceOnUse">
<stop stop-color="#BC403A"/>
<stop offset="0.2817" stop-color="#E25750"/>
<stop offset="0.8665" stop-color="#C11E25"/>
<stop offset="1" stop-color="#8D0B11"/>
</linearGradient>
<linearGradient id="paint19_linear" x1="287.998" y1="156.705" x2="305.406" y2="186.848" gradientUnits="userSpaceOnUse">
<stop offset="0.2022" stop-color="#BBC0E6"/>
<stop offset="0.2751" stop-color="#C4C8E9"/>
<stop offset="0.3921" stop-color="#DBDEF1"/>
<stop offset="0.4973" stop-color="#F6F6FB"/>
</linearGradient>
<linearGradient id="paint20_linear" x1="311.459" y1="183.38" x2="288.497" y2="154.924" gradientUnits="userSpaceOnUse">
<stop stop-color="#65080C"/>
<stop offset="0.2552" stop-color="#C11E25"/>
<stop offset="0.7717" stop-color="#AE141B"/>
<stop offset="1" stop-color="#C11E25"/>
</linearGradient>
<linearGradient id="paint21_linear" x1="289.388" y1="163.759" x2="310.231" y2="163.759" gradientUnits="userSpaceOnUse">
<stop stop-color="#C4CAE8"/>
<stop offset="0.4364" stop-color="#E5E7F5"/>
<stop offset="0.7172" stop-color="#F6F6FB"/>
</linearGradient>
<linearGradient id="paint22_linear" x1="300.931" y1="146.544" x2="320.668" y2="180.719" gradientUnits="userSpaceOnUse">
<stop offset="0.4719" stop-color="#F6F6FB"/>
<stop offset="0.594" stop-color="#DBDEF1"/>
<stop offset="0.7299" stop-color="#C4C8E9"/>
<stop offset="0.8146" stop-color="#BBC0E6"/>
</linearGradient>
<linearGradient id="paint23_linear" x1="361.953" y1="183.719" x2="394.522" y2="183.719" gradientUnits="userSpaceOnUse">
<stop offset="0.4265" stop-color="#F3DDD1"/>
<stop offset="0.4861" stop-color="#F5E9D7"/>
<stop offset="0.813" stop-color="#FCF5F4"/>
<stop offset="1" stop-color="white"/>
</linearGradient>
<linearGradient id="paint24_linear" x1="355.853" y1="183.212" x2="384" y2="183.212" gradientUnits="userSpaceOnUse">
<stop stop-color="#F8DBCE"/>
<stop offset="0.417" stop-color="#EFD1C4"/>
<stop offset="1" stop-color="#E6CABB"/>
</linearGradient>
<linearGradient id="paint25_linear" x1="358.527" y1="172.23" x2="383.988" y2="172.23" gradientUnits="userSpaceOnUse">
<stop offset="0.4265" stop-color="#D1D7F3"/>
<stop offset="0.593" stop-color="#D9DEF5"/>
<stop offset="0.8533" stop-color="#EFF1FB"/>
<stop offset="1" stop-color="white"/>
</linearGradient>
<linearGradient id="paint26_linear" x1="352.426" y1="169.356" x2="380.573" y2="169.356" gradientUnits="userSpaceOnUse">
<stop stop-color="#FD9009"/>
<stop offset="0.387" stop-color="#F6700F"/>
<stop offset="0.7686" stop-color="#F15714"/>
<stop offset="1" stop-color="#EF4E16"/>
</linearGradient>
<linearGradient id="paint27_linear" x1="137.078" y1="213.301" x2="169.647" y2="213.301" gradientUnits="userSpaceOnUse">
<stop offset="0.4265" stop-color="#D1D7F3"/>
<stop offset="0.4861" stop-color="#D7DCF5"/>
<stop offset="0.813" stop-color="#F4F6FC"/>
<stop offset="1" stop-color="white"/>
</linearGradient>
<linearGradient id="paint28_linear" x1="130.979" y1="212.795" x2="159.126" y2="212.795" gradientUnits="userSpaceOnUse">
<stop stop-color="#F8E2CE"/>
<stop offset="0.417" stop-color="#EFCCC4"/>
<stop offset="1" stop-color="#E6CABB"/>
</linearGradient>
<linearGradient id="paint29_linear" x1="138.263" y1="202.296" x2="166.409" y2="202.296" gradientUnits="userSpaceOnUse">
<stop stop-color="#C11E25"/>
<stop offset="0.0001" stop-color="#FC8C0A"/>
<stop offset="0.3266" stop-color="#F7750E"/>
<stop offset="0.7453" stop-color="#F25B13"/>
<stop offset="1" stop-color="#F05115"/>
</linearGradient>
<linearGradient id="paint30_linear" x1="293.899" y1="26.1619" x2="322.422" y2="26.1619" gradientUnits="userSpaceOnUse">
<stop stop-color="#7A7A7A"/>
<stop offset="0.247" stop-color="#706F6F"/>
<stop offset="0.5226" stop-color="#C6D29A"/>
<stop offset="0.8109" stop-color="#BDCC88"/>
<stop offset="1" stop-color="#AECD40"/>
</linearGradient>
<linearGradient id="paint31_linear" x1="287.855" y1="22.9239" x2="315.281" y2="22.9239" gradientUnits="userSpaceOnUse">
<stop stop-color="#DEF0D8"/>
<stop offset="0.5506" stop-color="#CFE7C6"/>
<stop offset="1" stop-color="#CBE3BD"/>
</linearGradient>
<linearGradient id="paint32_linear" x1="287.855" y1="25.8001" x2="315.281" y2="25.8001" gradientUnits="userSpaceOnUse">
<stop stop-color="#AECD40"/>
<stop offset="0.0138339" stop-color="#AECD40"/>
<stop offset="0.448" stop-color="#94B227"/>
<stop offset="0.7917" stop-color="#7A9711"/>
<stop offset="1" stop-color="#5C7500"/>
</linearGradient>
<linearGradient id="paint33_linear" x1="287.855" y1="28.6757" x2="315.281" y2="28.6757" gradientUnits="userSpaceOnUse">
<stop stop-color="#E4F0D8"/>
<stop offset="0.5506" stop-color="#CBE7C6"/>
<stop offset="1" stop-color="#C7E3BD"/>
</linearGradient>
</defs>
</svg>
