<svg width="966" height="380" viewBox="0 0 966 380" fill="none" xmlns="http://www.w3.org/2000/svg">
<g clip-path="url(#clip0)">
<rect y="-0.000244141" width="966" height="380" rx="10" fill="white"/>
<path d="M523.412 527.472C408.378 653.135 299.079 552.35 258.809 486.249C202.272 398.626 111.665 194.754 201.53 80.2494C291.396 -34.2551 511.098 6.72652 609.716 41.5304C712.423 91.6891 907.874 230.665 868.019 385.299C818.2 578.591 667.204 370.393 523.412 527.472Z" fill="#AECD40"/>
<path d="M523.412 527.472C408.378 653.135 299.079 552.35 258.809 486.249C202.272 398.626 111.665 194.754 201.53 80.2494C291.396 -34.2551 511.098 6.72652 609.716 41.5304C712.423 91.6891 907.874 230.665 868.019 385.299C818.2 578.591 667.204 370.393 523.412 527.472Z" fill="url(#paint0_linear)"/>
<path d="M450.515 166.212L433.651 366.794C433.651 366.794 431.9 378.961 440.931 378.961C455.814 379.007 514.929 378.961 514.929 378.961C514.929 378.961 503.732 376.426 503.871 370.757C504.009 364.028 523.591 164.323 523.591 164.323L450.515 166.212Z" fill="#979797"/>
<path d="M519.721 375.367C516.818 375.367 460.329 375.551 445.861 375.367C439.549 375.274 438.443 369.744 438.397 366.195C438.351 364.49 438.581 363.199 438.581 363.199L439.042 357.991L440.148 344.717L441.115 332.964L442.405 317.893L443.465 305.172L455.445 162.618L528.521 160.728C528.521 160.728 520.273 244.334 514.468 305.172C513.823 311.948 513.178 318.446 512.625 324.53C512.441 326.466 512.256 328.355 512.072 330.199C511.519 335.96 511.058 341.26 510.598 345.915C510.367 348.358 510.183 350.663 509.953 352.737C509.215 360.941 508.755 366.195 508.755 367.163C508.755 367.762 508.801 368.269 508.893 368.776C510.091 375.136 518.615 375.367 519.721 375.367Z" fill="#BABABA"/>
<path d="M623.852 57.0728H273.077L314.131 222.119L319.752 244.749L338.919 321.626H694.348L623.852 57.0728Z" fill="#ADADAD"/>
<path d="M273.077 57.073L267.364 58.9627L331.317 327.342L338.919 321.626L273.077 57.073Z" fill="#E9E9E9"/>
<path d="M331.317 327.341H684.626L694.348 321.626H338.919L331.317 327.341Z" fill="#858585"/>
<path d="M455.381 379.054H531.867V375.413H455.381V379.054Z" fill="#ADADAD"/>
<path d="M512.441 327.341L512.026 330.153L440.102 344.671L441.069 332.918L441.576 327.341H512.441Z" fill="#979797"/>
<path opacity="0.4" d="M519.721 375.367C516.818 375.367 460.329 375.551 445.861 375.367C439.549 375.274 438.443 369.744 438.397 366.195L509.999 352.737C509.261 360.941 508.801 366.195 508.801 367.163C508.801 367.762 508.847 368.269 508.939 368.776C510.091 375.136 518.615 375.367 519.721 375.367Z" fill="#C4C4C4"/>
<path opacity="0.4" d="M490.417 269.637L338.919 321.626L325.972 269.637H490.417Z" fill="#CDCDCD"/>
<path d="M623.852 57.0728H273.077L325.926 269.637L680.756 269.683L623.852 57.0728Z" fill="#C4C4C4"/>
<path d="M526.033 296.554C525.019 291.346 519.951 287.105 514.744 287.105C509.538 287.105 506.128 291.346 507.142 296.554C508.155 301.762 513.224 306.002 518.43 306.002C523.683 306.002 527.047 301.762 526.033 296.554Z" fill="#EEEEEE"/>
<path d="M664.214 260.466H335.786L298.557 112.242L295.746 100.904L293.304 91.1791L287.591 68.457H611.273L617.54 91.1791L620.212 100.904L623.345 112.242L664.214 260.466Z" fill="#EEEEEE"/>
<g clip-path="url(#clip1)">
<path d="M273.451 188.668H193V377.668H273.451V188.668Z" fill="#EC8E02"/>
<path d="M341 188.668H215.01V377.668H341V188.668Z" fill="#FFB800"/>
<path d="M215.01 188.668L193 223.724V188.668H215.01Z" fill="#D58207"/>
<g clip-path="url(#clip2)">
<path fill-rule="evenodd" clip-rule="evenodd" d="M228.672 243.03V249.049H235.381V280.629H241.255V243.03H228.672ZM250.423 280.629H244.313V239.9H235.381V233.638H250.423V280.629ZM281.012 264.669C280.573 264.669 278.263 264.653 277.835 264.613C277.113 264.551 276.065 264.441 275.392 264.281C274.632 264.072 273.919 263.799 273.596 263.617C271.341 262.367 269.805 259.922 269.805 257.106C269.805 253.011 273.042 249.694 277.041 249.694C280.956 249.694 284.138 252.886 284.265 256.867H290.098C289.975 249.583 284.181 243.715 277.041 243.715C269.821 243.715 263.968 249.713 263.968 257.106C263.968 262.323 266.885 266.83 271.135 269.037C271.787 269.429 273.019 269.842 273.37 269.935C274.568 270.26 276.181 270.48 277.487 270.58C277.974 270.62 280.339 270.638 280.84 270.641V270.647H327.334V264.669H281.012ZM277.487 274.394C275.672 274.271 273.572 273.949 271.92 273.454C271.611 273.363 270.328 272.883 270.001 272.728C264.245 269.993 260.234 264.026 260.234 257.106C260.234 247.614 267.772 239.888 277.041 239.888C286.226 239.888 293.712 247.484 293.839 256.867H299.909C299.784 244.056 289.574 233.672 277.041 233.672C264.429 233.672 254.167 244.186 254.167 257.106C254.167 266.018 259.054 273.767 266.216 277.73C267.509 278.43 269.365 279.154 269.994 279.347C272.037 279.974 274.538 280.386 276.771 280.562C277.528 280.619 280.17 280.65 280.943 280.653H327.334V274.452H281.012C280.457 274.452 278.03 274.434 277.487 274.394Z" fill="#D91920"/>
<path fill-rule="evenodd" clip-rule="evenodd" d="M311.949 241.589C310.13 241.589 308.565 240.127 308.565 238.128C308.565 236.232 310.13 234.731 311.949 234.731C313.768 234.731 315.327 236.232 315.327 238.128C315.327 240.127 313.768 241.589 311.949 241.589ZM311.949 234.074C309.747 234.074 307.926 235.872 307.926 238.128C307.926 240.385 309.747 242.254 311.949 242.254C314.218 242.254 315.973 240.385 315.973 238.128C315.973 235.872 314.218 234.074 311.949 234.074Z" fill="#D91920"/>
<path fill-rule="evenodd" clip-rule="evenodd" d="M312.139 237.901H311.277V236.625H312.014C312.526 236.625 312.875 236.788 312.875 237.279C312.875 237.538 312.749 237.901 312.139 237.901ZM313.481 239.241C313.481 238.783 313.419 238.359 312.907 238.196C313.546 237.966 313.607 237.538 313.607 237.279C313.607 236.232 312.682 236.1 312.299 236.1H310.543V240.157H311.277V238.488H311.852C312.682 238.488 312.749 238.881 312.749 239.241C312.749 239.93 312.749 240.062 312.907 240.157H313.641C313.481 239.995 313.546 239.865 313.481 239.241Z" fill="#D91920"/>
<path d="M239.905 296.314H238.233V291.69L238.249 290.93L238.276 290.1C237.998 290.38 237.805 290.564 237.697 290.652L236.787 291.39L235.981 290.373L238.53 288.323H239.905V296.314ZM246.017 289.619C245.385 289.619 244.896 289.859 244.55 290.34C244.203 290.818 244.03 291.484 244.03 292.341C244.03 294.122 244.692 295.013 246.017 295.013C246.572 295.013 247.245 294.873 248.036 294.592V296.013C247.386 296.287 246.661 296.423 245.86 296.423C244.709 296.423 243.828 296.072 243.218 295.369C242.608 294.662 242.303 293.649 242.303 292.33C242.303 291.499 242.453 290.772 242.753 290.149C243.052 289.522 243.482 289.043 244.041 288.712C244.604 288.376 245.263 288.209 246.017 288.209C246.785 288.209 247.558 288.396 248.334 288.772L247.792 290.149C247.496 290.007 247.199 289.883 246.899 289.777C246.599 289.672 246.305 289.619 246.017 289.619ZM249.362 295.533C249.362 295.226 249.443 294.995 249.606 294.838C249.768 294.682 250.004 294.603 250.315 294.603C250.614 294.603 250.845 294.683 251.008 294.844C251.174 295.004 251.257 295.234 251.257 295.533C251.257 295.82 251.174 296.048 251.008 296.216C250.842 296.38 250.611 296.462 250.315 296.462C250.012 296.462 249.777 296.381 249.611 296.221C249.445 296.057 249.362 295.828 249.362 295.533ZM249.362 291.018C249.362 290.712 249.443 290.481 249.606 290.324C249.768 290.167 250.004 290.089 250.315 290.089C250.614 290.089 250.845 290.169 251.008 290.329C251.174 290.49 251.257 290.719 251.257 291.018C251.257 291.313 251.172 291.543 251.002 291.707C250.836 291.867 250.607 291.947 250.315 291.947C250.012 291.947 249.777 291.867 249.611 291.707C249.445 291.546 249.362 291.317 249.362 291.018ZM254.564 291.39H255.225C256.257 291.39 257.054 291.601 257.617 292.024C258.18 292.446 258.462 293.044 258.462 293.816C258.462 295.481 257.372 296.314 255.192 296.314H252.886V288.323H257.888V289.723H254.564V291.39ZM254.564 294.926H255.127C255.694 294.926 256.109 294.835 256.372 294.652C256.636 294.467 256.767 294.188 256.767 293.816C256.767 293.448 256.634 293.184 256.367 293.024C256.1 292.86 255.641 292.778 254.992 292.778H254.564V294.926ZM258.97 290.204H260.778L261.921 293.641C262.018 293.94 262.085 294.294 262.121 294.702H262.153C262.193 294.326 262.271 293.973 262.386 293.641L263.507 290.204H265.277L262.716 297.096C262.482 297.733 262.146 298.21 261.709 298.527C261.276 298.844 260.769 299.003 260.188 299.003C259.903 299.003 259.624 298.972 259.349 298.91V297.587C259.548 297.635 259.764 297.659 259.999 297.659C260.291 297.659 260.546 297.567 260.762 297.385C260.982 297.207 261.154 296.935 261.276 296.571L261.374 296.27L258.97 290.204ZM267.388 293.193L265.439 290.204H267.312L268.487 292.149L269.672 290.204H271.545L269.575 293.193L271.637 296.314H269.759L268.487 294.221L267.209 296.314H265.336L267.388 293.193ZM276.736 290.204V291.455H274.208V296.314H272.557V290.204H276.736ZM281.706 296.314L281.386 295.483H281.343C281.065 295.837 280.778 296.083 280.482 296.221C280.19 296.356 279.807 296.423 279.335 296.423C278.754 296.423 278.295 296.256 277.96 295.92C277.628 295.585 277.462 295.108 277.462 294.489C277.462 293.84 277.685 293.363 278.133 293.057C278.584 292.747 279.262 292.576 280.168 292.543L281.218 292.51V292.242C281.218 291.623 280.904 291.313 280.277 291.313C279.793 291.313 279.225 291.461 278.571 291.756L278.025 290.63C278.721 290.262 279.493 290.078 280.342 290.078C281.153 290.078 281.776 290.256 282.209 290.614C282.642 290.971 282.859 291.514 282.859 292.242V296.314H281.706ZM281.218 293.483L280.58 293.505C280.1 293.519 279.743 293.607 279.508 293.767C279.273 293.927 279.156 294.172 279.156 294.499C279.156 294.969 279.423 295.205 279.957 295.205C280.34 295.205 280.645 295.093 280.872 294.871C281.103 294.649 281.218 294.354 281.218 293.986V293.483ZM289.982 296.314H288.331V291.455H286.81C286.695 292.822 286.554 293.842 286.388 294.516C286.222 295.186 286 295.673 285.722 295.975C285.448 296.274 285.087 296.423 284.64 296.423C284.257 296.423 283.943 296.365 283.698 296.248V294.915C283.875 294.988 284.051 295.024 284.228 295.024C284.434 295.024 284.605 294.875 284.742 294.576C284.883 294.277 285.008 293.78 285.116 293.084C285.228 292.384 285.323 291.424 285.403 290.204H289.982V296.314ZM296.727 290.204V291.455H294.746V296.314H293.095V291.455H291.108V290.204H296.727ZM300.365 291.275C300.015 291.275 299.74 291.388 299.542 291.614C299.343 291.836 299.23 292.153 299.201 292.565H301.518C301.511 292.153 301.404 291.836 301.198 291.614C300.993 291.388 300.715 291.275 300.365 291.275ZM300.598 296.423C299.623 296.423 298.862 296.152 298.313 295.609C297.765 295.066 297.49 294.297 297.49 293.303C297.49 292.279 297.743 291.488 298.248 290.93C298.757 290.369 299.459 290.089 300.354 290.089C301.209 290.089 301.875 290.335 302.351 290.827C302.828 291.319 303.066 291.998 303.066 292.865V293.674H299.163C299.181 294.148 299.32 294.518 299.58 294.784C299.84 295.05 300.204 295.183 300.673 295.183C301.038 295.183 301.382 295.144 301.707 295.068C302.032 294.991 302.371 294.869 302.725 294.702V295.992C302.436 296.137 302.128 296.245 301.799 296.314C301.471 296.387 301.07 296.423 300.598 296.423ZM307.732 296.423C307.021 296.423 306.464 296.163 306.059 295.642H305.973C306.031 296.152 306.059 296.447 306.059 296.527V299.003H304.408V290.204H305.751L305.984 290.996H306.059C306.446 290.391 307.018 290.089 307.775 290.089C308.49 290.089 309.049 290.368 309.453 290.925C309.858 291.483 310.06 292.257 310.06 293.248C310.06 293.9 309.964 294.467 309.773 294.948C309.585 295.429 309.316 295.795 308.966 296.046C308.616 296.298 308.205 296.423 307.732 296.423ZM307.245 291.422C306.837 291.422 306.539 291.55 306.352 291.805C306.164 292.056 306.067 292.474 306.059 293.057V293.237C306.059 293.893 306.155 294.363 306.346 294.647C306.541 294.931 306.848 295.073 307.267 295.073C308.006 295.073 308.376 294.458 308.376 293.226C308.376 292.625 308.284 292.175 308.1 291.876C307.92 291.574 307.635 291.422 307.245 291.422ZM313.021 290.204V292.619C313.021 292.874 312.979 293.497 312.896 294.489L315.689 290.204H317.676V296.314H316.079V293.876C316.079 293.443 316.115 292.831 316.187 292.04L313.405 296.314H311.424V290.204H313.021ZM320.334 296.314H318.548L320.177 293.898C319.787 293.734 319.491 293.497 319.289 293.188C319.091 292.878 318.991 292.514 318.991 292.095C318.991 291.504 319.21 291.042 319.646 290.706C320.087 290.371 320.686 290.204 321.444 290.204H324.258V296.314H322.607V294.04H321.698L320.334 296.314ZM320.61 292.106C320.61 292.361 320.709 292.561 320.908 292.707C321.106 292.849 321.366 292.92 321.687 292.92H322.607V291.379H321.476C321.205 291.379 320.993 291.446 320.837 291.581C320.686 291.712 320.61 291.887 320.61 292.106Z" fill="#D91920"/>
</g>
</g>
<path d="M811.801 195.575H743.122V264.274H811.801V195.575Z" fill="#D78B0C"/>
<path d="M833 195.575H764.321V264.274H833V195.575Z" fill="#F3B03E"/>
<path d="M799.376 241.405C796.605 241.405 794.388 243.669 794.388 246.441C794.388 249.213 796.651 251.431 799.423 251.431C802.194 251.431 804.411 249.167 804.411 246.395C804.411 243.669 802.148 241.405 799.376 241.405Z" fill="#EBF2F9"/>
<path d="M799.423 217.705C802.194 217.705 804.411 215.441 804.411 212.669C804.411 209.897 802.148 207.679 799.376 207.679C796.605 207.679 794.388 209.943 794.388 212.715C794.388 215.487 796.651 217.751 799.423 217.705Z" fill="#EBF2F9"/>
<path d="M820.837 224.824L777.838 225.003L777.879 235.028L820.879 234.85L820.837 224.824Z" fill="#EBF2F9"/>
<path d="M709.276 378.093H823.032V264.302H709.276V378.093Z" fill="#A6CB25"/>
<path d="M787.968 264.321H674.211V378.111H787.968V264.321Z" fill="#BAD94D"/>
<path d="M765.522 312.876H738.272V285.618H721.645V312.876H694.349V329.508H721.645V356.813H738.272V329.508H765.522V312.876Z" fill="#EBF2F9"/>
<path d="M787.968 264.32L823.024 281.414V264.32H787.968Z" fill="#84A316"/>
<path d="M689.222 311.379C689.776 312.026 689.869 312.765 689.591 313.55C689.083 314.982 687.328 316.599 685.342 318.216C685.065 318.401 684.88 318.632 684.65 318.771C684.603 318.817 684.557 318.863 684.511 318.909C684.465 318.956 684.419 319.002 684.372 319.002C682.479 320.711 683.218 321.127 679.846 324.638C676.013 328.611 673.38 328.704 672.595 328.334C671.948 328.011 673.241 325.886 674.673 323.529C674.766 323.437 674.812 323.298 674.904 323.16C675.089 322.836 675.274 322.513 675.458 322.19C677.121 319.325 676.705 317.985 676.29 313.735C675.966 310.27 670.886 294.377 670.886 294.377L678.23 293.13C678.23 293.13 680.447 305.789 682.894 307.729C684.188 308.792 685.666 308.792 686.913 309.531C687.005 309.577 687.097 309.623 687.19 309.716C687.929 310.224 688.622 310.686 689.222 311.379Z" fill="#E49963"/>
<path d="M689.222 311.379C689.776 312.025 689.869 312.765 689.592 313.55C688.945 314.982 687.282 316.599 685.342 318.216C685.112 318.447 684.881 318.632 684.65 318.817C684.603 318.863 684.557 318.909 684.511 318.955C684.465 319.002 684.419 319.048 684.373 319.048C682.479 320.757 683.218 321.173 679.846 324.684C676.013 328.657 673.38 328.75 672.595 328.38C671.948 328.057 673.242 325.932 674.673 323.575C675.412 323.298 678.876 321.912 681.509 318.54C683.818 315.583 685.342 311.794 686.959 309.623C687.051 309.669 687.144 309.715 687.236 309.808C687.929 310.224 688.622 310.686 689.222 311.379Z" fill="#C65447"/>
<path d="M629.873 306.759C629.411 309.022 626.178 308.653 622.575 307.775C618.973 306.897 619.804 307.96 614.677 307.359C609.551 306.805 607.98 304.864 607.796 304.125C607.657 303.432 610.197 303.201 612.922 302.878C613.246 302.832 613.615 302.785 613.938 302.739C617.033 302.37 619.296 300.383 622.067 298.72C624.7 297.195 628.672 290.866 628.672 290.866L635.738 291.42C635.738 291.42 632.043 297.057 630.612 299.505C629.78 300.937 629.826 302.832 629.919 304.31C630.011 305.142 630.057 305.973 629.873 306.759Z" fill="#E49963"/>
<path d="M622.575 307.775C618.973 306.897 619.804 307.96 614.677 307.359C609.551 306.805 607.98 304.864 607.796 304.125C607.657 303.432 610.197 303.201 612.922 302.878L612.968 302.924C612.968 302.924 616.063 305.095 620.358 305.234C623.868 305.326 627.563 304.31 629.965 304.356C630.011 305.141 630.057 305.973 629.919 306.758C629.457 309.022 626.224 308.653 622.575 307.775Z" fill="#C65447"/>
<path d="M645.622 203.086C645.622 203.086 643.959 198.974 642.112 198.789C640.264 198.604 634.399 197.68 633.937 198.558C633.521 199.39 633.937 202.439 635.184 203.502C636.431 204.61 644.283 206.366 644.283 206.366L645.622 203.086Z" fill="#E49963"/>
<path d="M656.938 261.621L672.133 302.554C672.133 302.554 674.489 302.785 676.705 302.139C678.784 301.538 681.139 299.967 681.139 299.967C681.139 299.967 677.352 260.651 670.47 252.474C663.542 244.342 656.938 261.621 656.938 261.621Z" fill="#AA413E"/>
<path d="M717.118 245.035C717.118 245.035 673.426 230.251 663.681 233.393C653.936 236.535 624.654 294.793 624.654 294.793C624.654 294.793 625.3 295.671 627.101 296.364C628.764 297.01 632.829 296.964 632.829 296.964C632.829 296.964 659.247 274.326 662.388 267.72C665.528 261.113 666.775 254.83 669.916 255.43C673.057 256.077 710.468 270.861 718.966 262.037C727.464 253.213 725.247 241.801 725.247 241.801L717.118 245.035Z" fill="#C65447"/>
<path d="M690.377 176.29C689.684 174.858 688.899 172.27 688.529 167.743C688.575 168.205 689.361 173.934 691.578 177.214C700.676 183.174 718.089 203.132 717.765 206.874C717.765 206.874 723.908 196.479 724 196.387C724 196.387 735.316 181.972 721.922 173.749C715.086 169.545 715.133 164.185 715.41 159.519C715.687 154.853 713.562 134.71 699.891 139.977C699.891 139.977 697.72 139.006 696.704 139.145C696.704 139.145 697.489 139.284 697.905 139.699C696.335 139.607 694.072 139.746 692.178 140.808C687.19 143.673 682.71 169.175 690.377 176.29Z" fill="#B5453C"/>
<path d="M692.132 177.491C692.086 177.491 696.519 179.801 699.845 178.923C702.985 178.045 705.018 173.98 704.971 173.98C703.632 173.702 703.263 171.901 703.309 164.047L702.708 164.185L692.594 166.172C692.594 166.172 692.824 169.36 692.824 172.363C692.871 174.811 692.732 177.214 692.132 177.491Z" fill="#E49963"/>
<path d="M692.64 166.126C692.64 166.126 692.871 169.314 692.871 172.317C698.505 172.178 701.508 167.004 702.755 164.139L692.64 166.126Z" fill="#D68D5D"/>
<path d="M703.771 163.03C703.771 163.03 706.726 158.364 707.465 154.345C707.974 151.48 706.496 140.901 695.873 142.425C695.873 142.425 692.778 142.749 689.869 144.689C687.559 146.26 684.234 149.632 687.929 158.872L688.899 162.014L703.771 163.03Z" fill="#B5453C"/>
<path d="M690.746 168.99C690.746 168.99 704.14 169.221 704.14 160.859C704.14 152.543 705.895 146.953 697.351 146.445C688.806 145.936 687.144 149.124 686.451 151.896C685.758 154.715 687.236 168.713 690.746 168.99Z" fill="#E49963"/>
<path d="M703.355 148.015C703.355 148.015 694.21 141.778 691.346 146.075C690.469 145.336 688.899 144.781 686.866 147.276C683.772 151.018 686.543 157.671 686.543 157.671C687.836 157.81 688.113 153.467 688.76 151.342C689.268 149.725 690.931 148.108 691.716 147.415C692.871 150.048 696.104 156.331 700.491 157.486C706.126 158.918 708.528 157.44 708.528 157.44C708.528 157.44 704.232 153.975 703.355 148.015Z" fill="#B5453C"/>
<path d="M727.372 245.266C726.633 247.253 724.416 247.807 721.46 247.438C715.825 246.791 707.419 243.003 701.369 240.369C692.132 236.35 687.929 240.138 685.019 237.597C682.063 235.056 688.391 229.374 682.941 203.086C681.093 194.169 692.778 175.042 692.778 175.042C692.778 175.042 693.61 180.217 705.018 173.934C705.064 173.887 709.821 180.217 714.07 188.302C718.735 197.172 723.261 207.937 721.922 213.435C719.382 224.014 729.45 239.491 727.372 245.266Z" fill="#AECD40"/>
<path d="M692.778 175.042L685.897 203.409C685.897 203.409 685.019 204.934 683.68 207.105C680.493 212.233 674.673 220.919 670.932 221.797C669.085 222.212 665.159 220.688 660.817 218.516C652.596 214.358 642.851 207.844 642.851 207.844C642.204 204.056 645.484 201.007 645.484 201.007C645.484 201.007 665.205 208.399 667.145 208.537C671.394 208.861 675.736 188.255 679.754 181.372C682.617 176.428 692.778 175.042 692.778 175.042Z" fill="#A6CB25"/>
<path d="M693.702 163.908C693.702 163.908 693.471 164.971 690.838 164.786C690.838 164.786 688.621 164.648 688.714 163.493C688.668 163.539 690.838 162.707 693.702 163.908Z" fill="white"/>
<path d="M727.372 245.266C726.633 247.253 724.416 247.807 721.46 247.438C717.534 245.728 700.63 239.168 700.815 234.733C701.092 228.172 704.048 227.941 701.969 219.856C700.307 213.342 715.918 201.238 718.412 198.604C723.076 207.475 723.215 207.891 721.922 213.435C719.382 224.014 729.45 239.491 727.372 245.266Z" fill="#84A316"/>
<path d="M683.68 207.152C680.493 212.28 674.673 220.965 670.932 221.843C669.085 222.259 665.159 220.734 660.817 218.563C664.004 219.395 667.099 219.348 670.055 219.071C673.288 218.748 674.258 214.775 679.384 208.815C682.664 204.888 683.495 205.858 683.68 207.152Z" fill="#4A75CB"/>
<path d="M699.337 219.718C699.337 219.718 696.519 217.5 693.841 218.055C691.162 218.563 689.869 220.411 689.961 221.242C690.053 222.074 691.485 224.43 693.517 224.661C695.549 224.892 701.369 223.414 701.369 223.414L699.337 219.718Z" fill="#E49963"/>
<path d="M705.018 173.98C705.018 173.98 715.918 174.673 719.705 179.893C725.016 187.285 737.764 220.272 731.713 224.476C724.924 229.235 698.552 224.338 698.552 224.338C698.552 224.338 697.766 220.596 698.875 218.748C699.983 216.946 718.181 213.989 719.012 213.157C719.843 212.326 708.528 196.803 708.528 194.262C708.482 191.767 705.018 173.98 705.018 173.98Z" fill="#A6CB25"/>
<path d="M696.473 234.548H656.337L649.086 209.277H689.176L696.473 234.548Z" fill="#8C8C8C"/>
<path d="M708.943 233.531H656.476V234.502H708.943V233.531Z" fill="#565656"/>
<path d="M669.085 221.52C668.808 220.642 669.362 219.903 670.239 219.903C671.117 219.903 672.041 220.642 672.318 221.52C672.549 222.397 672.041 223.137 671.163 223.137C670.239 223.09 669.316 222.397 669.085 221.52Z" fill="#C4C4C4"/>
<g clip-path="url(#clip3)">
<path d="M365.437 159.442L347.995 159.629L354.353 184.82L371.795 184.633L365.437 159.442Z" fill="#BC403A"/>
<path d="M381.281 152.888L363.839 153.075L371.811 184.659L389.254 184.472L381.281 152.888Z" fill="#F3B03E"/>
<path d="M396.998 145.825L379.555 146.012L389.262 184.466L406.704 184.279L396.998 145.825Z" fill="#AECD40"/>
<path d="M431.492 149.355L428.566 161.274C428.201 162.773 427.772 163.851 427.282 164.507C426.8 165.164 426.154 165.658 425.345 165.988C424.534 166.311 423.491 166.48 422.216 166.493C421.125 166.505 420.079 166.401 419.079 166.182L418.309 163.132C419.147 163.399 420.137 163.526 421.281 163.514C422.005 163.506 422.553 163.355 422.925 163.059C423.295 162.757 423.537 162.24 423.65 161.511L413.986 149.542L418.281 149.496L425.353 158.791L425.484 158.789L425.575 158.214L427.315 149.4L431.492 149.355ZM455.172 165.91L451.126 165.953L447.642 152.148L440.597 152.223L444.082 166.029L440.023 166.072L435.791 149.309L450.94 149.146L455.172 165.91ZM463.699 156.919L465.035 156.905C466.283 156.892 467.163 156.668 467.675 156.233C468.184 155.791 468.335 155.157 468.127 154.331C467.917 153.498 467.499 152.885 466.875 152.493C466.26 152.101 465.398 151.911 464.289 151.923L462.443 151.943L463.699 156.919ZM472.193 154.161C472.649 155.965 472.351 157.352 471.3 158.321C470.258 159.29 468.55 159.788 466.176 159.813L464.434 159.832L465.939 165.794L461.88 165.838L457.649 149.074L463.764 149.009C466.086 148.984 467.96 149.404 469.386 150.271C470.82 151.129 471.755 152.426 472.193 154.161ZM492.314 165.512L489.919 161.536L482.94 161.611L482.56 165.616L478.186 165.663L480.694 148.758L485.656 148.705L496.688 165.465L492.314 165.512ZM488.198 158.565C486.002 154.963 484.761 152.926 484.476 152.454C484.199 151.982 483.991 151.609 483.852 151.334C483.81 152.316 483.597 154.744 483.209 158.619L488.198 158.565ZM496.755 148.655L502.713 148.591C505.428 148.562 507.482 148.881 508.876 149.548C510.276 150.208 511.163 151.275 511.535 152.75C511.788 153.752 511.725 154.576 511.346 155.224C510.975 155.872 510.361 156.266 509.503 156.405L509.532 156.52C510.806 156.744 511.79 157.178 512.487 157.822C513.192 158.466 513.681 159.327 513.953 160.405C514.339 161.934 514.007 163.133 512.957 164.003C511.917 164.872 510.314 165.319 508.149 165.342L500.987 165.419L496.755 148.655ZM502.49 155.25L504.847 155.225C505.947 155.213 506.704 155.056 507.117 154.752C507.539 154.449 507.664 153.953 507.49 153.265C507.328 152.623 506.941 152.167 506.331 151.898C505.727 151.621 504.845 151.488 503.684 151.501L501.549 151.524L502.49 155.25ZM503.202 158.071L504.305 162.44L506.949 162.411C508.067 162.399 508.845 162.203 509.283 161.823C509.721 161.443 509.842 160.866 509.647 160.094C509.296 158.703 507.986 158.02 505.716 158.044L503.202 158.071ZM536.029 165.043L531.984 165.086L528.499 151.281L523.811 151.331L523.99 152.87C524.435 156.782 524.647 159.531 524.628 161.118C524.615 162.697 524.292 163.812 523.66 164.463C523.028 165.113 522.033 165.438 520.676 165.437C519.943 165.445 519.276 165.368 518.675 165.206L517.94 162.293C518.485 162.441 518.979 162.512 519.425 162.507C519.888 162.503 520.208 162.315 520.386 161.945C520.562 161.568 520.641 160.877 520.624 159.873C520.614 158.862 520.517 157.211 520.332 154.921C520.156 152.623 519.949 150.453 519.713 148.409L531.798 148.279L536.029 165.043ZM553.763 164.853L542.738 164.971L538.507 148.207L549.532 148.089L550.267 151.001L543.301 151.076L544.23 154.757L550.711 154.687L551.446 157.6L544.965 157.669L546.056 161.992L553.022 161.917L553.763 164.853ZM575.332 164.621L571.287 164.665L569.461 157.43L561.879 157.511L563.705 164.746L559.646 164.79L555.415 148.026L559.474 147.982L561.132 154.553L568.714 154.471L567.055 147.901L571.101 147.858L575.332 164.621ZM597.661 164.382L593.053 164.431L583.968 156.009L586.113 164.506L582.054 164.549L577.823 147.786L581.882 147.742L583.931 155.86L588.743 147.668L593.063 147.622L588.117 155.746L597.661 164.382ZM613.666 164.21L611.271 160.235L604.292 160.31L603.912 164.315L599.538 164.362L602.046 147.457L607.008 147.404L618.04 164.163L613.666 164.21ZM609.55 157.264C607.354 153.662 606.113 151.625 605.828 151.153C605.551 150.681 605.343 150.307 605.204 150.033C605.163 151.014 604.949 153.443 604.561 157.318L609.55 157.264Z" fill="#BC403A"/>
<path d="M434.147 182.453L432.301 182.473L429.172 177.07C429.036 176.835 428.856 176.496 428.63 176.053C428.404 175.607 428.257 175.297 428.189 175.123C428.209 175.389 428.217 175.734 428.215 176.158C428.218 176.582 428.21 176.898 428.191 177.106L427.834 182.521L425.988 182.54L423.497 178.004L420.988 173.48L422.721 173.461L425.542 178.742C425.989 179.59 426.344 180.338 426.608 180.988C426.571 180.635 426.549 180.24 426.544 179.804C426.538 179.368 426.544 179.014 426.561 178.744L426.911 173.416L428.594 173.398L431.673 178.714C431.963 179.206 432.324 179.941 432.757 180.922C432.678 180.328 432.658 179.572 432.697 178.653L432.84 173.353L434.559 173.334L434.147 182.453ZM441.239 182.377L438.944 173.287L440.641 173.269L442.936 182.359L441.239 182.377ZM453.956 179.766C454.16 180.574 453.986 181.212 453.435 181.679C452.883 182.146 452.021 182.386 450.847 182.398C449.673 182.411 448.671 182.262 447.843 181.951L447.488 180.546C448.011 180.735 448.551 180.883 449.11 180.989C449.673 181.096 450.184 181.146 450.643 181.141C451.315 181.134 451.782 181.017 452.042 180.79C452.308 180.562 452.393 180.26 452.298 179.883C452.212 179.543 451.993 179.257 451.64 179.024C451.286 178.79 450.61 178.517 449.61 178.204C448.578 177.878 447.814 177.502 447.317 177.075C446.82 176.648 446.495 176.132 446.342 175.527C446.151 174.768 446.308 174.168 446.813 173.726C447.319 173.284 448.09 173.058 449.127 173.047C450.121 173.036 451.159 173.217 452.24 173.587L452.006 174.805C450.997 174.475 450.13 174.314 449.406 174.322C448.857 174.328 448.467 174.438 448.236 174.653C448.005 174.863 447.932 175.14 448.019 175.484C448.079 175.72 448.187 175.923 448.343 176.092C448.499 176.256 448.726 176.412 449.024 176.558C449.321 176.704 449.84 176.896 450.579 177.133C451.411 177.403 452.035 177.656 452.451 177.893C452.866 178.129 453.195 178.398 453.437 178.699C453.679 179 453.852 179.355 453.956 179.766ZM465.37 182.118L459.497 182.181L457.203 173.091L463.075 173.028L463.392 174.284L459.217 174.329L459.842 176.804L463.754 176.762L464.068 178.005L460.155 178.047L460.876 180.901L465.051 180.856L465.37 182.118ZM476.97 181.994L475.296 179.481L471.327 179.523L470.948 182.058L469.159 182.077L470.739 172.909L472.586 172.889L478.774 181.974L476.97 181.994ZM474.526 178.205L472.928 175.741C472.815 175.576 472.65 175.315 472.432 174.96C472.219 174.605 472.068 174.345 471.979 174.18C471.98 174.691 471.933 175.251 471.84 175.858L471.5 178.237L474.526 178.205ZM490.327 177.206C490.706 178.706 490.52 179.86 489.769 180.666C489.017 181.468 487.747 181.878 485.957 181.897L483.053 181.928L480.759 172.839L483.968 172.804C485.621 172.787 487.004 173.163 488.119 173.932C489.234 174.701 489.97 175.793 490.327 177.206ZM488.55 177.275C488.001 175.099 486.564 174.023 484.24 174.048L482.77 174.064L484.435 180.661L485.642 180.648C488.141 180.621 489.111 179.497 488.55 177.275ZM500.263 172.63L502.023 172.611L500.682 181.739L498.893 181.759L492.977 172.708L494.724 172.689L498.316 178.317C498.498 178.586 498.706 178.932 498.942 179.358C499.176 179.779 499.339 180.094 499.429 180.3C499.411 179.985 499.414 179.619 499.437 179.203C499.46 178.787 499.487 178.479 499.517 178.279L500.263 172.63ZM533.949 181.383L528.077 181.446L525.783 172.356L531.655 172.293L531.972 173.549L527.797 173.594L528.421 176.068L532.334 176.026L532.648 177.27L528.735 177.312L529.455 180.165L533.631 180.121L533.949 181.383Z" fill="#9F9999"/>
<path d="M508.597 181.655L506.303 172.565L508 172.547L510.294 181.636L508.597 181.655ZM518.362 173.583C517.387 173.593 516.697 173.904 516.291 174.515C515.885 175.126 515.816 175.964 516.085 177.03C516.367 178.144 516.847 178.985 517.526 179.552C518.21 180.118 519.061 180.395 520.079 180.384C520.519 180.38 520.936 180.338 521.329 180.259C521.721 180.176 522.124 180.071 522.539 179.946L522.861 181.221C522.114 181.499 521.225 181.644 520.193 181.655C518.674 181.671 517.405 181.282 516.388 180.486C515.37 179.687 514.671 178.537 514.293 177.036C514.054 176.091 514.042 175.262 514.256 174.549C514.474 173.836 514.91 173.287 515.563 172.902C516.216 172.517 517.046 172.319 518.055 172.308C519.115 172.297 520.144 172.481 521.142 172.861L520.844 174.105C520.457 173.963 520.053 173.841 519.633 173.737C519.217 173.63 518.793 173.578 518.362 173.583Z" fill="#BC403A"/>
<path d="M352.415 176.997L362.696 168.182L374.848 174.306L389.698 161.046L383.313 161.114L382.394 157.473L396.638 157.32L399.927 170.354L395.795 170.399L393.935 163.032L376.045 179.048L363.91 172.989L353.602 181.701L352.415 176.997Z" fill="white"/>
</g>
</g>
<defs>
<linearGradient id="paint0_linear" x1="314.383" y1="-3.18968" x2="675.756" y2="556.88" gradientUnits="userSpaceOnUse">
<stop stop-color="#FFF1C6"/>
<stop offset="1" stop-color="#FFD7CC"/>
</linearGradient>
<clipPath id="clip0">
<rect y="-0.000244141" width="966" height="380" rx="10" fill="white"/>
</clipPath>
<clipPath id="clip1">
<rect width="148" height="189" fill="white" transform="translate(193 188.668)"/>
</clipPath>
<clipPath id="clip2">
<rect width="98.6667" height="71.6371" fill="white" transform="translate(228.672 233.632)"/>
</clipPath>
<clipPath id="clip3">
<rect width="268.19" height="39.66" fill="white" transform="matrix(0.999943 -0.0107227 0.244733 0.969591 344.652 146.387)"/>
</clipPath>
</defs>
</svg>
