<svg width="197" height="32" viewBox="0 0 197 32" fill="none" xmlns="http://www.w3.org/2000/svg">
<g clip-path="url(#clip0)">
<path d="M12.813 11.02H0V31.9828H12.813V11.02Z" fill="#BC403A"/>
<path d="M25.6328 5.72168H12.8198V32.0046H25.6328V5.72168Z" fill="#F3B03E"/>
<path d="M38.4527 0H25.6396V32H38.4527V0Z" fill="#AECD40"/>
<path d="M63.0711 3.23573L58.7237 13.102C58.1786 14.3424 57.6656 15.233 57.1848 15.7737C56.7103 16.3144 56.146 16.7183 55.492 16.9855C54.8379 17.2463 54.0427 17.3767 53.1066 17.3767C52.3051 17.3767 51.558 17.2813 50.8655 17.0904V14.5523C51.4298 14.7813 52.1319 14.8958 52.972 14.8958C53.504 14.8958 53.9337 14.775 54.2608 14.5332C54.5877 14.2852 54.8604 13.859 55.0783 13.2546L50.2114 3.23573H53.3662L56.8289 11.0123H56.925L57.0981 10.5352L60.0029 3.23573H63.0711ZM77.3579 17.1859H74.386V5.69752H69.2113V17.1859H66.2295V3.23573H77.3579V17.1859ZM85.2678 9.80049H86.2488C87.1658 9.80049 87.8519 9.62237 88.3072 9.26616C88.7623 8.90356 88.9901 8.37876 88.9901 7.69174C88.9901 6.99837 88.7978 6.48629 88.413 6.1555C88.0348 5.82474 87.4382 5.65936 86.624 5.65936H85.2678V9.80049ZM92.0007 7.58677C92.0007 9.08804 91.5259 10.2362 90.5772 11.0314C89.6345 11.8265 88.2912 12.2241 86.5468 12.2241H85.2678V17.1859H82.2861V3.23573H86.778C88.4835 3.23573 89.7787 3.60148 90.6635 4.33303C91.555 5.05822 92.0007 6.14281 92.0007 7.58677ZM104.642 17.1859L103.623 13.8653H98.4965L97.4769 17.1859H94.2645L99.2275 3.17847H102.873L107.855 17.1859H104.642ZM102.911 11.3844C101.969 8.37558 101.437 6.67395 101.315 6.27956C101.199 5.88516 101.116 5.57346 101.065 5.34446C100.853 6.1587 100.247 8.17201 99.2467 11.3844H102.911ZM111.013 3.23573H115.39C117.384 3.23573 118.83 3.51879 119.728 4.08493C120.632 4.6447 121.084 5.53848 121.084 6.76619C121.084 7.59951 120.885 8.28333 120.488 8.81767C120.096 9.35203 119.574 9.67328 118.92 9.7814V9.87683C119.811 10.074 120.452 10.443 120.843 10.9837C121.241 11.5244 121.44 12.2432 121.44 13.1401C121.44 14.4124 120.975 15.4047 120.045 16.1172C119.122 16.8296 117.865 17.1859 116.275 17.1859H111.013V3.23573ZM113.995 8.76045H115.727C116.534 8.76045 117.118 8.63639 117.477 8.3883C117.843 8.14022 118.025 7.72992 118.025 7.1574C118.025 6.62308 117.826 6.24139 117.429 6.01239C117.038 5.77701 116.416 5.65936 115.563 5.65936H113.995V8.76045ZM113.995 11.1077V14.7432H115.938C116.759 14.7432 117.365 14.5873 117.756 14.2756C118.147 13.9639 118.343 13.4868 118.343 12.8443C118.343 11.6866 117.509 11.1077 115.842 11.1077H113.995ZM136.756 17.1859H133.784V5.69752H130.34L130.186 6.9761C129.789 10.2267 129.436 12.5104 129.128 13.8271C128.827 15.1375 128.384 16.0599 127.801 16.5943C127.218 17.1286 126.429 17.3894 125.435 17.3767C124.896 17.3767 124.422 17.3067 124.011 17.1668V14.7432C124.383 14.8704 124.733 14.934 125.06 14.934C125.4 14.934 125.669 14.7813 125.868 14.476C126.067 14.1643 126.252 13.5918 126.426 12.7584C126.605 11.9188 126.839 10.5479 127.128 8.64593C127.423 6.73756 127.673 4.93416 127.878 3.23573H136.756V17.1859ZM149.783 17.1859H141.684V3.23573H149.783V5.65936H144.666V8.72228H149.427V11.1459H144.666V14.7432H149.783V17.1859ZM165.627 17.1859H162.656V11.165H157.086V17.1859H154.105V3.23573H157.086V8.70319H162.656V3.23573H165.627V17.1859ZM182.03 17.1859H178.645L173.547 10.1154V17.1859H170.565V3.23573H173.547V9.99135L178.587 3.23573H181.761L176.634 9.93409L182.03 17.1859ZM193.787 17.1859L192.768 13.8653H187.641L186.622 17.1859H183.409L188.372 3.17847H192.018L197 17.1859H193.787ZM192.056 11.3844C191.114 8.37558 190.581 6.67395 190.459 6.27956C190.344 5.88516 190.261 5.57346 190.209 5.34446C189.998 6.1587 189.392 8.17201 188.391 11.3844H192.056Z" fill="#BC403A"/>
<path d="M58.8961 30.7285H57.54L56.2462 26.2169C56.1907 26.0202 56.121 25.7375 56.0377 25.3684C55.9541 24.9958 55.9037 24.7373 55.8864 24.5923C55.8516 24.8131 55.7941 25.0994 55.7142 25.4512C55.6377 25.803 55.5734 26.0651 55.5213 26.2377L54.2587 30.7285H52.9026L51.9165 26.9412L50.915 23.1644H52.1878L53.2782 27.5723C53.4485 28.2795 53.5703 28.9038 53.6433 29.4453C53.6816 29.1522 53.7389 28.8246 53.8153 28.4624C53.8918 28.1002 53.9615 27.8069 54.0241 27.5827L55.2655 23.1644H56.5018L57.7746 27.6035C57.8964 28.014 58.025 28.6279 58.1607 29.4453C58.2128 28.9521 58.338 28.3244 58.5363 27.5622L59.6213 23.1644H60.8836L58.8961 30.7285ZM64.1053 30.7285V23.1644H65.352V30.7285H64.1053ZM73.9051 28.6745C73.9051 29.3469 73.6598 29.8748 73.1694 30.2576C72.6791 30.6405 72.0028 30.8319 71.1402 30.8319C70.2779 30.8319 69.5719 30.6992 69.0224 30.4335V29.2643C69.3702 29.4264 69.7388 29.554 70.1283 29.647C70.5212 29.7403 70.8864 29.7869 71.2238 29.7869C71.7176 29.7869 72.081 29.6937 72.3139 29.5074C72.5504 29.3211 72.6686 29.071 72.6686 28.7572C72.6686 28.4745 72.5609 28.2346 72.3453 28.0381C72.1297 27.8415 71.6845 27.6086 71.0099 27.3396C70.3144 27.0601 69.8241 26.7412 69.5388 26.3824C69.2536 26.0236 69.1111 25.5926 69.1111 25.089C69.1111 24.4577 69.3371 23.961 69.7892 23.5988C70.2413 23.2366 70.8482 23.0557 71.6097 23.0557C72.34 23.0557 73.0669 23.2144 73.7903 23.5316L73.3938 24.5406C72.7156 24.2577 72.1105 24.1163 71.5785 24.1163C71.1751 24.1163 70.8691 24.2043 70.6603 24.3802C70.4518 24.5527 70.3473 24.782 70.3473 25.0683C70.3473 25.2649 70.3892 25.4338 70.4725 25.5754C70.5561 25.7134 70.6935 25.8443 70.8847 25.9685C71.0759 26.0927 71.4201 26.2565 71.9176 26.46C72.4774 26.6912 72.8878 26.9067 73.1487 27.1067C73.4094 27.3068 73.6006 27.5327 73.7224 27.7845C73.8442 28.0364 73.9051 28.3329 73.9051 28.6745ZM81.8319 30.7285H77.518V23.1644H81.8319V24.2094H78.7647V26.2686H81.6389V27.3034H78.7647V29.6782H81.8319V30.7285ZM90.3535 30.7285L89.592 28.6279H86.6759L85.93 30.7285H84.6155L87.4688 23.1332H88.8252L91.6785 30.7285H90.3535ZM89.2634 27.5622L88.5487 25.5029C88.4965 25.365 88.4235 25.1475 88.3295 24.8511C88.2391 24.5544 88.1765 24.3369 88.1417 24.199C88.0479 24.6232 87.9105 25.0873 87.7297 25.5909L87.0411 27.5622H89.2634ZM101.024 26.874C101.024 28.1225 100.675 29.078 99.9758 29.7403C99.2769 30.3991 98.2701 30.7285 96.9554 30.7285H94.8219V23.1644H97.1797C98.3936 23.1644 99.3378 23.4886 100.012 24.1369C100.687 24.7854 101.024 25.6977 101.024 26.874ZM99.7097 26.9154C99.7097 25.1045 98.8559 24.199 97.1485 24.199H96.0687V29.6886H96.9554C98.7916 29.6886 99.7097 28.7642 99.7097 26.9154ZM109.15 23.1644H110.443L107.772 30.7285H106.458L103.797 23.1644H105.081L106.672 27.8673C106.755 28.0915 106.844 28.3812 106.938 28.7366C107.032 29.0884 107.093 29.3506 107.12 29.5231C107.165 29.2609 107.235 28.9572 107.329 28.6124C107.423 28.2674 107.499 28.0123 107.559 27.8466L109.15 23.1644ZM132.21 30.7285H127.896V23.1644H132.21V24.2094H129.143V26.2686H132.017V27.3034H129.143V29.6782H132.21V30.7285Z" fill="#9F9999"/>
<path d="M113.586 30.7285V23.1644H114.833V30.7285H113.586ZM122.233 24.1163C121.517 24.1163 120.954 24.3681 120.543 24.8716C120.133 25.3753 119.928 26.0702 119.928 26.9567C119.928 27.8845 120.124 28.5866 120.517 29.0626C120.913 29.5385 121.486 29.7765 122.233 29.7765C122.557 29.7765 122.87 29.7454 123.172 29.6833C123.475 29.6178 123.79 29.5349 124.117 29.4349V30.4956C123.518 30.7198 122.84 30.8319 122.082 30.8319C120.966 30.8319 120.108 30.4975 119.51 29.8282C118.912 29.1556 118.613 28.1949 118.613 26.9463C118.613 26.1599 118.757 25.4718 119.046 24.882C119.338 24.2922 119.759 23.8404 120.308 23.5266C120.858 23.2127 121.503 23.0557 122.244 23.0557C123.023 23.0557 123.743 23.2178 124.403 23.542L123.955 24.5715C123.697 24.4509 123.424 24.3456 123.136 24.256C122.851 24.1629 122.55 24.1163 122.233 24.1163Z" fill="#BC403A"/>
<path d="M0.0273438 25.473L9.1896 18.2484L16.9599 23.4393L30.2911 12.5664H25.6006V9.53638H36.0639V20.383H33.0279V14.2527L16.9599 27.3854L9.1896 22.2489L0.0273438 29.3875V25.473Z" fill="white"/>
</g>
<defs>
<clipPath id="clip0">
<rect width="197" height="32" fill="white"/>
</clipPath>
</defs>
</svg>
